<svg id="0eefb8be-b0ee-4863-a5a0-d915deae3de3" data-name="Ebene 1" xmlns="http://www.w3.org/2000/svg" viewBox="0 0 848.84 80.64"><defs><style>.\34 c9ae604-20ea-479f-975f-84674f276fbd{fill:#fff;}</style></defs><title>logo-light</title><path class="4c9ae604-20ea-479f-975f-84674f276fbd" d="M0,39.65A42.49,42.49,0,0,1,2.52,25.37,39.4,39.4,0,0,1,9.86,12.66,37.64,37.64,0,0,1,21.67,3.53,35,35,0,0,1,37.63,0Q48.27,0,55.78,4.87A30.79,30.79,0,0,1,67,17.36l-4.71,2.69a27,27,0,0,0-5-7,26.62,26.62,0,0,0-6.16-4.53,27.19,27.19,0,0,0-6.89-2.52,33.14,33.14,0,0,0-7.06-.79A28.4,28.4,0,0,0,23.74,8.34a32,32,0,0,0-9.85,8A34.79,34.79,0,0,0,7.78,27.5,39.25,39.25,0,0,0,5.71,40,36.8,36.8,0,0,0,8.18,53.42,37.31,37.31,0,0,0,14.9,64.68,32.4,32.4,0,0,0,25,72.46a27.53,27.53,0,0,0,12.54,2.92,32.08,32.08,0,0,0,7.39-.9,28.78,28.78,0,0,0,7.28-2.8,29.53,29.53,0,0,0,6.5-4.87,26.26,26.26,0,0,0,5-7l4.93,2.35a26.67,26.67,0,0,1-5.49,8,34.44,34.44,0,0,1-7.73,5.83,36.91,36.91,0,0,1-9,3.52,38.58,38.58,0,0,1-9.35,1.18,31.47,31.47,0,0,1-14.95-3.58,39.44,39.44,0,0,1-11.7-9.36A43.26,43.26,0,0,1,2.74,54.6,42.32,42.32,0,0,1,0,39.65Z"/><path class="4c9ae604-20ea-479f-975f-84674f276fbd" d="M217.17,80V.45h5.71V80Z"/><path class="4c9ae604-20ea-479f-975f-84674f276fbd" d="M641.53,74.82V80h-53V.45h52V5.6H594.27V36.85H634.7v4.93H594.27v33Z"/><path class="4c9ae604-20ea-479f-975f-84674f276fbd" d="M829,49.06a21.06,21.06,0,0,0,7.62-2.8,21.44,21.44,0,0,0,5.93-5.38,25.09,25.09,0,0,0,3.81-7.34,26.73,26.73,0,0,0,1.34-8.45A24.16,24.16,0,0,0,846,16.18a27,27,0,0,0-4.82-7.95,23.77,23.77,0,0,0-7.33-5.65,20.5,20.5,0,0,0-9.3-2.13h-33V5.63h5.71v0h27.11a15,15,0,0,1,6.88,1.62,19,19,0,0,1,5.6,4.32,20.44,20.44,0,0,1,3.81,6.21,19.59,19.59,0,0,1,1.4,7.34,22.79,22.79,0,0,1-1.17,7.22,19.85,19.85,0,0,1-3.42,6.27A17.59,17.59,0,0,1,832,43a14.45,14.45,0,0,1-6.94,1.68H797.21v-.06H791.5V80h5.71V50H823l19.27,30h6.6Z"/><path class="4c9ae604-20ea-479f-975f-84674f276fbd" d="M438.07.45v0h-65v0h-3.7L403.09,80h5.26L442,.45ZM405.66,72.8,377.79,6.11h55.74Z"/></svg>