<?xml version="1.0" encoding="utf-8"?>
<!-- Generator: Adobe Illustrator 22.1.0, SVG Export Plug-In . SVG Version: 6.00 Build 0)  -->
<svg version="1.1" id="Ebene_1" xmlns="http://www.w3.org/2000/svg" xmlns:xlink="http://www.w3.org/1999/xlink" x="0px" y="0px"
	 width="1366px" height="768px" viewBox="0 0 1366 768" style="enable-background:new 0 0 1366 768;" xml:space="preserve">
<style type="text/css">
	.st0{fill-rule:evenodd;clip-rule:evenodd;}
	.st1{clip-path:url(#SVGID_2_);}
</style>
<g>
	<path class="st0" d="M1365.8,17.5c1.2,0,2.4,0,3.7,0c0.8-1,0.8-1.1,0-2c-1.2,0-2.4,0-3.7,0C1364.6,15.9,1364.6,17.1,1365.8,17.5z"
		/>
</g>
<g>
	<defs>
		<rect id="SVGID_1_" width="1366" height="745"/>
	</defs>
	<clipPath id="SVGID_2_">
		<use xlink:href="#SVGID_1_"  style="overflow:visible;"/>
	</clipPath>
	<g class="st1">
		<path d="M1290.8,539.7c1.9,0,3.7,0,5.6,0c0-0.5,0-0.9,0-1.4c-1.3,0-2.5,0-3.7,0C1292.6,538.9,1290.3,539,1290.8,539.7z"/>
		<path d="M611.4,557.2c-5,4.3-11.5,8.6-9.1,13.6C611.9,566.9,613.8,560.5,611.4,557.2z"/>
		<path d="M1298.5,553.2c0.2,1.2,3.4,1.6,5.6,2.3C1303.9,554.3,1303.8,553.1,1298.5,553.2z"/>
		<path d="M721.9,559c0,0.5,0,0.9,0,1.4c1.9,0,3.7,0,5.6,0C727.9,559.4,726,558.9,721.9,559z"/>
		<path d="M506.6,566.9c-0.1,0.6-2.4,0.7-1.8,1.4c1.2,0,2.5,0,3.8,0C510.6,567.6,510.6,567.1,506.6,566.9z"/>
		<path d="M510.6,575.7c-4.2,2-6,0.4-11.2,1c5.1,1.3,10.8,3.1,20.7,2.6C519.9,577.4,518.6,575.7,510.6,575.7z"/>
		<path d="M600.5,580.5c6.8,0.3,8.8-4.7,1.8-4.7C603.3,577.8,595.4,579.1,600.5,580.5z"/>
		<path d="M566.8,579c4.4,0.9,14.4,0.4,14.9-1.1c-1.5-0.1-2.2-0.4-1.9-0.9C572.9,577,567,577.3,566.8,579z"/>
		<path d="M731.6,578.5c-1.2,2.2-6,6-3.6,7.5C730.1,584,734.3,580.1,731.6,578.5z"/>
		<path d="M632.6,592.8c-7.3,0.5-13.8,4.2-1.8,4.2c5.4-4.2,17-10.7,14.7-16.4C642.1,584.9,633.9,588.1,632.6,592.8z"/>
		<path d="M1263.5,586.5c-0.3-3.3-0.6-6.7-5.8-8.8C1259,580.8,1259.2,584.2,1263.5,586.5z"/>
		<path d="M1102.7,597.2c1.7-3.6,6.8-9.6,11-14c-1.9,0-3.8,0-5.6,0C1111,588.5,1095.7,594,1102.7,597.2z"/>
		<path d="M617.7,598.1c-2.2-1.5-2.1,1.3-1.8,1.9c-3.1,1.4,0.2,6.8-7.4,5.6c3.2-4.9,8.2-11,5.4-15.9c-1.9,0-3.7,0-5.6,0
			c-7.7,8.2-12.9,21.9-8.9,29.8c5.5-1.1,10.8-3.3,7.4-5.2c4.3,0.1,7.2-0.1,9.4-0.5c1.7-5.9,2.2-8.1,3.5-13.1
			C615.5,600.8,618.7,598.9,617.7,598.1z M608.5,611.2c-1.8,5.2-2-2,0-3.7C617,607.5,610,610.5,608.5,611.2z"/>
		<path d="M992,587c-1.3,0.5-7.3,2.2-1.8,2.8C991.5,589.3,997.5,587.6,992,587z"/>
		<path d="M1284.2,590c1.7-1.8,2.7-3.8-3.9-4.6C1277.9,586.9,1281.5,588.6,1284.2,590z"/>
		<path d="M988.3,590.3c1.2,2.2-2.4,5.6,2,7C993.4,594.7,991.8,591.7,988.3,590.3z"/>
		<path d="M657.1,604.7c0.4,2-2.8,3-3.7,4.7C658.8,609.1,660.6,605.6,657.1,604.7z"/>
		<path d="M773.2,604.6c-2.8,5.1,2,10.9,2.1,15.3C780.8,615.4,779.1,607.1,773.2,604.6z"/>
		<path d="M733.9,606.4c-2.3,3-4.2,6.1-5.4,9.3C735.5,614.2,736.2,608.6,733.9,606.4z"/>
		<path d="M855.7,610.5c-2.5,1.6-9.3,2.9-5.5,4.7C857.4,615.2,857.1,611,855.7,610.5z"/>
		<path d="M567.4,615.2c0.2,1.4-4.1,2.3,0.1,3.7C569.4,618.5,571.3,615.6,567.4,615.2z"/>
		<path d="M1011.3,617.5c-0.3-0.9-1.3-1.5-3.8-1.8C1007.9,616.5,1005.6,618,1011.3,617.5z"/>
		<path d="M605,620.5c-0.9,3.1-8.8,5.1,0.1,7C607.7,626.1,608.4,621.8,605,620.5z"/>
		<path d="M1007.5,618.5c-0.2,3.9,2.3,5.7,0.2,9.3C1014.7,625.9,1013.5,620.5,1007.5,618.5z"/>
		<path d="M477.7,624.9c-1.7,0.8-7.6,0.7-5.6,2.4C478.5,627.8,482,625.3,477.7,624.9z"/>
		<path d="M988.9,625.6c0.2,0.8-0.9,4.2,1.9,2.8C990.6,627.6,991.8,624.2,988.9,625.6z"/>
		<path d="M783,630.6c0.2-0.6,0.2-3.4-1.9-1.8C780.9,629.4,780.9,632.1,783,630.6z"/>
		<path d="M758.7,630.8c-2.8,0.1-6.9-0.1-7.5,0.5C753.7,631.9,758.2,631.9,758.7,630.8z"/>
		<path d="M582.7,635.6c0-0.5,0-0.9,0-1.4c-3.5-0.9-6.9-0.1-11.2,0.1c-0.4,0.9,2.1,1,1.9,1.8C577.7,636.2,580.6,636,582.7,635.6z"/>
		<path d="M1007.7,630.1c1.2,1.3-2.3,3.7,1.9,4.2C1013.6,632.7,1013.5,631.3,1007.7,630.1z"/>
		<path d="M412.4,637.5c0,0.5,0,0.9,0,1.4C417.9,639.5,417.8,636.8,412.4,637.5z"/>
		<path d="M1058.4,632.5c-4.8-0.5-8.3,1.6-3.7,1.9C1055.4,633.6,1060.5,633.9,1058.4,632.5z"/>
		<path d="M560.3,637.6c2.5,1.4-5.5,2.6,0.1,3.3C562.1,640.5,564.3,637.9,560.3,637.6z"/>
		<path d="M586.6,638.8c-13.2,10.7-8.6,23.3-16.3,33.6c8.3,1.2-5.3,5.6,5.7,6.9c5.1-2.4,0.5-4.5,9.3-6.1c2-2.1-3.2-2.3-3.8-3.7
			c12.1-8.1,14.7-17.2,10.7-30.3C589.8,639.2,589.6,638.7,586.6,638.8z"/>
		<path d="M672.7,638.1c-0.9,3.3-9.9,7.2-5.4,10.3C668.1,645.3,679.3,639.9,672.7,638.1z"/>
		<path d="M478.1,650.4c-1.2,1.7-3.6,3.1-3.6,5.1C480,655.2,481.8,651.5,478.1,650.4z"/>
		<path d="M659.8,652.1c1,1.4-4.4,1.9,1.9,2.3C664.7,653.7,663.1,652.5,659.8,652.1z"/>
		<path d="M392.2,660c5.3,0,7.8,0.8,13.1,0.8C407.7,659.1,394.2,659.1,392.2,660z"/>
		<path d="M478.4,662.5c-0.4-0.4-1.6-0.5-3.8-0.4c-0.1,0.6-2.4,0.7-1.8,1.4c-4.2,3.7-7.9,9.3-11,15c-2.8,5.3-15.7,12,0.2,14.4
			c13.5-1.7,6.1-4.4,5.5-7.5C466.2,678,481,669.3,478.4,662.5z"/>
		<path d="M1240.4,656.9c-1.7,1.2-16,2.5-5.6,3.8c-0.6-1.2,2.6-1.5,7.5-1.5C1241.3,658.6,1244.4,656.8,1240.4,656.9z"/>
		<path d="M1300.3,656.9c-2.1,3.4,2.5,8.1,3.9,12.1c-2.4,2-6.5,4,3.8,4.6C1310,669.5,1308.3,661.6,1300.3,656.9z"/>
		<path d="M991.4,660c0,0.3,0,0.6,0,0.9c1.9,0,3.7,0,5.6-0.1c0-0.3,0-0.6,0-0.9C995.1,660,993.2,660,991.4,660z"/>
		<path d="M1008.9,591c-0.3,0.1-0.6,0.3-0.9,0.5C1008.5,591.4,1008.9,591.3,1008.9,591z"/>
		<path d="M1049.1,639.5c-0.9,1.1-5.7,3.5-1.8,4.2C1048.1,642.7,1052.2,638.4,1049.1,639.5z"/>
		<path d="M387.2,530c0.1-1.4-0.3-2.6-1.9-3.4C385.5,527.9,385.9,529.2,387.2,530z"/>
		<path d="M584.6,533.4c-1.6,0-2.8,0-3.7-0.3C580.7,534.2,584.9,535,584.6,533.4z"/>
		<path d="M519.9,543.7c-0.2,1-0.1,1.8,2.8,1.7c0.3-0.5,1.3-0.7,0.9-1.4C522.4,543.9,521.8,543.6,519.9,543.7z"/>
		<path d="M518.5,566.1c-1.9-0.6-3-1.6-5.5-2C511.7,565.7,515.6,567.1,518.5,566.1z"/>
		<path d="M1281.3,133.7c0-0.3,0-0.7,0-1c-2.8,0-6-0.1-5.5,1.1C1277,134.2,1280.2,134.2,1281.3,133.7z"/>
		<path d="M418.6,540.4c-0.7,0.2-1.1-0.2-1.9,0.2c0.5,1,1.1,1.9,2.3,1.6C418.5,541.5,419.2,541.1,418.6,540.4z"/>
		<path d="M422.2,555.9c0.8,1.6,2.4,1.7,4.5,0.9C426.3,554.6,423.2,554.5,422.2,555.9z"/>
		<path d="M421.8,567.2c1.1-1.3-1-2.9-3.4-2.1C418.4,566.5,419.5,567.9,421.8,567.2z"/>
		<path d="M500.9,563.6c0.3,0.5,0.7,1,1,1.5C504.2,564.7,502.6,563,500.9,563.6z"/>
		<path d="M414.2,614.6c1.9,3.4,4.3,9.2,9,8.7C420.1,620.4,418.4,615.1,414.2,614.6z"/>
		<path d="M1331.9,611.9c0,0.2-0.2,0.6,0.2,0.6C1332,612.2,1332.8,611.9,1331.9,611.9z"/>
		<path d="M1605.4,240.6c-1.8-3-6.1-0.1-9.1,0.7c-3.8,6.5-9.8,8.5-13.7,12.4c-7.1,7.1-13.3,9.8-21.3,15.2c-3.4,1.4-5.4,3.5-9.2,4.6
			c-2.3,4.4-7.2,5.7-9.4,9.3c3.9,1.6,8.1,0.5,11.5-1.7c2.5-1.6,4.3-5.2,7.9-3.8c-0.5,2.4-2.6,2.9-4.6,4.5
			c-5.2,4.3-10,10.8-15.9,13.1c-1.3,4.4-7.8,4.3-9.1,7.9c-0.7,1.8,1.4,3.3-1.3,5.3c-0.3-0.7-1.3-2.1-2.7-2c-1.2,0.6-0.9,0.8-1.7,1.8
			c1.1,1.4,3-0.3,3.1,1c-2,3.9-4,5.4-7.5,8.8c-2.1,2.1-3.6,4.7-5.1,6.2c-1.7,1.7-4.3,1.5-6.2,2.4c-2.1,1-3.3,2.4-4.7,3.7v-49.9
			v-22.4v-34.2v-3.7c0.7-1.2,0.3-1.5-1.4-0.9c-0.3,0.1-0.7,0.2-1.2,0.3c0-0.5,0-1.1,0-1.7c1.2-1.1,1.1-2-0.5-2.7
			c-1.1,1.2-1.8,2.8-2,4.5c-1.6-1-3.8-1.7-7.5-2.4c-1.7-2.7-0.1-4.4,4.2-5.2c-1.5-0.5-3.5-0.7-5.5-0.7c0.8-3.1,4-6.7,6.8-9.5
			c5.5-5.5,8.5-11,7.4-16.9c-0.2-0.6,0.7-1.3,1.3-2c-1.3-1.3-0.5-8.8,0.3-10.2c0.2-0.4,1.1-0.2,1.3-0.9c0.2-0.5-0.7-1.1-0.6-1.5
			c1.1-5.6,10.7-5.1,13.4-9.8c-4.8-1.2-8,5.1-12.5,5.5c-1.3-1.5-1.5-3.1-1.8-4.6c3.3-7.9,4.2-15.9,8.7-23.4c1.7-2.8,2.7-4.2,2.8-6.4
			c-3.1-3.6-1-7,0.4-10.9c1.9-5.2,2.5-12.3,6.1-17.2c-0.5-3,3.7-5.6,6.9-8.8c1.1-1,2.2-2.1,3.2-3c3.4-2.9,10.1-5.7,9.8-9.1
			c-4.6-1.1-6.6,6.2-10,6.6c-0.6-3.7,1.1-6.9,2.3-10.3c0.5-1.4,1.9-2.5,2.4-3.8c0.4-1-0.2-2.1,0.3-3c2.4-5.2,9-9.7,8.9-15.3
			c-1.8-1-1.8-2.1-3.7-2.5c-8.7,1.9-7.5,9.9-9.8,14.7c-1.7,3.5-6.8,7-7.8,10.3c-0.9,2.8-1.4,5.9-2.8,9.2
			c-3.9,9.2-7.7,17.8-16.2,26.2c3-0.3,3.7-3.3,6.5-3.8c-0.3,2.2-2.4,4.3-4.7,5.2c-3.2,7.3-16.5,12.2-13.9,20.3
			c-0.9,3.8-3.2,7.4-4.9,11c0-0.1-0.4-0.1-1,0c-5.4,1.5-11.1,2.6-17,3.4c0.6-1.8,1.1-3.6,1.6-5.3c4.1-7.8,0.2-14.5,6-22.5
			c0.1-2.3,1.2-7.6-4.2-6.4c-4.2,6.9,0.9,12.7-4.5,19.8c0.3,2.6,0.2,6.4-2.4,8.6c-3.9-2.6-3.3-5.8-4.6-8.7
			c0.1-9.4-3.9-19.6-0.5-28.7c-0.8-3,1.1-6.3-1.8-9c-6.1-1.1-5,3.5-5.1,7.8c-0.1,4,3,9.8-1.9,12.5c-0.6-0.3-1.1-0.5-1.5-0.5
			c-1.3-2.1,0.9-4.6,0.7-6.8c-3.3-2.9-5.6-0.4-6.5,1c2.3-5.1,1.4-10.9,3.5-16c0.6-1.4,1.8-2.4,2.4-3.8c1.9-4.4,1.2-8.5,2.7-12.9
			c1.2-3.7,2.7-7,3.7-10.7c0.5-0.5,1-1.1,1.4-1.6c-0.4-1.2-0.1-2.5,1.6-3.9c0.3-1.8,0.7-3.6,1.3-5.4c6.4-0.5,12.1-1.1,15.1-1.6
			c5.4-0.9,11.8-1.8,14.1-2c2.3-0.2,5.3-1.1,6.6-1.9c1.7-1.1-0.8-1.8-8.3-2.4c-8-0.7-9.8-1.3-7-2.2c7.2-2.4,1.9-3.8-12.4-3.3
			c-1.2,0-2.3,0.1-3.3,0.1c1.6-4.1,3.3-8.2,4.6-12.3c-1.1-2.2,0.3-4.7-4.2-6.4c-1.2,1.2-2.7,0.8-4,1.7c-1.6,3.4-3.8,7-4.3,10.3
			c0.9,2.1,0.8,4.3,0.2,6.6c-3.5-0.3-6-0.8-7.6-1.6c-2.3-1.2-3.4-2.2-2.4-2.2c0.9,0,1.7-1.4,1.7-3c0-2.5-0.9-2.9-6.3-2.2
			c-4,0.5-6.3,0.2-6.3-1c0-1.1,3.2-1.8,8.1-1.8c7.2,0,8.2-0.4,8.7-3.6c0.5-3.5,1.1-3.6,24.1-4c14.7-0.3,23.2-1,22.6-2
			c-0.5-0.9-2.8-1.6-5-1.6s-4-0.7-4-1.5c0-2.7,5.4-4.4,14.9-4.6c5-0.1,11.3-0.7,14-1.3l5-1l-5.8-1.9l-5.8-1.9l4-2.1
			c3.2-1.6,5.8-1.7,12.9-0.1c8.9,1.9,13.7,0.7,13.7-3.4c0-3.7-18.5-8.5-38.8-10.1c-14.7-1.1-28.9-6-23.1-7.9
			c1.8-0.6,5.8-2.3,8.8-3.7c4.7-2.3,5.1-2.8,2.5-3.8c-1.7-0.6-5.1-1.2-7.7-1.3c-3-0.1-4.4-0.8-4-2.1c0.5-1.4,5.2-2,16.2-1.8
			c9,0.1,16-0.5,16.6-1.5c1.3-2-10.9-8.2-18.6-9.5c-3.1-0.5-8.5-2.1-12.1-3.6c-5.5-2.3-6.1-2.9-3.7-4.2c5.2-2.8,3.1-4.9-3.8-3.8
			c-7.4,1.2-9.5-1.6-2.5-3.3c4.5-1.1,4.9-1.9,2.6-5.4c-1-1.6-0.6-2.9,1.3-4.3c1.5-1.1,2.3-2.4,1.8-2.9c-0.9-0.8-26-3.1-51-4.6
			c-13.7-0.8-28.1-3.1-29-4.5c-0.5-0.8-2.3-1.4-4-1.4c-4.1,0-5.7-2.8-3.2-5.7c1.2-1.4,4.9-2.3,9.4-2.3c8.6,0,9.3-3.7,0.8-4.5
			c-6.9-0.7-6.8-3.5,0.1-3.6l5.4-0.1l-4.2-1.9c-2.6-1.2-4-2.9-3.6-4.7c0.5-2.2,2.4-2.8,9.1-3l8.5-0.2l-7.8-2.5
			c-7.5-2.4-11-5.5-5-4.3c1.6,0.3,8.6,0.9,15.5,1.4c11.2,0.8,12.6,0.6,12.4-1.9c-0.2-2.4,1.1-2.7,10-2.2c5.6,0.3,11.2,0,12.4-0.7
			c3.6-2.1-7.9-4.2-27.1-4.9c-14-0.5-17.7-1.1-17.7-3c0-1.5-1.8-2.3-5.1-2.3c-4.2,0-4.9-0.5-4.1-3c0.8-2.4-0.4-3.5-5.6-5.5
			c-3.6-1.4-7.3-3.8-8.2-5.4c-1.5-2.7-5.7-2.8-62.4-2.7c-35.6,0.1-65.6,0.9-72.3,1.9c-11.8,1.8-55.2,3.1-57.9,1.7
			c-0.8-0.4-6.7-0.9-13.1-1.1c-6.4-0.2-13.4-0.7-15.7-1.1c-2.3-0.4-10.1,0-17.3,1c-7.3,0.9-25.1,2.3-39.6,3
			c-14.5,0.8-30.1,1.9-34.7,2.5c-13.9,1.8-21.1,2.1-79.2,3c-30.9,0.5-59.8,1.3-64.4,1.7c-4.5,0.5-20.1,1.2-34.6,1.7
			c-14.6,0.5-27.2,1.6-28.4,2.5c-1.1,0.9-2.9,1.2-4,0.6c-3.6-2.2-49.1-2.6-89.9-0.8c-50.4,2.2-68.4,2.8-117.2,4.1
			c-24.7,0.6-45.3,2.1-58.9,4.1c-11.5,1.7-23.9,3.1-27.4,3.1s-12.7,1.1-20.4,2.3c-7.6,1.3-21.3,2.7-30.3,3.2
			c-19.5,1.1-29.9,2-35.2,3.3c-2.4,0.6-5-0.1-6.8-1.6c-3-2.6-12.4-1.8-10.7,0.9c0.5,0.7,0.1,1.8-0.8,2.3c-0.9,0.6-1.7-0.1-1.7-1.5
			c0-2.6-3.5-3.4-5.6-1.3c-0.7,0.7-2.8,1.3-4.8,1.3c-5.1,0.2-21.8,2-45.3,4.9c-13,1.6-21,2-22.3,1c-2.6-2-16.4-1.4-26,1.1
			c-4.1,1.1-11.7,2.3-16.9,2.8c-8,0.7-9.5,0.4-9.5-1.7c0-1.4-0.7-2.6-1.7-2.6s-1.7,0.8-1.7,1.8c0,1-1.3,1.4-2.9,1
			c-6.9-1.9-7.8-1.9-7.4,0c0.5,2.5-2.4,2.6-3.3,0.1c-0.5-1.4-3.7-1.4-13.5,0.1c-12.6,2-19.4,1.5-9.4-0.6c2.8-0.6,5.1-1.8,5.1-2.6
			c0-1.8-21.6-0.1-23.9,2c-0.9,0.8-3.6,1.4-6.1,1.4c-3.4,0-4.3-0.6-3.6-2.4c0.5-1.3,0.1-2.4-0.9-2.4c-1,0-1.8-0.6-1.8-1.3
			c0-1.3,10-5.3,11.7-4.7c0.5,0.2,2.1-0.6,3.6-1.7c2.9-2.3,16-3.3,59-4.4c42.5-1.1,110.1-5.1,133.7-8c40.3-4.9,68.8-7.3,160.1-13.8
			c11.4-0.8,33.3-2.1,48.7-3s32.1-2.6,37-4c4.9-1.3,19-3.2,31.4-4.2c30.5-2.3,62.6-5.3,91.6-8.6c3.5-0.4,5.7-0.1,5,0.7
			c-1.7,1.6-20.7,4.2-48.1,6.4c-23.3,1.9-35.5,5.1-14.4,3.8c7.3-0.5,19.2-1.5,26.4-2.3c7.3-0.8,25.1-2.7,39.6-4.1
			c14.5-1.5,27.9-2.8,29.7-3c1.8-0.2,8.5-0.8,14.9-1.5c6.4-0.6,14.5-1.8,18.2-2.6c6.3-1.5,46.9-5.6,71-7.2c21.4-1.4,32.9-2.5,52-4.7
			c33.7-3.9,45.6-4.5,48.1-2.2c3.2,2.9,7.9,3.4,10.7,1.1c1.8-1.5,2.9-1.5,4.3-0.1c1.2,1.2,2.6,1.3,3.7,0.3c1-0.8,21.1-2,44.7-2.5
			c50-1.2,49.1-1.2,57.7-3.5c3.6-1,18.5-2.6,33-3.6c44.1-3.1,48.2-3.5,44.6-4.7c-2.2-0.8,0.2-1.5,7.5-2.3c8.5-0.9,13.6-0.4,23.7,2.2
			c7.1,1.8,13.4,2.9,13.9,2.4c0.5-0.5-0.7-1.3-2.7-1.8c-6-1.5-4.1-3.6,2.5-2.7c6.8,0.9,22.2,5.6,23.5,7.1c1.3,1.6,15.2,3.3,14.2,1.7
			c-1.1-1.8,15.8-0.4,17.9,1.5c2.6,2.3,6.3,1.6,5.3-1c-0.7-1.7,0.2-2.4,3-2.4c8.1,0,20.4,3.5,25.7,7.3c5.3,3.8,14.3,5.5,12.3,2.3
			c-0.6-0.9,0.6-1.6,2.5-1.6c1.9,0,3,0.7,2.5,1.6c-1.5,2.4,9,2,18.3-0.8c4.5-1.3,10.3-2.4,13.1-2.5c4.2-0.1-9-3.9-25.2-7.2
			c-2.1-0.4-3.4-1.5-2.8-2.3c0.5-0.8,3.2-1.1,5.8-0.6c2.8,0.5,4.9,0.3,4.9-0.7c0-2-5.6-3.5-12.8-3.6c-3,0-5.4-0.7-5.4-1.6
			c0-0.9-2.4-1.6-5.4-1.6c-3,0-6.5-0.7-7.8-1.6c-1.7-1.1,1.3-1.6,9.8-1.6c14.4,0,14.8-0.9,1-2.3c-5.4-0.6-11.4-1.3-13.2-1.6
			c-1.8-0.3-6.5-0.7-10.3-0.7c-3.9-0.1-7-0.9-7-1.8c0-0.9,0.9-1.6,2.1-1.4c1.1,0.1,4.3,0.1,7,0c4.8-0.3,4.9-0.3,1-1.8
			c-2.2-0.8-6.6-1.5-9.9-1.4c-3.3,0.1-7.1,0-8.5-0.2c-2.3-0.2-54.7,0.8-122.2,2.5c-15.9,0.4-46.7,1.1-68.5,1.6s-51.9,1.7-66.9,2.6
			c-15,0.9-35.8,1.9-46.2,2.2c-33.7,1-64.9,3.5-70.1,5.7c-2.2,0.9-0.5,1.1,4.8,0.4c12.3-1.5,22.2-1.3,24.2,0.7
			c1.3,1.2-1.5,2-9.5,2.8c-6.2,0.6-17.9,2.1-26,3.4c-8.1,1.3-21.1,3-28.9,3.9c-7.8,0.9-19.8,2.2-26.6,3c-6.8,0.8-26.9,2.6-44.6,4
			c-17.7,1.4-34.8,2.9-38,3.2c-3.2,0.4-9.9,1.1-14.9,1.7c-5,0.6-11.4,2.3-14.3,3.9c-7.4,4.1-38,9.7-52.6,9.5c-4.5,0-12,0.4-16.5,0.9
			c-4.5,0.5-10.5,1.2-13.2,1.4c-2.7,0.3-15.4,1.6-28.1,3c-27.5,3.1-56.8,5.6-78.4,6.7c-28.6,1.5-53.7,3.6-67.7,5.7
			c-5.9,0.9-20,1.9-31.4,2.2c-11.4,0.3-30.7,1.6-42.9,2.9c-12.3,1.3-24.1,2.3-26.4,2.2c-16.5-0.6-42.9,0.7-42.9,2.1
			c0,0.9,3.5,1.7,7.8,1.8l7.8,0.2l-9.9,1.3c-5.4,0.7-22.2,1.7-37.1,2.2c-15,0.5-33.2,1.3-40.4,1.7c-7.3,0.4-31,1.1-52.8,1.6
			c-21.8,0.5-45.8,1.3-53.2,1.8c-11.4,0.8-13.6,0.5-13.6-1.5c0-1.3,0.9-2.8,2.1-3.2c1.1-0.4,0.4-0.9-1.7-0.9c-2-0.1-3.7,0.6-3.7,1.6
			c0,2.3-11.4,6.7-14.4,5.6c-1.3-0.5-3.3-0.4-4.3,0.3c-1.1,0.7-6.7,1.2-12.6,1.2c-7.1,0-10.7,0.6-10.7,1.9c0,2.8-1,3.4-11.6,6.2
			c-10.4,2.8-26,5.4-24.7,4.1c0.4-0.4,0-1.7-1-2.9c-2.4-2.8-0.4-3.4,13.8-4.1c6.1-0.3,12.1-1.5,13.2-2.6c1.7-1.6,0.3-1.8-7-0.9
			c-8.4,1.1-8.9,1-6.7-1.6c2.1-2.5,1.9-2.7-1.7-2c-5.7,1-10.2,2.8-13.1,5.1c-2.5,1.9-18.6,7.2-29.7,9.7c-3.2,0.7-10.2,1.4-15.7,1.5
			c-5.4,0.1-15.1,1-21.5,1.9c-6.4,0.9-15.3,1.1-19.8,0.4c-7.5-1.1-6.9-1.6,2.5-2.3c1.4-0.1,3.4-0.7,4.5-1.5c1.1-0.7,2.8-0.8,3.7-0.3
			c0.9,0.5,1.7,0.3,1.7-0.5c0-1.8-13.7-4-17.8-2.9c-6.5,1.8-53.8,4.3-55.3,2.8c-1.3-1.2,6.5-2.6,23.8-4.2c2.4-0.2,3.4-2.5,1.2-2.7
			c-11.6-0.8-15-0.7-15.7,0.4c-0.5,0.7-3,1.3-5.7,1.3c-6.3,0-6.5-4.2-0.3-5.4c31.8-6.2,79.4-10.7,109.4-10.4
			c22.3,0.3,100.6-1.5,113.1-2.6c3.6-0.3,9.2-1.2,12.4-2.1c5.2-1.4,4.4-1.6-6.6-1.8c-7.9-0.1-11.5-0.7-9.9-1.6
			c4.6-2.6,95-8.5,98.9-6.5c1.3,0.7,4.6,0.6,7.4-0.2c2.8-0.8,13.3-1.3,23.3-1.1c11.5,0.2,19.4-0.3,21.5-1.5c2.7-1.6,1.3-1.9-8.3-1.9
			c-6.4,0-12.4-0.8-13.4-1.7c-1.2-1.1-3.2-1.1-6.4,0.1c-2.6,1-7.4,1.3-10.6,0.8c-3.2-0.5-17,0.1-30.6,1.4
			c-13.6,1.3-34.4,2.4-46.2,2.5c-11.8,0.1-27.5,0.8-35,1.7c-19.1,2.3-43.4,3.2-43.4,1.6c0-0.7-2-0.4-4.5,0.8
			c-3.5,1.6-8,1.8-19.3,0.8c-8.1-0.7-15.4-1-16.2-0.5c-1.5,0.9-6.2-2.3-6.2-4.3c0-1,5.6-3.1,8.3-3c0.5,0,3.6-1.1,7-2.5
			c3.5-1.4,14-3,23.9-3.5c10.5-0.6,19.2-1.9,21.3-3.2c3.5-2.2,27.9-5.4,64.2-8.4c24.4-2,51-4.6,65.2-6.4l10.7-1.3l-8.3-0.4l-8.3-0.4
			l7.4-2c6.5-1.7,3.9-1.9-19.8-1.4c-15,0.3-33.2,1.6-40.4,2.8c-23,3.9-25.6,4-25.6,1.7c0-1.5-2.5-2-9.5-1.7
			c-13.8,0.6-25.7,2.5-28.3,4.6c-1.7,1.3-2.5,1.3-3-0.2c-0.4-1.1-2.3-2-4.3-2c-2.6,0-3,0.4-1.4,1.4c3.2,1.9-2.6,3.2-8,1.7
			c-2.4-0.7-3-1.2-1.3-1.3c1.5-0.1,3.1-0.7,3.6-1.4c1.2-1.9-19.5-1-23.3,1c-1.9,1-15.2,2.9-29.6,4.3c-25.6,2.5-48.9,6.3-28.5,4.7
			c23.5-1.8,56.8-2.5,54.5-1.1c-5.4,3.3-58.1,10.4-97.4,13.1c-27.2,1.9-49,4.2-50.9,5.4c-0.9,0.5-5.6,1.3-10.4,1.8
			c-4.8,0.4-16.5,2.6-26,4.8c-9.5,2.2-24.9,4.5-34.3,5l1.2,14.5l12.8-7c2.1-1.3,5.8-2.1,8.1-1.8c5.5,0.6,7.1,4.5,1.8,4.5
			c-2.1,0-8.3,1.8-13.8,4c-2.8,1.1-5.9,2.1-8.8,2.8l21.5,268.5c-5.5-0.5-9.7-6.5-9.4-11.4c0.1-1.6,1.5-7.8,3.3-4.5
			c-0.9-1.6-1.3-3.2-0.5-4.1c1.3,0.3,1.2,1.6,2.5,0.6c-0.2-1.8-1.6-1.4-3.2-1.1c-1.1-1.2-0.4-3.7-3.1-3.6c-3.2,2.3-0.8,8.4-2.2,8.6
			c1,4.5,3.8,11.7-0.5,15.9c1.3,1.8,1.6,3.2,1.3,4.2c-1,0.1-1.9,0.1-2.2,1c0.1,0.4,0.4,0.7,0.7,0.8c-3.1,1.8-9.3,0.4-7.5-4.2
			c0.1-0.2,1.5,0.9,1.3,0c-4.6-3.3-1.8-6.2-6.7-9.3c3.1-0.1,1.5-1.2,3.3-2c-1.5,0.1-2.4,0.8-4.5,0.4c-0.8-2.5-3.3-3.4-4.6-4
			c0.2,0.2,0.3,0.4,0.2,0.9c-1.5,0.1-0.7-1.5-1.9-1.6c-2.2,1.5-3.2-0.2-7.7,0.9l0,3.7c0.9,0.4,1.7,1,2.4,2c2.9-2.5,4.9,2.5,5.7,1.7
			c-0.4,0-0.7-0.4,0-0.5c3.8,2.8,6.1,10.7,6.6,12.9c0.2-0.4,0.6-0.6,1.3-0.5c1.1,5.9-9.6,5.7-16.2,6.3l-1.4,130.2
			c0.7,0.1,1.4,0.2,1.9,0.3c-0.6,0-1.3,0-1.9,0l0,0.7c4.2,0.1,7.9,0.4,10.8,1c8.3,0.2,10.6-0.3,17.7-0.2c0.2-0.2-0.6-0.4-1.5-0.5
			c2.6-0.1,5.2-0.2,7.8-0.5c1.7,0.1,3.4,0.1,5.2,0.1c1.1,3.1,6.5,2.1,9.8,3.3c1,1.9-0.8,2.1,0.3,2.8c-0.7,0.4-1.4,0.8-6.1,0.8
			c-3.2-0.8,6.1-0.4,4.4-1.1c-6.8-0.6-16.1,0.4-22.1-0.2c3.3-1,19.8-0.8,19.9-2.1c-6.9-0.1-31.8-0.3-37.6,0.4
			c7.8,0.3,15.5,0.6,15.5,1.7c-1,0.1-3.5-0.4-2.2-0.4c-2.3,0.1-4.1,0.2-5.5,0.3c0,0,0-0.1,0-0.1c-0.1,0-0.1,0.1-0.2,0.1
			c-6.7,0.3-4.5,0.2-14.2-0.1l-2-1.6l-0.1,8.4c0.6,0,1.1,0.1,1.5,0.1l11.3-4.5c-1.7,1.8-2,3.7-1.8,5.7c-2,0.3-4.5,0.5-9,0.6
			c-3.7-0.6,3.7-1.4-0.6-1.7l-1.5,0.6l0,2.4c2.9,0,5.9,0,8.7,0.1c0.6-0.2,1.5-0.4,2.6-0.6c0.1,0.3,0.1,0.6,0.2,0.9
			c-2.3,0-4.7,0.1-7.2,0.1c2.9,0.7-1.7,0.8,4.4,1.3c0.6-0.2,1.7-0.3,2.9-0.4c0.1,0.3,0.1,0.6,0.1,0.9c-4.4,0.1-8,0.2-7.5,1
			c2.1,0,4.8,0,7.5,0c0,1.1-0.2,2.2-0.9,3.1c2.5-0.9,3.8-0.6,4.7,0c-4.5,0.2-9.9,0.2-15.7,0.2l0,1.1c5.2-0.2,10.9-0.3,16.4-0.4
			c0.4,0.8,0.7,1.7,1,2.5c-5.4-0.3-7.1-1-10.9-1.5c-2.3,0-4.5,0-6.6,0l0,1.5c6.5,0.2,13.8,0.1,17.5,0c0.1,0.3,0.3,0.7,0.5,1
			c1.9,0.1,2.6-0.1,2.7-0.5c1.1,0.1,1.7,0.2,1.4,0.4c6.4,0,12-0.1,16.2-0.1c-2.4,0.5-3.7,1.7-4.2,3c-0.3,0-0.7,0.1-1,0.1
			c0.3,0,0.7,0,1,0c-0.1,0.2-0.1,0.4-0.1,0.7c-1,0-2.1,0-3.1,0c-1.1,0.6,0.5,0.9,3.2,1.1c0.1,0.4,0.3,0.7,0.5,1
			c-4.3,0.2-10.7,0.1-17.3,0c-0.4-0.9-0.8-1.8-1.2-2.7c4.3,0,8.6-0.1,12.6-0.3c1.1-0.7-4-0.8-2.2-1.5c-6.6,0-14.4-0.1-20.6,0
			c-0.2-0.1-0.4-0.2-0.6-0.2c0,0.1,0,0.2,0,0.3c-2,0-3.9,0.1-5.4,0.2l0,1.5c0.3-0.1,1-0.2,2.2-0.2c1.1,0.1,2.3,0.1,3.5,0.1
			c0.2,1,0.5,1.9,0.9,2.8c-2.4,0-4.6,0.1-6.6,0.1l-0.1,6.9l0.1-0.8c2.5,0.3,5.6,0.5,9,0.6c0,0.6-0.1,1.2-0.4,1.8c-0.6,0-1.3,0-2.1,0
			c-0.1,0-0.2,0-0.3,0c1-0.7,0.8-1.4-1.5-1.9c-1.5,0.5-3.7,0.8-5,1.4l0,1.6l2.6,0.1c0.1,0,0.1,0,0.2,0c1.3,0,2.6,0.1,4,0.1l-4.1-0.1
			c-0.8,0.1-1.7,0.2-2.6,0.2l0,2.3c2.2,0.2,5.2,0.5,6.8,0c-4.1-0.5,0.5-1.1,3.3-1.6c0.7,0.2,1.3,0.5,1.8,0.9
			c-1.1,0.1-2.1,0.3-2.9,0.5c1.2,0,2.3,0,3.5,0c2.6,2.7,1.7,8,5.9,7.8c-0.3-1.9-2.5-4.4-3-6.4c1,0.2,0.1,0.6,2.4,0.7
			c7.9,0,13.3-0.1,15.5-0.6c-3.7-0.1-13.5-0.4-17.9-0.3c-0.1-0.4,0-0.8,0.2-1.2c3,0,5.9,0,8.7,0c0.8,0.4,1.8,0.6,3.7,0l0,0
			c2.2,0,4.3,0,6.4,0c2.2,1.4,5.3,2.7,9.1,3.8c-3.2,0-5.5,0.1-5.7,0.4c1.7,0.2,5,0.2,7.6,0.1c5.2,1.5,11.2,2.8,17.4,4.1
			c-20-0.1-41,0.1-59.7,0c-0.3-0.3-0.7-0.5-1.1-0.7l-2,0.3l-0.1,10c0.6,0,1.2,0,1.8,0c3.2,0.7,6.3,1.4,9.5,2.2c-2,0-3.9-0.1-5.6-0.1
			c-0.7-0.2-1.1-0.2-0.5,0c-1.9-0.1-3.7-0.1-5.2-0.2L-60,531.7c5.5,0.8,10.9,1.7,15.8,2.2c9.4,0.9,19.1-1.5,25.7-4.1
			c1.2-0.5,2.5-0.6,3.5-1c4.4-1.7,9.3-4.6,13.2-6.1c3.8-1.4,5.8,1.7,9.4,1.6c0.4,0,0.9-0.1,1.3-0.2c0,0,0,0,0,0c0,0,0,0,0,0
			c2.4-0.5,4.3-2.2,6.2-3.8c6.6,0.3,8.7-2.4,11.2-1.3c0.4,3.2-2.5,5.8-4.3,8.8c-4.4-1.2-8.8-2.5-13.1-3.7c0,0,0,0,0,0
			c2.4,2.2,7.2,3.4,12.9,4.2c-1,1.8-1.6,3.8-0.8,6.1c-2.5,0.6-3.7,1.5-7.5,1.7c3.1,7.6-18.4,10.4-22.2,14.5
			c-5.5,5.8,3.9,14.7-22.2,16.6c3.8-9.7,23.9-21.8,33.3-30c-9.1,4.4-15.4,9.5-29.8,12.5c-2,9-20.6,16.8-32,25.3
			c-0.1,0-0.1-0.1-0.2-0.1l0,0.2c0-0.1-0.1-0.2-0.1-0.3c0,0,0.1,0,0.1,0.1l-0.7-8.7l-0.2,18.8c4.4-2.9,16.7-4.2,25.9-6.2
			c0.8,1,1.7,2,3.3,2.7c-0.5-1.1-1.2-2-2.2-2.9c0.3-0.1,0.6-0.1,0.9-0.2c8.8-2.1,11-6,22.4-5.5c1.9,3.5,9.7,5.3,15.1,7.8
			c-5.1-9.7-4-20.8,14.6-26.6c-2.7-1.3-6.1-2.5-5.7-4.7c0.7-0.3,1.4-0.6,2.1-1c0.6,1.1,1.3,2,2.7,1.2c0.1-1.2-0.6-1.5-1.5-1.7
			c4-1.8,7.8-3.7,6-7.1c6.5-2.2,12.7-4.5,18.9-6.9c6,1.5,12.1,3,18.5,4.3c-0.4,1.3,5.1,2,6.2,0.9c0.1,0.3,0.2,0.6,0.4,0.8
			c0.4,0.6,0.9,1.1,1.6,1.5c-1.3,0.2-2.7,0.4-4.3,0.6c-17.5,11.8-23.6,26.6-44.4,37.5c-0.9,0-1.7,0-2.5,0c-2.8-3.3-5.7-6.4-9.5-7.5
			c-1.5,0.9-2-0.2-3.5,0.8c-1.3,2.2,2.2,4.8,3.5,7.1c1.4,0.1,2.7,0.5,3.9,1.1c-1,0.9-2.8,1.6-3,2.8c2-0.4,3.8-0.8,5.6-1.2
			c4.2,3,8,7,13,4.9c-1.7-3.7-4.9-4.3-7.8-5.5c-0.2-0.2-0.4-0.4-0.6-0.7c9.5-3,15.6-7,23.3-10.5c-1.8,10.6-13.2,19.4-26.4,27.7
			c-2.4-1.7-5.1-3-7.8-3.3c0,0.1,0,0.1,0,0.2c-0.3-0.2-0.7-0.3-1-0.4c0.2,2.2-2.8,2.5-7.4,4.3c1.5,0.1,2.2,0.4,1.9,1.1
			c3.7-0.1,5.9-0.8,7-1.6c0.7,1,1.9,1.7,3.3,2.4c-10.8,6.6-22.3,12.9-30.6,19.5c-3.8,3.1-1.5,6.8-13,9.1c1.9,4.5-5.4,7.4-11.5,10.2
			c-1.5-4.6-3.2-9-7.4-12.4c2.1,4.3,3.2,9.1,5.5,13.3c-3.7,1.8-6.5,3.7-5.2,6.1c0.7,0,1.3-0.1,1.9-0.2c-0.5,0.2-1,0.4-1.6,0.6
			c0.1,2.4,1.6,6,5.1,5.5c1.8-1.9-1.4-4.8-3.5-6.1c2.8-0.2,5.1-0.6,6.8-1.1c0.1,0.1,0.1,0.1,0.2,0.2c0-0.1-0.1-0.2-0.1-0.3
			c12-3.3,1.9-11.9,22.6-13.9c0-1.2,0-2.5,0-3.7c17.1-6.7,23.6-16.2,34.8-24.5c0.7,0.5,1.3,1,1.8,1.7c1.6-0.8,2,0.9,3.7-0.3
			c-0.6-1.2-1.4-2.4-2.5-3.5c1.5-1,3.1-2,4.8-2.9c4.1,0.7,3.7,2.8,9.4,3.1c15.5-3.5,6.4-8.4,9.1-13.3c0.4-0.7,1-1.4,1.8-2.2
			c0.2,0,0.5,0.1,0.7,0.1c0-0.2-0.1-0.4-0.2-0.6c3.2-3,8.3-6.9,10.7-10.7c2-3.3,6.1-6.8,9.2-9.1c14.9-10.8,26.3-22.1,42.6-31.1
			c9.6-1.6,14-4.7,25.3-5.8c1.1,0,2.1,0.1,3.1,0.1c4.7,4-7.5,8.5-4,12.9c19.4-2.3,30.4-11.3,22.2-17.7c0.9-0.2,1.6-0.5,2.3-0.7
			c0.1,0,0.1-0.1,0.2-0.1c0.3-0.1,0.5-0.2,0.8-0.3c1.6-0.6,3.1-1.2,4.5-2c3.4-1.5,7.5-2.9,16.3-2.9c-2.2,2.9,4.9,3.7,5.7,5.8
			c3.8,9.5-26.1,18.2-16.4,26.6c8.9-0.5,12.3,0.6,15,2c-8.6,1.4-6.9,6.7,2,7.4c-6.8,5.4-7.2,16-12.8,23.4c12.9-7.7,5-21.1,22.1-27.7
			c0.5-1.6-4.3-1.6-3.8-3.1c7.3-2.2,6.1-6.8,24.2-6.1c-0.9,5.7-12.7,14.9-9,21.8c-2.8,2.6-12.9,2.2-16.8,3.3
			c2.8,0.6,4.7,0.6,7.5-0.1c-2.1,1-0.2,4.4,7.5,4.2c15.3-0.5,4.1-5.4,16.8-6c-1.1-0.7-7.2,0-7.5-1c0.3-2.4,2.6-4.2,7.4-5.4
			c2.5-7.1,6.7-15.1,16.5-22.4c3-2.2,10.3-4.2,13-6.5c6.8-5.6,4.3-10.8,18.5-12.9c0.5,0.9,3.3,1.2,7.5,1c6-5.8,18.3-9.8,29.8-14
			c7,0.4,9.9,2.1,9.4,4.7c17.1-2.9,17.4-8,31.7-10.9c4.3,1.7-1.9,4.2-7.4,4.8c21.1,3.6,0.3,9.8,2.1,15.9c-4.1,0.8-12.4,0.5-15,1.7
			c2.7,2.4-5.6,4.8,1.9,5.3c4.6-3,9.8-5.8,20.5-7.1c0.5,0.8,3.1,0.9,3.8,1.6c-5.3,4.5-5.9,11.4-7.3,15.9c8.2-5.7,7.4-13.8,24.1-17.2
			c3.8,6.7-8,12-7.2,18.6c5.5,0.6,6.9-2.6,9.4-1.1c-2.2,14.1-19.9,27.5-10.7,39.8c3.7-1.3,4.3-3.4,3.6-5.9
			c10.2-4.1,6.6-14,10.9-21.3c0.5-0.9,3.5-1.3,3.7-2.2c1.2-3.7-7-10.5,11.1-11.7c1.9,3.9-3.7,7.5,2,9.5c3-4.2-0.4-8.2,1.7-13.8
			c-24.4-1.8-11.6-16.7-2.2-22.7c2.3,1.1,11.3,0.2,13.1,1.5c1,5.4-15.9,11.7,2.1,14.3c14.5-4.2-4.1-11.7,13.1-14.7
			c1,1.3,2.3,2.5,4,3.5c-0.4-1.1-1.1-2.4-1.7-3.7c42.5,6,30.3,24.5,33.7,37.7c0.9-0.2,1.7-0.4,2.5-0.5c-0.9,1.4-7.2,2-0.4,2.6
			c-1.2-1,2.7-2.2,2.1-3c4.6-1.3,8.1-2.9,10.5-4.7c-3.2,12-5.1,24.6-14.1,35.8c10.9-3.9,6.9-9.8,11-14.4c2.4-2.7,5-5.5,7.4-8.4
			c0.8,0.2,2.4,0,1.6,0.9c1.4,0,2.9,0,4.2-0.1c-0.1,0.2-0.2,0.4-0.2,0.6c-4.1,1.1-9,4.1,0.1,4.8c10.1-1.3,0.3-3.4,3.7-5.3
			c5.5-11,20.2-25.9,21.9-37.8c-8.8,12.2-20.3,23.9-24.8,36.2c-1.7-0.3-4-0.4-5.7-0.1c5.4-6.7,9.7-13.8,8.2-21
			c-3.1,4.1-5.8,8.3-11,11.7c-5.4-0.7,6.9-3.7-0.8-4.2c3.7-3.7,3.6-8,0.3-12.2c0.7,2.3-1.4,3.8-7.4,4.3c1.4-7.7-12.6-13.6,1.6-18.5
			c1.1,2.9,0.6,7.1,11.4,8.3c2.9-3.2,8.3-5.8,11.1-9.1c9,2-1.2,5.2,5.7,6.8c1.7-0.4,1.6-1.3,2-2c0.1,0,0.2,0.1,0.3,0.1
			c0-0.2,0-0.3,0-0.5c0.4-0.4,1.3-0.8,3.3-0.8c3.7,0,6.9,0.1,9.7,0.3c1.5,2.6,3.8,4.3,6.4,5.9c-1.5,2.7-2.9,5.4-4.3,8.1
			c-0.1,0-0.1,0-0.2-0.1c-1.6,1.2-2.8,3.1-2.1,4.6c-2.6,5.4-4.9,10.7-6.8,16.1c11-1.8,6.5-6.1,7.3-9.1c0.5-1.7,1.3-3.5,2.2-5.4
			c0.4,0.1,0.8,0.2,1.3,0.3c0.6-1.4,1.2-3,0.9-4.4c1.5-2.6,3.2-5.4,5.1-8.2c0.7,0.4,1.4,0.9,2.1,1.3c1.6,0,2.8-0.1,3.7-0.4
			c-1.2-1.3-2.5-2.5-4-3.6c0.1-0.1,0.2-0.2,0.2-0.4c4,2.7,7.8,5.5,1.2,8.5c7.7,10.4,16.8,20.5,9.8,31.1c5.3,0.2,2.6-2.8,9.4-1.7
			c-4.2,6.4-22.5,13.4-16.6,19.2c24.1-1.2,9.7-9.4,18.5-13.4c2.7,0.1,3.2,0.8,5.6,1c-4.6-2.2-3.9-7.2,3.6-9c-0.6-2.1-5.8,0.4-7.5-1
			c0.6-2.1,6.5,0.5,5.6-1.6c1.2-3.3,1.3-6.6,1.9-9.7c0,0,0,0.1,0.1,0.1c1.9,0,3.8,0,5.6-0.1c0-0.5,0-1.1,0-1.6c-1.2,0-2.5,0-3.8,0
			c0,0.5-1.5,0.7-1.8,1.2c0.9-4.6,3-8.7,10.8-11.8c0,0.7,0,1.4,0,2.1c15.8-1.9,11-9.3,22.3-12.4c3.4-0.3,7-0.6,10.6-0.9
			c-6.5,9.9-12.1,20.2-13.6,31.6c12.1-1.9,6.4-5.6,7.3-10.1c3.4-2.9,6.7-6.4,9.5-10.1c0.8,0,1.6-0.1,2-0.5c-0.6-0.1-0.9-0.4-1.2-0.6
			c2.7-3.7,5-7.6,6.5-11.2c5.5-0.4,10.9-0.8,15.5-0.8c-0.2,0.3-0.2,0.7-0.1,1.1c-4.1,7.5-16.2,13.8-9.7,19.7
			c16.5-0.6,7-8.3,16.7-10.7c-5.5-2.4-2-6.5-1.6-10.1c9.1,0.3,13.4,2.4,6.9,7.9c5.8-0.1,5.4,1.6,13.1,0.9c5.9-0.2,2.4-2.9,9.3-2.7
			c6.9,6.5,2.5,16.9,7.8,23.2c8.1-1.3,3.3,5.7,11.3,6.2c5.7-6.1-4.6-19.8,18.4-21.3c5.1,0.8-3.2,2.6,3.8,3.1c8.3-2.4,2.9-5.4,13-7.5
			c-2.5,1.6-1.5,3.5,1.9,4.7c4.5-1.2,1.4-4.5,7.4-5.4c1.3,0.3,2.4,0.5,3.4,0.8c-15.3,15.8-33,30-45.5,46.7
			c-8.2,2.5-12.5,4.7-7.4,8.5c12.2-2.5,13.7-7.5,18.5-11.8c10.7-9.5,21.2-20.8,29.4-31.4c6.5-1,16.2-3.2,24.1-4
			c0.1,1.4,0.7,2.7,1.5,4c-5.9,1.3-11.7,2.7-15.8,5.1c-0.3,0.8-1.2,1.1-1.5,1.9c-0.2,2.2-1.7,3.2-2.1,5.3c0.2,0.6,1,1,1.4,1.9
			c6,1.1,9.7,3.8,11,8.1c1,3.4,0.1,8.1-0.1,10.5c-0.1,1.1,0.4,2.3,0.3,3.5c0,0.5-0.5,1-0.6,1.4c-0.7,3.7,0,7.6-0.4,11.4
			c-0.2,2.1-0.7,3.8-0.8,5.7c-0.3,0-0.6,0-0.9,0c-1.1,0.7-0.4,0.9,0.9,1c0,0.2,0,0.3,0,0.5c0,4.3,0.3,8.6-1.5,12.6
			c0.1,1.4,0.6,2.9,0.5,4.6c-0.6,6.8-5.7,14.2-0.4,18.4c1.8,0.9,4.8,1.4,7.1,1c3.8-1.8,5.4-4.8,6-8.4c1.1-0.2,2.1-0.3,2.9-0.2
			c1,0.8-2.2,2.8,1.9,2.6c-2.3-2.1,5.7-4-0.1-5.3c0.1,0.9-1.4,1.4-3.7,1.6c-0.3-0.4-0.6-0.7-0.8-1.1c0.2-3.2-0.3-6.6-0.6-9.8
			c1.1-1.7,0.1-3.5,0.5-5.4c0.4-0.1,0.8-1.3,0.1-0.7c0.3,0.1,0,0.2-0.2,0c-0.2-1.4,0.3-1.6-0.4-2.8c1.1-2,0.5-4,0.6-6.1
			c0.2-3.3,1.2-6.8,1.2-10.1c0-0.6-0.2-1.2-0.3-1.8c0.3-1.8,0.6-3.6,0.7-5.3c0.1-0.5,0.2-1,0.3-1.5c0.3-1.9,0.5-3.8,1-6.1
			c0.4-1.9,0.8-3.6,1.2-5.2c2.2-2.9,3.7-6,14.3-6.7c6.5,3.3,1.2,7.3,7.6,10c1-2.8,1-7.3-0.1-10.5c1.1,0.3,2.3,0.6,3.4,0.5
			c0.4,0.3,0.9,0.5,1.3,0.7c-0.2,0.4-0.5,0.9-0.7,1.3c12.5,3.2-2.2,12.1,9.6,14.7c1.3-4.4-3.5-9.4-3.7-14.2c2.5,0.7,5,1.4,7.2,2.8
			c0.3,1.5,1.6,2.4,2.1,4.1c0.5,1.8-0.2,4-0.2,6.1c0,1.1,0.6,2.3,0.6,3.3c0,2.2-1,4.4,0.3,6.2c-0.5,4.3-1.1,9.7-1.4,15.3
			c-3.9,1.2-3.8,3.3-0.2,4.5c-0.2,5.2-0.7,10.3-1.1,14.6c-1.2,1.6-0.3,2.6-0.4,4.3c-0.1,1.3-0.9,2.6-1.1,3.9c-0.4,2.4-0.8,4.8-0.9,7
			c-0.4,6.1-1.4,11.8-2.4,17.2c0.8,1-0.5,3,0.3,4.2c-1.1,0.7-0.7,1.4-0.2,2.3c0,2.4-1.7,5.4-0.3,7.4c-1.7,1.3-0.8,3-2,4.8
			c1.4,2.1-0.6,5.9-1.1,8.5c-0.1,0.6,0.7,0.6,0.8,1.1c-2.1,4.3-1.7,10.9-1.1,15.3c-0.8,1.3-0.4,4.3-1.9,5.5
			c-0.2,6.2-4.8,13.8-1.3,20c-1.9,1.4-1.1,3.8-2.1,5.3c0.9,2.8,0.9,5.1,2.7,7.2c1.5,0.6,2.2,1.4,3.7,1.7c6,1.2,10.3-3.1,12.6-6.5
			c0.8-3.5,0.7-6.5,0.3-9.9c-1.7-2.6-0.8-6.4-0.9-9.5c0-0.8-0.5-1.5-0.4-2.2c0.1-1.3,1.4-2.2,1.7-3.5c-1-4.8,0.3-9.7,0.9-13.5
			c0.7-4.2-0.1-8.5,0.8-12.6c1.1-5.4,0.2-10.3,0.6-15.2c-0.1-0.6,0.6-0.3,0.7-0.7c-1.3-1,0-2.2,0.1-3.4c0.2-2.6-0.7-5.6,0.6-8.7
			c-0.2-0.5-0.4-0.9-0.5-1.5c0.8-1.3,0.2-4.1,0.4-6.1c0.3-3.8,1.7-6.8,1-9.9c0.2-0.2,0.5-0.3,0.7-0.5c-1.7-1.5,0.4-4.1,0.6-5.6
			c0.1-1.4-0.5-2.8-0.5-4.4c0.1-2.5,0.4-5.2,0.3-7.8c-0.1-1.6-0.6-3.5-0.2-5.3c0.3-1.2,0.4-2.4,0.5-3.6c5.3-1.2,6.1-3.5,1.4-5.2
			c-0.4,0-0.7,0-1.1-0.1c0,0-0.1-0.1-0.1-0.1c1.3-0.8-0.1-1.9,1-3c-0.4-0.3-0.2-0.9-0.6-1.3c0.3-1.8,0.7-3.4,0.9-5.1
			c0.8,2.6,1.7,5.1,9.2,5.8c2.8-2.5-2.5-4.1-3.8-6.8c-1.7,0-3.5,0-5.2,0.1c0.3-2.6-0.5-5-0.2-7.1c0.1-0.8,0.8-1.4,0.9-2.1
			c0.1-1-0.5-2.3-0.3-3.3c0.1-0.6,0.8-1.1,0.8-1.6c0.1-1-0.7-1.4-0.5-2.2c0.1-0.5,0.8-0.9,1.1-1.6c0.4-1.1,0.1-2.5,0.8-3.6
			c0.1-0.1,0.6,0,0.7-0.1c0.2-0.2-0.1-0.6,0.1-0.7c0.7-0.7,1.8-1.1,2.4-2c5.7-1.1,10.2-2.8,14.9-4.9c5.3-2.3,9.6-5.6,15.5-3.9
			c1.3-0.8,2.6-0.2,4.1-0.1c3.9,0.2,7.9-0.7,11.3-0.6c3.7,0.1,6.7,2.2,9.5,3.9c3.1,1.1,6.7,1.9,8.4,4.1L892,572
			c-0.8-1.8,2.7-3.3,4.5-4.4c2.3-1.4,4.6-2.8,6.9-4.1c2.1,1.2,5.5,2.2,9.3,2.4c10-1.2,9-5,1.8-6.6c0.6,0,1.2,0,2,0.1
			c3,0.3,6,0.8,9.1,1.3c-0.1,0.1-0.2,0.2-0.2,0.3c1.2,0.6,2.5,0.5,3.7,0.2c2.4,0.4,4.7,0.7,6.9,0.9c6.9,0.6,14-1.1,18.8-3
			c0.9-0.3,1.8-0.5,2.6-0.7c3.3-1.3,6.8-3.4,9.7-4.5c2.8-1,4.2,1.3,6.9,1.2c3.2-0.1,5.2-3.2,7.9-4.6c1.3-0.7,3.7-1.8,4.9-1.9
			c1.3-0.1,2.7,0.6,4,0.6c0.6,0,1.2,0,1.7-0.1c1,2.9,2.5,5.5,5.3,7.3c0.3,2.8,0.5,5.6,0.8,8.4c-0.9,0.6-1.7,1.2-2.2,2
			c0.1,2-0.5,4.2-2.6,6.7c0.3,0.4,0.5,0.9,0.6,1.3c-0.6-0.8-1.4-1.6-2.6-2.4c1.3,4.9-2.3,11.3,2.1,15.3c0.2-2,1.2-4.4,1.6-6.8
			c0.3,0.4,0.6,0.8,1.1,1.2c0.5,1.7-0.7,3.9,0.7,5.4c1.2,0.2,2.3,0.4,3.5,0.7c0.9,6.3,2.2,12.2,4.2,17.2c-1-3.2,1.2-7.1,3-8.7
			c-0.4,0.1-0.8,0.3-1,0.5c-0.7-2.2-1.3-4.7-1.7-7.4c1,0.5,2,1,2.9,1.8c7.6,0.5,15.2,1.3,20.5-4.4c8.2,2.4,13.5,7.8,20.8,11.7
			c2.1,0.2,3.5-1.4,6.1,0.3c0.1,0.2,0.1,0.5,0.1,0.7c-1.2,0-2.5,0-4,0c-1.2,1.5,1.1,2.5,4.2,2.9c0.2,4.3,0.3,9.4,6.5,10.6
			c2.1,0.4,5.8-2,9.1-3.4c3.2-1.3,7.9-3,8.8-4.4c3.2-4.8-3.6-7.1-8.2-6.7c-1.4-1.4-1.9-2.9-1.3-4.4c4.2,2,8.7,4,12.6,6.1
			c-2.5-1.8-5.8-4.3-9.9-6.9c4.1,1.5,6.7,5.7,12,7.5c0.1,1.7,1.1,3.2,1.8,4.7c-1.6,0.9-9.4,0.1-7.3,2c0.2,0.5,1.2,0.7,2.4,0.9
			c0.3,0.5,0.7,0.9,1.1,1.3c-15.4,8.6-24,21.8-27.3,31.9c7.4-10.6,27.5-20.5,27.6-31.6c0.6,0.6,1.2,1.2,1.9,1.7
			c0.6,2.4,2.7,4.6,3.9,6.7c1,1.8,0.6,5.6,4.4,5c2.4-3.7-3.3-5.5-1.2-9.1c0.7,0.2,2.9,0,2.3-0.6c-0.7-0.4-1.8,0-3.2-0.2
			c-1.1-3.2-5.1-8.7,1.4-10.7c6,3.4,10.7,11.4,3.5,17.1c1.7,0.3,3.3,0.4,5.3,1.5c0.4,1.5-1.8,3.6-1.5,5.2c0.5,0.8,2.8,1.2,2.4,2.2
			c-0.6,2.2-4.3,2.7-3.2,4.1c1.8-0.9,4.3,0.2,6.5,0.5c1.7,1.8,1.4,4.1,2.8,5.9c4.9-1.6,6,4.8,11.3,3.4c1.3,1,0.5,2.6,2.5,3.4
			c4.1-3.3,6.8,0.6,10.6,2.3c1.8,4.4,5.4,8.3,7.7,13.1c2.2,4.5,3.1,9.6,5.8,13.8c1.8,2.8,4.1,4.8,4.8,8c0.8,3.6-0.6,8,5.4,9.4
			c1.6-1.8,0.4-3,1.1-4.6c-4.8-4.1-5.4-8.6-7.1-13.2c-1.4-3.7-2.8-6.8-4.8-10.3c-3.6-6.3-8-12.3-9.6-19c1.5,0.8,2.7,0.9,3.8,0.9
			c1.9-1.9,4.4-2.3,7.3-1.5c2.8-1.9,6-2.6,9.3-3c0.7-5.9,9.7-6.2,11.4-10.8c0.4,0.1,0.8,0.2,1.2,0.2c-0.3-0.2-0.7-0.5-1-0.7
			c0.2-0.8,0.2-1.7-0.1-2.9c1.5-1.6,3.8-1.1,5.3-2.8c-1.6-4.2,3.9-7,4.5-10.9c0.6-3.9-5.8-6.7-6.5-10.6c-1.7-0.7-3.2,0.1-4.2-1
			c-1.9-1.4-0.8-3.5-0.7-5.4c2.2-1.2,4.3-1.6,6.3-0.6c-1.5,2.1-2.7,5.7,0,6.8c0.8-1.6,1.5-3.1,1.8-4.8c0.4,2.3-2.4,5.5,0.3,6.9
			c2.1,0.5,3-2.2,4.5-3.1c0.9,4.9,7,8.3,14.3,9.7c3-1.1,6.3-1.3,9.5-1.8c3.8,5.2,11.5,6,16.4,10.3c1.5,1.2,1.9,3.2,3.3,4.5
			c1.4,1.3,3.6,2.1,5,3.4c2.4,2.1,4,4.8,6.4,7.1c2.5,2.4,5.5,4.2,7.6,6.8c-2.7,5-9,2.5-13.2,0.9c-1.7-1.5-0.7-3.7-1.7-5.4
			c-2.5-4.1-10.3-7.8-13.6-5.1c-2,1.6-1.3,9.8,2.6,12c10.2,5.8,21.4,9.5,19.9,18c8,1.6,14.8,4.2,21.6,1.9c3.2-1.8,6.3-5.8,8.5-7.6
			c2,1.6,5.5,6.9,9.4,4.8c1.2-2.8-4.5-3.8-6.9-5.7c-2.2-1.7-1.9-5.7-4.2-8.9c-1.7-2.4-4.1-3-3.8-5.2c-0.8-0.8-3.7,0.2-5.5-0.5
			c1.5,0.5,4-2.5,2.2-3.3c-1.1-1.3-4.9,2.5-5.1-1.1c7.5,0.5,14.4-3.5,17.1-10.9c0-4.3-1.5-8.3-4.7-11.8c8.7,2.6,16.6,6.6,24.3,10.2
			c2.1,1,3.7,2.9,5.8,3.7c4.3,1.6,6.9,0,10.7,0c0.4,0,0.7,0,1.1,0.1c-2.6,1.5-1.3,3.3,5.1,4.1c1.1-1.1,3.9-1.7,5.6-2.7
			c-4.1-0.4-2.5-2.5-7.5-2.6c0,0-0.1,0-0.1,0c-3.7-0.9-8.4-3.3-12.4-3.3c-2.6,0-4.1,1-7.4-0.5c-13.8-6-26.8-15.3-38.1-18.5
			c3.2-2.3,3.1-5.5,3.4-7.9c3.8,0.1,7.7,6.1,11.6,3.1c0.4-2.9-5-4.1-7.7-3.7c-5.1-2.5-10.5-5.4-14.8-6.8c-5.8-1.9-12.2-5.9-17.4-4.4
			c2.7,3.2,10.9,4.1,13.3,6.9c-1.2,1.2-2.4,2.6-4,3c-4.7-2.4-8.7-4.7-12.8-5.5c-1.4-3.5-2.9-8.6-9-9.8c-4.3-0.8-6.4,3.1-9.4,5.3
			c-0.2-3.4-4.2-2.6-7.9-4.2c14.5-9.3-9.3-22.8-15.5-8.7c-2.4-1.9-5.9-3.7-4.9-6.4c3.8,0.5,4.1-2.7,6.1-4.8c0.8-0.9,3.2-0.9,4.3-2
			c2.9-2.9,2.9-6.1-0.7-6.9c-6.1-1.4-4.9,7.7-8.7,7.9c-0.4-1.5-3.1-2.5-2.5-4.2c4.3-3.1,9.5-4,13-9.2c6.3,0.4,11.5-2.3,18.7,0.3
			c2.5-0.8,5.6,0.5,7.9-0.9c2.6-8.1,16.8,0.8,22-5.1c4.7,0.8,10,1.3,15.7,1.8c22.7,5,48.3,9.2,75.1,13c-0.9,1.9,11.6,2.9,13.1,0.9
			c-35.8-5.3-70.2-11-103-17.2c1.2-2.6-2.2-7-5.4-8.5c-5.3-2.5-12.1-1-16.2-1.2c-3.6,3.2-0.7,6.4-1.7,9.8c-3.6,0.6-7.1,3.4-11.1,4.2
			c-3.1,0.6-7.8-0.6-11.1-0.9c-1.6-0.2-3.1,0.3-4.2-0.3c-4.3-2-2.8-7.6-9.1-8.2c-0.5-2,1.7-4.6-0.7-6.2c-2.4-0.5-3.3,3-5.1,4
			c-4.4-3.7-0.5-5.4,0.2-9.7c0.2-1.2-0.1-2.3-0.6-3.3c2.2-0.1,4.3-0.2,6.2-0.4c2.9,2,7.7,1.3,10.7,1.1c-1.5-0.2-3.1-1.1-4.7-1.8
			c1.1-0.2,2-0.4,2.6-0.6c2.7,0.5,5.5,1,8.4,1.5c-0.9-0.2-1.8-0.5-2.7-0.7c6.5,0.7,14.4,1,21.6,0.5c-0.4,0.2-0.8,0.4-1.1,0.8
			c2.1,1.8,6.5,2.9,8.2,0.8c-0.9-1-2.2-1.7-3.4-2c4.2-0.5,8.1-1.2,10.8-2.3c0.2,1.4,2.1,1.3,2.7,2.4c21.4,1.2,42.3,1.9,63.3,2.3
			c-1,0.2-1.7,0.7-2.1,1.4c-2.3,4.2,11.7,7.5,13.7,1.3c-1.6-1.1-4.3-2.1-6.8-2.6c10.9,0.2,21.8,0.3,32.9,0.3c0,0.5,0.1,0.9,0.8,0.9
			c0.2-0.2,0.3-0.5,0.3-0.9c21,0.1,42.4-0.1,65-0.2c0,0.1,0.1,0.1,0.3,0.2c0,0,0-0.1,0.1-0.1c0.5,0.4,1.1,0.7,1.8,0.9
			c0.1,1.3,0.6,2.7,1.1,4c-0.3,0-0.5,0-0.8,0c0.2,0.6-0.6,2.1,0.6,2c0.3-0.3,0.4-0.7,0.6-1c0.3,0.7,0.6,1.5,0.8,2.1
			c-0.1,0.3,0,0.8-0.6,0.7c-0.1,0.6,0,1.2,0.8,1.1c0-0.1,0.1-0.2,0.1-0.3c0.2,2.2-0.8,2.8,2.4,3.2c1.6-2.4-0.4-5.3-0.9-7.8
			c-0.1-0.5-0.2-1-0.3-1.6c0.1,0.1,0.2,0.2,0.4,0.3c0,0.1-0.1,0.1,0,0.2c0.2,0.2,0.4,0.2,0.7,0.2c0.9,0.4,1.9,0.5,2.9,0.5
			c0.3,0.4,0.3,0.6,0.5,1.3c1.6,0.5,1.4-0.7,3-0.4c0.6,0.2,0.8,0.8,1.4,1.1c1.1-0.5,1.6,0.3,2.7,0.2c1-1.1,1.5-2.6,3.3-3.1
			c0-1-0.3-1.5-0.1-2.4c0.3-0.1,0.5-0.2,0.8-0.3c0.7,0.6,1,1.4,0.7,2.2c0.9,0.3,0.2-0.7,1.1-0.4c-0.3,0.4-0.1,1.3-0.6,1.5
			c-0.2-0.6-0.5-1-1.1-1.3c-0.1,1.2,0.5,1.7,0,2.6c0.9-0.3,1.4-1,2.7-1.1c-0.2,0.8-0.8,0.7,0,1.3c1,0.3,0.1-1,1.1-0.7
			c0.7,0.6-0.3,0.7-0.3,1.3c1.3-0.5,1.6,1,3,1.1c0.3,0.4-0.8,0.7,0,0.9c0.7-0.4,3.9,1.8,1.9,3.3c1.4,0.4,1.2-0.7,1.6-1.1
			c0,0.3,0.5,0.2,0.5,0.4c-0.1,0.5-1,0.7-0.3,1.3c1.4,0.1,0-0.8,1.1-0.7c0,0.3-0.1,0.5-0.3,0.7c1.6-0.5,1.8,1,1.1,2
			c1.2,0.2,1.3-0.5,1.9-0.7c0.3,0.6,0.2,0.7,1.1,0.4c-0.1,0.3-0.4,0.4-0.5,0.7c1.4,0.3,1.5,1.6,2.2,2.4c-0.4,0.3-1.6,0.1-1.4,0.9
			c0.7,0.2,1-0.1,1.9-0.2c0.3,0.5,1,0.8,0.8,1.8c1.3,0.4,2.4,1,2.7,2.2c0.7-0.3,2.1,1,1.9,1.5c1.8,0.9,3.9,3.9,6,4.6
			c0.7,2.4,0.9,4.5,0,6.8c1.5,3.4,0.3,8.3-0.6,11.6c0.7-0.1,0.7,0.5,0.8,0.9c-0.7,4.5,0.2,10.3-1.4,13.6c0.3,4,0.7,7.3-0.6,10.1
			c0.3,0,0.8,0,0.8,0.2c-0.8,1.9-0.3,4.9-1.4,6.6c-0.1,0.7,0.8-0.6,0.8,0.2c-1.7,8.5-2.3,17.1-2.7,24.5c-0.9-0.4-1.6-0.6-1.6,0.7
			c0.4,0.6,1.4-0.3,1.6,0.2c0.3,1.9-1.1,3.3-1.1,5c0,1.8,1.2,2.2,0.5,3.7c-0.4,0.9-2.8,1.2-2.2,3.1c0.5,0.4,1.3,0.6,1.6,1.1
			c0.1,4.8-0.5,9.5-1.4,13.8c0.9,1.7,0.3,2.7-1.6,3.1c0,0.5,0,1,0,1.5c0.8,0.5,1.7-0.3,1.9,0.4c-1,3.3-0.6,7.6-1.6,11.2
			c-0.9-2.1-0.2-6.3-3.5-6.6c-3.7-0.3-5.5,6.2-5.2,9c0.4,3.3,0.2,5.6,1.9,7.4c2.9,0.9,2.6-2.3,4.6-2.8c0.4-0.9,0.8-1.8,0-2.6
			c1-1,1.2-2.7,2.2-3.7c-0.7,1.4-0.4,2.9-0.5,4.4c-0.6,5.1-2.2,10.3-3,15.5c-0.3,2-1.1,4.3-1.4,6.6c-0.5,3.7-0.6,6.3-1.1,9.2
			c-0.6,3.6-1.4,7.6-1.1,10.1c0.3,2.2-0.7,3.2-1.4,5.3c-0.5,1.7-0.3,3.9-0.6,5.7c-0.2,1.5-1.2,3.2-1.4,4.6c-0.4,2.4-2.7,4.5-3.5,7
			c-0.2,0.5,0.1,1.2,0,1.8c-0.6,2.8-2.7,5.7-2.5,9c-0.4,0.4-0.8,0.7-1.1,1.1c0.7,5.4-5.7,8.1-5.5,13.1c-1,3.3-5.1,7.1-5.5,11.6
			c-0.1,1.3,0.6,2.7,0.6,3.9c-0.2,3.2-2,6-1.9,8.8c0.1,2.3,1.9,3.2,3.6,4.6c10.4,1.2,7.7-10.6,9.8-16.4c0.5-1.4,1.6-2.5,2.5-3.9
			c4.1-7.2,5.7-15.6,8.2-22.4c-0.3-0.9,0-0.9,0-2c3.7-2.4,2.2-8.9,5.5-11.6c0.4-2.4,1.7-4,1.9-6.6c0.5-0.4,1.3-0.6,1.4-1.3
			c0-0.4-0.7-0.3-0.6-0.9c0.4-3.3,2-6.4,1.6-9.6c1.8-3.1,2.2-7.8,1.9-11.4c1.3-1,0.8-3.4,1.4-5.3c0.3-1.1,1.2-1.8,1.4-2.6
			c0.4-2.1,0.3-4.3,0.8-6.4c1.5-5.8,3.7-11.5,4.4-17.3c0-0.3-0.3-0.8-0.3-1.1c0.3-4.2,2.1-8,2.5-11.6c0.2-1.6-0.3-3.3,0-4.6
			c0.4-1.6-0.2-3,0-4.6c0.4-4,2.3-8.1,2.7-12.3c0.1-0.6-0.6-0.7-0.6-1.3c0.3-0.4,0.7-0.8,0.8-1.3c-0.8-5,0.3-11.8,1.1-16.6
			c0.6,0.1,1.1,0,1.4-0.2c0.1-1.6-0.1-2.9-0.6-3.9c-0.8-0.3-0.7,1.2-1.1,0.4c0.2-1.3,1-0.8,1.9-1.3c0.3-1-1.1-0.7-1.6-1.1
			c1.4-8.5,2-17.2,2.5-26.1c0.7,0,1.4,0,2.1,0c-0.4-0.8,1.3-2.2-1.9-2.2c0.4-8.8,0.8-17.6,1.5-26.5c0.7,0,1.6,0.1,1.9-0.2
			c0.3-1.3-0.6-1.5-1.4-2c0.4-4.2,0.7-7.6,0.5-11.8c1.4,0,0.3-0.1,0.3-0.4c-0.1-1.7,0.3-5.8,1.6-6.8c-0.4-0.1-0.5-0.5-0.6-0.9
			c2.2-0.2,1.2-3,4.4-2.4c-0.5-1.4,1.4-0.7,2.5-0.9c1.6-1.3,2.8-2.9,5.5-3.3c0.6-0.8-0.3-2,0.5-2.2c0,0.5-0.1,1.1,0.6,1.1
			c0.4-0.7,0.3-1.2-0.3-1.5c1-0.2,0.8,0.5,1.6,0.4c0.2-0.7-0.7-0.5-0.8-0.9c1.5-0.3,2.1-1,3.3-0.2c-0.1,0.3-0.3,0.5-0.5,0.7
			c-0.7,0.1-0.2-0.9-1.1-0.7c-1.6,1.8,1.8,1.6,2.2,3.1c2.4-0.7,3.1,1.7,3.8,3.1c0.3-0.4,1.4-0.2,1.9-0.4c-0.8-2.7-2.9-4.1-4.1-5.9
			c0.4-0.6,1.3-1.4,0-1.8c-0.5,0.1,0,1-0.6,1.1c-0.4-0.5-0.3-1.1,0-1.6c0.4,0,0.8,0,1.2,0c1.8-1.3,3.7-2.3,5.7-3
			c0.4,0.2,0.9,0.2,1.5,0.2c-0.1-0.2-0.2-0.4-0.2-0.6c3.1-0.9,6.5-1.2,10-1.2v-4.2c4.3,0.3,9.1,0.4,14.1,0.5
			c-2-1.5-7.6-2.8-14.1-3.4v-14.4c0.2-0.1,0.5-0.2,0.9-0.2c0.1-0.6-0.4-0.6-0.9-0.8v-26.2c0.9-0.6,1.6-1.4,2.1-2.5
			c-0.7-0.5-1.4-0.7-2.1-0.8v-2.4c-1.7,0-3.6-0.2-5.6-0.7c0.5-0.3,0.7-0.8,0.2-1.3c-0.2,0-0.5,0.1-0.7,0.1c1.4-0.9,4.2-1.3,6.1-2
			v-2.5c-5.1-0.8-9.5,0.8-13.3,2.9c0,0,0,0,0,0c0.2-0.1,0.3-0.3,0.5-0.5c-0.4-0.3-1-0.3-1.4,0c0,0.2,0.1,0.3,0.2,0.4
			c-8.4-0.1-11.8,0.2-10.3,1.1c0.5,0,0.9,0,1.4,0c0,0.2,0,0.3,0,0.5c0.3,0,0.6,0,0.8,0c0-0.2,0-0.3,0-0.5c2.8,0,5,0.1,6.6,0.2
			c0.1,0,0.1,0,0.2,0c-0.1,0-0.1,0.1-0.2,0.1c0,0-0.1,0-0.1,0c0,0,0,0,0,0.1c-1.9,1.1-3.6,2.3-5.2,3.1c0.7,0.7,0.9,1.9,1.2,2.9
			c-0.3,0-0.6,0.1-0.6,0.4c0.3,0.3,0.6,0.4,0.9,0.3c0.1,0.1,0.1,0.2,0.2,0.4c-0.5,0.1-1,0.3-1.6,0.3c0.1-0.4-0.4-0.4-0.5-0.7
			c1.3,0-0.3-0.8,0.5-1.1c-0.9,0.2-0.6,0-1.6,0c0.9,1,1.5,2.2,1.9,3.5c-0.6,0-0.3,0.6-1.1,0.4c0.3-0.6-1.3-0.8-0.5-1.1
			c0.3,0,0.6,0.3,0.5-0.2c-0.6-0.9-1.8-1.3-3.3-1.5c0,0.3,0.1,0.8-0.3,0.9c-0.9-0.1-2.2-1.4-1.1-1.8c0.6,0.2,0.5,0.9,1.4,0.9
			c-0.1-1.2,1.8-0.9,2.2-1.8c-0.4-0.1-0.7-0.3-1.1-0.4c-0.5,0.1-0.5,0.7-0.8,0.9c-0.5-1.3,0.3-1.3,0-2.2c-1.2-0.2-0.5,1.1-1.4,1.1
			c-0.2-0.6-1.7-0.1-1.6-0.9c1.5-0.1,2.1-0.8,3.3-1.1c-1.2-0.6,0.4-2-0.8-2.4c-0.5,0.7-0.1,0.9-0.8,1.3c0.1-0.5-0.1-0.8-0.5-0.9
			c-0.4,0.5,0.6,1.1,0,1.1c-1.5,0.2-0.9-1.3-2.2-1.3c-0.7,0.1-0.2,1.1-0.8,1.3c-1.2-0.5-0.7-2.2-2.2-2c1.2-0.9,1.6,0.3,2.5,0
			c-0.4-1.1,0.5-1,0-2.2c-1.2-0.2-0.4,1.3-1.1,1.5c-0.7-0.2-0.9-1.4-1.9-0.7c-0.4-0.3-0.1-1.2-1.1-1.1c-1.3,0-0.7,1.5-2.2,1.3
			c0.4-0.3,0.5-1.3-0.3-1.3c-0.2,0.2-0.6,1.3-0.8,0.7c0.4-0.5,0.1-1-0.4-1.3c1.7,0,3.3,0.1,4.8,0.2c0,0.3,0.1,0.5,0.3,0.7
			c0.4,0,0.7,0,1.1,0c-0.2-0.4,0.2-0.5,0.5-0.6c1.2,0.1,2.3,0.1,3.3,0.2c-0.2,0-0.3,0-0.5,0c0,0.2,0,0.4,0,0.7c0.3,0,0.5,0,0.8,0
			c0-0.2,0-0.4,0-0.6c0.8,0.1,1.7,0.1,2.4,0.2c6.4-0.3,0.8-0.7,4.4-1.1c-4.3-0.1-7.9-0.2-11.2-0.2c0,0,0,0,0,0c0,0,0,0,0,0
			c-0.4,0-0.7,0-1.1,0c0.1-1.3-1.1-1.6-1.1-2.8c-0.8-0.2-0.7,0.3-1.4,0.2c0.1-0.4-0.4-0.4-0.6-0.7c0.1-0.3,0.4-0.4,0.3-0.9
			c0.6,0.1,0.9,0.6,1.4,0.2c0.1-0.3,0-0.4-0.1-0.5c1,0.3,2.1,0.5,3.2,0.6c-0.6,1.2,1.3,2.4,2.3,3c0.1-0.8,0.4-1.2,0.6-2.4
			c-0.4-0.2-0.7-0.3-1.1-0.5c4.8,0.3,10.1-0.4,15.5-0.9c0.2,2.3-1.1,3.7,4.6,3c1.7-3.2,0-9.3-4.1-13.9c2.9,0,7.5,0.1,12.7,0.3v-0.4
			c-0.1,0-0.1,0-0.2,0c0.1-0.2,0.2-0.4,0.2-0.7c-0.4-0.1-0.5-0.3-1.1-0.2c-0.1,0.3-0.4,0.6-0.6,0.9c0,0,0,0,0.1,0
			c-4.3-0.1-8.4-0.2-11.6-0.4c-0.2-0.2-0.4-0.5-0.7-0.7c2.7-0.6,7.8-0.9,11.7-1.4c1.3,0.7-4.8,1.2,2.2,1.3v-1.3
			c-0.3-0.2-0.3-0.4,0-0.6v-1.5c-2.3,0.9-5.5,1.6-16.2,1.7c-0.6-0.4-1.2-0.8-1.8-1.1c5.5-0.5,11.3-1,18-0.9V436
			c-4.9,0.1-3.1-0.4-6.7-0.4c2.2-0.3,4.3-0.6,6.7-0.9v-17c2.5,0.2,5.1,1,6.4,2.3c0.8-0.6,1.9-0.4,2.8-0.4c2.9,1.8,7.6,2.1,12.9,5.5
			c3.2,0.4,6.7,2.8,9.1-0.7c-0.4-4.1-8.6-3.6-9.8-5.7c4.8-1.6,5.2-4.7,7.8-8.4c0.2,0,0.4,0,0.5,0c0.3-0.3,0.2-0.4-0.1-0.6
			c0.1-0.1,0.2-0.3,0.3-0.4c-1.2-0.7-0.9-2.8,1.7-4.6c-0.9-1.3,0.5-2.5,1.6-3.5c0-3.3-0.4-6.4,2.2-9.5c2.2-2.7,7.1-4.7,4.9-7.6
			c-2.8-1.4-4.8,3.5-6.4,4.3c-0.4-1.1-0.9-2.2-1.5-3.3c-1.1-0.9-2-0.5-3.2-1.5c0.1-0.9-1.2-1.7-1.1-2.6c-6.3-3-9.6-7.8-17.2-8
			c-0.9-1.3-2.3-2.1-3.7-2.9c1.7-0.7,3.5-1.3,5.5-1.6c-0.8-0.3-1.5-0.7-2.3-1c-1.3,0.9-2.7,1.5-4.1,2.1c-1.8-1-3.4-2.2-3.4-4.4
			c-1.2-1.6-2.2-2.9-3.1-4.2v-2c0.5-0.1,1.1,0.1,1.5-0.4c-0.7-0.8-1.4-1.7-1.1-2.6c3.6-3.6,0.4-7.2,2.7-11.2c4.8,5.4,14.5-3,8.9-7.6
			c-1.9-0.1-3.7,0.8-5.5,1.6c5.8-3.9,8.7-10,13.6-14.5c6.2-5.6,13.7-9.9,17.6-16.1c5-2.3,9.4-5.6,13.2-10.7c4.6-6.2,6.9-14,11.3-19
			c2.7-3.1,7-4.3,6.8-8c-0.8-1.1-1.8-2.2-1.8-3.5c9.3-6.1,17.1-14.1,26.8-19.6C1602.2,245.5,1606.8,243,1605.4,240.6z M1510.9,120.3
			c-1.4,4.2-6.1,10.3-11.1,13.9C1499.7,129.8,1507.5,123.5,1510.9,120.3z M1496.1,162.5c0.9,1,0.4,2.3,0.4,3.4c1.8,1,3-1.3,4.4-2.6
			c1.6,5.5-2.1,10.1-7.2,14.6C1494,173.8,1491.8,167,1496.1,162.5z M1477.1-40.3c2.4,0.7,3.6,1.4,2.7,1.6l0,0
			c-4.3,0.9-15.7,0.8-15.7-0.2C1464.1-40.7,1472.5-41.6,1477.1-40.3z M1450.9-51.5c3.6,0,6.6,0.7,6.6,1.6c0,0.9-3,1.6-6.6,1.6
			c-3.6,0-6.6-0.7-6.6-1.6C1444.3-50.8,1447.3-51.5,1450.9-51.5z M1330.4-193.8c10.3,0,16.5,1.3,16.5,3.3v0c0,2-11.2,1.7-12.5-0.3
			c-0.6-1-2.8-1.4-4.9-1c-2.1,0.4-4.8,0.1-6-0.6C1322.2-193.3,1324.9-193.8,1330.4-193.8z M1297.7-189.2c0.3-0.9,1.1-1.7,1.8-1.6
			c0.7,0.1,4.2,0.1,7.8,0.1c3.6,0,6.6,0.7,6.6,1.6v0c0,0.9-3.8,1.6-8.4,1.6C1300.3-187.4,1297.3-188.1,1297.7-189.2z M1276.3-192.1
			c16.7-0.1,23.9,1.5,15.8,3.7c-5.9,1.5-40.8,1.2-40.8-0.4C1251.2-191.2,1257.4-192,1276.3-192.1z M1227.2-177.9
			c-8.3,0-14-0.7-14-1.6c0-0.9,5.8-1.6,14-1.6c8.3,0,14,0.7,14,1.6C1241.3-178.5,1235.5-177.9,1227.2-177.9z M1228.6-189.4
			c5.5-1.1,9.1-1.1,11.6,0.1c2.9,1.3,1.3,1.7-8,1.6l-11.6-0.1L1228.6-189.4z M1205.4-187c2.5-0.4,6.2-0.4,8.3,0v0
			c2,0.4,0,0.7-4.6,0.7C1204.5-186.3,1202.9-186.6,1205.4-187z M1183.1-191.8c3.9-0.2,4.1-0.1,1.2,1.1v0c-4.3,1.8-5.8,1.9-5.8,0.4
			C1178.5-191,1180.6-191.7,1183.1-191.8z M1155.1-191.6c13.3-0.8,18.5-0.6,18.5,0.7c0,1.2-6,1.8-19.3,1.8
			c-10.6,0-18.9-0.3-18.5-0.7C1136.2-190.1,1144.9-191,1155.1-191.6z M1105.1-189c0.6-0.9,1.3-1.6,1.7-1.6c0.4,0,0.7,0.7,0.7,1.6
			c0,0.9-0.8,1.6-1.7,1.6C1104.8-187.4,1104.5-188.2,1105.1-189z M1093.9-188.5c1.1-0.4,3-0.4,4.1,0c1.1,0.4,0.2,0.8-2.1,0.8
			C1093.7-187.7,1092.8-188.1,1093.9-188.5z M1109-174.5c17.5-2.1,92.3-4.4,90.8-2.7c-1.8,1.9-28.2,4.1-57,4.9
			c-15.3,0.4-33.8,1.2-41,1.7C1083.9-169.3,1089-172.1,1109-174.5z M1076.9-173.2c-1.9-0.1-2.3-0.5-1-1c1.2-0.5,2.6-0.4,3.2,0.1
			C1079.6-173.5,1078.6-173.1,1076.9-173.2z M1067.6-188.9c6.2-1,11.8-1,14-0.2c3.2,1.2,2.9,1.4-2.1,1.5h0
			c-3.2,0.1-9.9,0.6-14.9,1.1C1052.4-185.1,1054.6-186.9,1067.6-188.9z M854.5-152.4c1.1-1.1,6.7-2.6,12.4-3.3
			c23.1-2.8,40.8-4.5,53.9-5.2c7.6-0.4,14.3-1.5,14.9-2.3c1.3-2.1,23.3-4.5,57.9-6.5c15-0.9,29.1-1.9,31.4-2.4
			c6.5-1.4,36-2,37.9-0.9c1,0.6-7.7,2-19.3,3.1c-11.6,1.1-23.7,2.3-26.9,2.6c-3.2,0.3-17.6,1.3-32.1,2.2c-14.5,0.9-31.1,2.7-37,4.1
			c-5.9,1.3-20.1,3.1-31.5,4c-11.4,0.9-26,2.3-32.3,3.1h0C856.9-150.4,852.4-150.2,854.5-152.4z M-49,306.8c2.4,0.2,4.7,0.4,6.9,0.5
			c0.6,0.1,1.4,0.1,2.4,0.1c0.4,0,0.8,0,1.1,0.1C-41.8,307.8-48,307.3-49,306.8z M70.5,340.4c-3.6,0-7.3,0-11.2,0
			c-0.2-0.3-0.4-0.6-0.6-1c3.9,0,7.8-0.1,11.7-0.2C70.4,339.6,70.4,340,70.5,340.4z M58.1,337.8c0-0.2,0-0.3-0.1-0.5
			c3.2,0.1,6.5,0.2,9.9,0.4C65.9,337.6,62.4,337.7,58.1,337.8z M61.3,336.2c-0.8,0.1-2,0.1-3.5,0.2c0-0.1,0-0.3,0-0.4
			C58.9,336,60,336.1,61.3,336.2z M56.9,346.9c-1.2,0-2.1,0-3,0c-0.1-0.2-0.3-0.3-0.4-0.5C55.6,346.6,57.1,346.7,56.9,346.9z
			 M51.9,346.4c0,0.2,0,0.3,0,0.5c-1.8-0.1-2.8-0.2-4.2-0.3c0-0.1,0-0.2,0-0.3C49.2,346.3,50.6,346.3,51.9,346.4z M47.8,345.1
			c0-0.2,0-0.4,0-0.6c0.7,0,1.5,0,2.5,0C51.3,344.9,49.4,345,47.8,345.1z M50.3,347.3H52c0.2,1.2,0.6,2.2,1.7,2.7
			c-1.7-0.1-3.5-0.1-5.7-0.1c-0.1-0.7-0.2-1.4-0.2-2C49.3,347.7,50.2,347.6,50.3,347.3z M55.8,342.3c-1-0.2-2.2-0.2-3.8,0.2
			c-6.2,0-12,0.1-16.3,0.4c-3.1-0.3-6.7-0.4-9.9,0c-5.7-0.2-11.4-0.4-15.3-0.8c3.8-0.4,8-0.7,15.5-0.6c4.3,0.4,6.6,0.9,13.2,1.1
			c5.9,0.1,7.3-0.3,6.7-0.9c3,0.1,6.3,0.2,9.6,0.1C55.6,341.9,55.7,342.1,55.8,342.3z M41.3,344.1c0.7,0,1.3,0.1,1.8,0.1
			c0.1,0.4,0.2,0.8,0.2,1.2c-0.7,0-1.4,0-2.1-0.1C41.4,344.9,41.4,344.5,41.3,344.1z M41.3,343.6C41.2,343.6,41.3,343.5,41.3,343.6
			c-0.9-0.2-2.1-0.4-3.5-0.6c4.3-0.1,9.6,0.1,8.1,0.7C44,343.7,42.6,343.6,41.3,343.6z M43.6,346.3c0,0,0,0.1,0,0.1
			c-0.7,0-1.4,0-2.3,0C41.7,346.4,42.6,346.4,43.6,346.3z M43.5,344.2c0.9,0.1,1.7,0.2,2.7,0.2C45.4,344.5,44.3,344.4,43.5,344.2z
			 M17.1,337.5c1.4,0,2.7,0,4,0c0.2,0.6,0.5,1.1,0.9,1.6c-5.2,0.2-11,0.3-15.9-0.2c2.9-0.4,9.8-0.3,13.2-0.6
			C18.1,337.9,12.7,337.9,17.1,337.5z M0.8,336.9c-0.1-0.2-0.1-0.4-0.2-0.6c7.9-0.1,15.3-0.4,20.6-0.9c-0.1,0.3-0.2,0.6-0.2,0.9
			C15.2,336.6,8.2,336.8,0.8,336.9z M21.5,334.8c-9.6-0.1-15.2,0.3-21.2,0.2c-0.1-0.3-0.1-0.6-0.1-0.9c10.4-0.2,20.3-0.4,29.7-0.6
			c0.1,0.2,0.2,0.4,0.5,0.7c1-0.2,1.7-0.5,2.2-0.7c5.3-0.1,10.4-0.3,15.4-0.3v0.8c-3.4,0.1-5.4,0.3-11,0.2c-0.8,0.9-4.6,1.5-10.2,2
			c-0.1-1-1.1-1.8-4.1-2.1C22.1,334.2,21.8,334.5,21.5,334.8z M-17.4,333.1c3.6,0.1,5.8,0.4,5.8,1.1c2.7,0,5.4,0,8.1-0.1
			c0.2,0.3,0.4,0.5,0.7,0.8c-1.4-0.1-2.8-0.1-4.3-0.3c-0.8,0.6-5.7,0.8-10.3,1C-17.1,334.9-17.1,334.1-17.4,333.1z M-3.6,327.3
			c1.7,0,3.6,0,5.5,0c-0.2,0.7-0.8,1.4-3.3,1.3C-2.1,328.2-2.9,327.8-3.6,327.3z M-5,325.4c3.7,0,5.5,0.1,7.5,0.3
			c-0.1,0.1-0.2,0.3-0.2,0.4c-1.6,0.1-1.3,0.1-0.1,0.3c0,0.1-0.1,0.2-0.1,0.4c-2.9,0-3.6-0.3-6.8-0.3c-0.2-0.2-0.4-0.4-0.5-0.6
			C-4.6,325.8-4.3,325.7-5,325.4z M15.1,314c0.3,0.4,0.6,0.8,0.9,1.2c-1,0-2.1,0-3.3,0c-1.1,0.2-2.6,0.4-4.1,0.5
			c0.8-0.5,1.6-1.1,2.6-1.5c0.5,0,1,0,1.5-0.1C13.4,314,14.3,314,15.1,314z M13.4,313.1c0.2-0.1,0.5-0.2,0.7-0.3
			c0.1,0.1,0.2,0.3,0.3,0.4C14.1,313.1,13.8,313.1,13.4,313.1z M17.4,316.8c0.2,0.3,0.4,0.6,0.5,0.9c-2,0.4-1.2,0.7,0.6,1
			c0.2,0.3,0.4,0.7,0.6,1c-7.7,0.2-5.5,1.3-12.9,1.5c-5.7-0.9,4.9-0.8,4.4-1.7c-1.9,0-3.9,0-6.1-0.1c0.7-0.8,1.6-1.7,2.6-2.5
			C10.5,316.8,14.2,316.9,17.4,316.8z M19.3,320.1c0.1,0.2,0.3,0.4,0.4,0.7c-1.6,0-2.9,0-2.6-0.2C15.7,320.1,17.5,320.1,19.3,320.1z
			 M20.1,321.7c0.4,0.8,0.6,1.6,0.8,2.5c-2,0.1-4,0.1-6,0.2c-4.1-0.4-10.2-0.6-8.8-1.5c-1.1,0-2.2,0-3.3,0c0-0.3,0.1-0.6,0.2-0.9
			C11.3,321.6,15.4,321.6,20.1,321.7z M21.3,325.5c0.2,1,0.2,1.9,0.2,2.8c-3.8,0.2-8.2,0.3-13,0.4c-0.4-0.6-1.1-1-1.7-1.4
			c0.5,0,0.9,0,1.4,0c1.5-1.1,2.5-1.2,4.5-1.9C15.5,325.6,18.4,325.6,21.3,325.5z M6.1,325.9c-0.3,0-0.6,0-0.8,0.1c0,0,0-0.1,0-0.1
			C5.5,325.8,5.8,325.8,6.1,325.9z M3.7,329.3c0.9,0,1.8,0,2.7,0c0.8,0.1,1.6,0.3,2.5,0.6c0-0.2-0.1-0.4-0.1-0.6
			c5.4,0,10.9,0.1,16.2,0.1c-0.1,0.6,0.4,1.1,2.4,1.4c-0.1-0.6,0.1-1.1,0.6-1.4c1.1,0,2.2,0,3.3,0.1c0.3,0.2,0.5,0.4,0.7,0.7
			c0.5,1.1-1.2,1.5-1.9,2.3c-11.5,0.1-22.9,0.1-26.2-0.6c-0.9,0.2-2,0.4-3.5,0.5C0.8,330.9,1.9,329.7,3.7,329.3z M22.4,325.5
			c1.5,0,2.9-0.1,4.4-0.2c0.2,0.3,0.2,0.5,0.2,0.7c-1.2,0.1-2.5,0.2-4,0.2c1.2,0.1,2.6,0.1,4,0.1c-0.1,0.6-0.6,1.2-1.1,1.7
			c-1.2,0.1-2.5,0.1-3.9,0.2C22.2,327.4,21.7,326.3,22.4,325.5z M27.2,322c1.1,0,2.4,0.1,3.8,0.1c-0.1,0.4-0.3,0.8-0.6,1.1
			C29,323,27.9,322.5,27.2,322z M48,332.2v0.4c-4-0.1-8.9-0.1-14.1-0.1c0.7-1,0-1.9,0.8-2.9c0.8,0,1.6,0,2.3,0
			c3.2,2.5,5.7-3.2,9.8,1.2c-0.8-1.6-1.6-3-2.6-4.3c1.2,0,2.5,0,3.7,0v5.1c-0.2,0-0.5,0.1-0.7,0.1C47.5,331.9,47.8,332,48,332.2z
			 M34.5,318c0.1,0,0.1,0,0.1-0.1c1.3,0.1,2.5,0.3,2.4,0.6c-0.7,0-1.3,0-1.8,0C35,318.4,34.7,318.2,34.5,318z M39.7,315.2
			c-0.2-0.5-0.4-0.9-0.6-1.4c1.7,0,3.4,0,4.6,0c1.2,0,2.7,0.1,4.4,0.2v2.1C47.4,315.6,43.7,315.4,39.7,315.2z M48,316.4v0.5
			c-2.3,0.1-4.7,0.2-7.4,0.3c-0.1-0.2-0.2-0.4-0.3-0.6C42.5,316.5,43.5,316.3,48,316.4z M45.8,319.6c-0.8,0.5-3.9,0.8-7.7,1
			c-0.3-0.2-0.6-0.4-0.9-0.6C41.3,319.7,44,319.4,45.8,319.6z M36.1,317.2c0.2-0.2,0.5-0.4,0.7-0.6c0.1,0,0.2,0,0.3,0
			c0.7,0,1.2,0,1.7,0c0.1,0.2,0.2,0.4,0.3,0.6C38.1,317.2,37.1,317.2,36.1,317.2z M33.1,313.8c2.1,0,3.9,0,5.7,0
			C35.9,314.7,34.2,314.5,33.1,313.8z M40.4,337.3c-0.1,0.1-0.1,0.1-0.2,0.2c0-0.1-0.1-0.1-0.1-0.2
			C40.2,337.3,40.3,337.3,40.4,337.3z M37,338.1c-0.7,0-1.5,0-2.2,0c-2.2,0.3-5.5,0.6-9.3,0.9c0.3-0.5,0.6-1,0.9-1.4
			c3.6,0,7.1-0.1,10.6-0.1C36.9,337.6,36.9,337.8,37,338.1z M24.8,340.2c5.6-0.1,10.4-0.2,12.8-0.8c0.2,0.5,0.5,1,0.6,1.4
			c-2.7,0-5.3,0.1-7.8,0.1c-2,0-3.9,0-5.9,0C24.6,340.7,24.6,340.4,24.8,340.2z M54.8,340.5c-4.6,0.1-9.3,0.2-13.8,0.2
			c0.1-0.2,0.1-0.3,0.1-0.5c0.7,0.1,1.8,0,3.2-0.6c0-0.2-0.1-0.3-0.2-0.5c3.2,0.2,6.6,0.3,10.1,0.3
			C54.4,339.8,54.6,340.1,54.8,340.5z M53.4,337.9c-3,0.1-6.2,0.1-9.5,0.2c-0.3-0.3-0.6-0.6-0.9-0.8c3.3,0,6.6-0.1,10-0.1
			C53.1,337.5,53.3,337.7,53.4,337.9z M52.4,336.3c-4.7-0.1-9.2-0.4-8.7-0.8c1.7,0,3.1,0,4.4,0v0.2h3.9
			C52.1,335.9,52.2,336.1,52.4,336.3z M31.8,309.9c0.9,0.5,1.6,1.2,2.6,1.5c0.7-0.6,1-1.1,1.1-1.5c3.6,0,7-0.1,10.3-0.1
			c0.3,0.2,0.9,0.4,1.6,0.6c0.2,0.1,0.4,0.3,0.5,0.5v1.1c-2,0.4-2.7,1-8.8,1.1c-3.5-0.1-5.2-0.3-7.4-0.4c-0.6-0.8-1-1.8-1.5-2.6
			C30.7,309.9,31.3,309.9,31.8,309.9z M26.4,319.6C26.5,319.6,26.5,319.6,26.4,319.6C26.5,319.6,26.4,319.6,26.4,319.6
			C26.4,319.6,26.4,319.6,26.4,319.6z M28,320c0.1,0,0.2,0.1,0.2,0.1c0.7,0,1.4,0,2.1,0c0.2,0.2,0.4,0.5,0.5,0.8
			c-1.5,0.1-3,0.1-4.5,0.2c-0.1-0.1-0.1-0.3-0.1-0.4C26.9,320.4,27.5,320.2,28,320z M24.4,310.3c-1.1-0.1-2-0.3-2.9-0.6
			c1.1,0,2.3,0,3.3,0.1C24.7,310,24.6,310.2,24.4,310.3z M21.1,309.6c-2.1-0.8-3.8-2-6.3-2.4c0,0,0-0.1,0-0.1c1.6,0,3.1-0.1,4.4-0.1
			C22.1,308,28.7,308.9,21.1,309.6z M22.9-127.6c5-1.2,16.1-2.7,24.7-3.3c9.5-0.6,16.5-1.9,17.9-3.2c1.2-1.2,3.4-2.1,5-2.2
			c1.5,0,4.4-0.5,6.5-1c5.6-1.5,4.5,2-1.4,4c-8.2,2.8-4.2,4.5,7,3c22-2.9,47.1-6.3,55-7.6c16.2-2.7,20.6-3,21.5-1.5
			c0.5,0.8-0.5,1.5-2.3,1.5s-6.8,1-11.2,2.3c-10.6,3-44.4,8.9-51.8,8.9c-3.2,0-8,0.3-10.7,0.6c-2.7,0.3-6.7,0.6-8.8,0.8
			c-2.1,0.1-3.4,0.9-2.8,1.8c0.6,0.9-0.1,1.6-1.4,1.6v0c-1.3,0-3.6,0.4-5.1,1c-1.7,0.6-2.6,0.1-2.6-1.6c0-2.2-2.5-2.5-18.6-2.4
			c-10.2,0.1-21.2,0-24.4-0.2C14.1-125.4,14.3-125.6,22.9-127.6z M5.9-119.6c0.5,0.5-1.1,1.6-3.6,2.5c-5.5,2-9.2,2.1-9.2,0.2
			C-6.9-118.5,4.6-120.9,5.9-119.6z M-24.1-102.8L-24.1-102.8c-0.6,0.9-2.7,1.7-4.7,1.7h-3.6l3.8-2.6
			C-24.7-106.3-22.2-105.8-24.1-102.8z M-21-104.4c-1.9-3,1.7-4.8,14.3-7.3c6.7-1.3,14.8-3.6,18-5c3.2-1.4,13.5-3,23.1-3.7
			c9.5-0.6,18.4-1.4,19.8-1.7c1.4-0.3,2.7,0.1,3,1c0.6,1.7-2.6,2.7-24.1,7.2c-7.9,1.6-22.8,4.9-33.2,7.1
			C-22.1-102-19.6-102.3-21-104.4z M-7.1,326.5c0,0-0.1,0-0.1,0c-0.1-0.1-0.1-0.1,0-0.2C-7.2,326.4-7.1,326.4-7.1,326.5z
			 M-6.5,327.3c0.3,0.5,0.5,1,0.7,1.5c-3.2,0-6.3,0-9.4,0c0.4-0.7,1-1.3,1.9-1.8C-11.3,327.2-9,327.3-6.5,327.3z M-26.4,327.3
			c3,0,6.4,0,10.4,0c0.9-0.4-3.3-0.5,0-0.6c0.2,0,0.4,0.1,0.6,0.1c-0.6,0.7-0.9,1.5-0.9,2c-5.6,0-10.8-0.1-15.3-0.2
			c0.1-0.6,0.3-1.1,1.4-1.2c0.5,0,1.1,0,1.6,0c0.6,0,1.4,0.1,2.4,0.3C-26.3,327.5-26.4,327.5-26.4,327.3z M-29.4,324.8
			c-1-0.3-2-0.6-2.9-0.9c2.2,0.1,4.1,0.1,5.3,0c0.8-1.1,9.4-0.8,15-0.1c0.2,0.3,0.4,0.5,0.6,0.8c-0.6,0-1.1,0.2-1.6,0.4
			c-4.8,0-9.4,0-9.6,0.4c1.8,0.4,5.8,0.2,8.5,0.1c-0.3,0.2-0.6,0.4-0.8,0.7C-21,325.9-26.2,325.5-29.4,324.8z M-9.3,315
			c-1.1,0.3-2.1,0.3-2.9,0.1C-11.2,315.1-10.2,315-9.3,315z M-41.8,315.1c0.6,0.1,1.1,0.1,1.5,0.2c-1.8-0.8,7.6-0.3,8.9-1.3
			c-2.9-0.5-7.5,0.1-10-0.1c0-0.1,0.1-0.2,0.1-0.4c0.9-0.1,2.1-0.2,3.3-0.2c3.4,0.6,14.3,0.6,17.7,0.6c-2.8,0.4-12.4,0.2-13.3,0.9
			c6.1,0.3,11.7,0.3,16.9,0.3c0.6,0.5,1.1,1,1.4,1.5c-2.5,0.2-4.3,0.3-7.3-0.2c-0.7-0.4,3-0.4,4.4-0.6c-7-0.4-16.5,0.6-24.2,0.9
			C-42.2,316.1-42,315.6-41.8,315.1z M-42.4,316.6c9.8,0.1,19.8,0.6,27.2,0.4c0.4,0.7,0.6,1.4,0.8,2.2c-2.6,0-5.1,0.1-7.5,0.2
			c0.3-0.4,0.5-0.9,0.7-1.6c-4.4-1.4-11.8-0.2-12.8,3.1c-0.6,0-1.3,0.1-2.1,0.1c-4.1-0.8-0.5-0.9,2.2-1.5c-5.1,0-7.7,0.3-9.8,0.7
			C-43.3,318.9-42.9,317.7-42.4,316.6z M-42.7,322.7c-0.3-0.2-0.6-0.4-0.9-0.8c0-0.1,0-0.2,0-0.3c2.8-0.1,6.2-0.2,9.6-0.2
			c0,0,0,0,0,0.1c0.7-0.1,1.3-0.1,2-0.1c0.9,0,1.8,0,2.7-0.1c1.9,0,3.4,0,4.6-0.1c0.1,0.1,0.3,0.3,0.7,0.5c2.1,0.1,3.5-0.1,4.6-0.4
			c-0.4-0.6-1.7-0.9-3-1c0.2-0.1,0.3-0.3,0.4-0.5c2.5,0,4.5,0,6.1,0.1v0.9c0.8,0,1.5-0.1,2.2-0.1c0.2,0.6,0.5,1.3,1,2
			c-8.2-0.1-15-0.1-21.9,0c-0.3-0.3-0.5-0.6-0.7-0.9c-1.2,0.3-2.2,0.7-3.1,1C-40,322.7-41.3,322.7-42.7,322.7z M-29.3,330.8
			c-0.7,0.7-5.7,1-7.9,1.6c-0.1-0.8-1.3-2-1-2.7c0.6,0,1.1,0,1.6,0c0.7,1.1,2.1,1.5,3.9,1.6c0.6-0.5,0.8-1.1,0.9-1.5
			c3.6,0.1,6.8,0.3,9.2,0.6c4.7-0.5,10.6-0.7,17.1-0.9c0.3,0.9,0.6,1.9,1,2.9C-13.2,331.9-17.8,331-29.3,330.8z M-19.9,338.2
			c0.6,0,1.2,0.1,1.7,0.1c-0.4,0.2-1.4,0.4-2.6,0.5C-20.5,338.6-20.2,338.4-19.9,338.2z M-53.6,340.9l2.9-0.3
			c0.1,0.1,0.1,0.3,0.2,0.4C-51.6,341-52.7,340.9-53.6,340.9z M-48.1,338.9c-0.6-1-1.2-1.9-1.8-2.7c2.6,0.1,5.3,0.1,7.9,0.1
			c-3.4,0.1-4.1,1.6-3.3,2.6C-46.2,338.9-47.2,338.9-48.1,338.9z M-41.6,350.1c0.6-0.3,1.4-0.5,2.5-0.6c1.9-0.5,2.8-0.2,3.6,0.3
			C-37.7,349.9-39.8,350-41.6,350.1z M-33.7,345.8c-0.4,0.3-3.5,0.2-6.6,0.2v1.3c-0.6,0-1,0-1.4,0c-1.2-0.1-2.4-0.3-3.5-0.5
			c-0.1-0.3-0.1-0.7-0.2-1c6.3,0,13.1-0.2,18.9-0.5c-0.1,0.4-0.2,0.8-0.2,1.2c-0.1,0-0.2,0-0.2,0C-29.4,346.3-27.8,345.7-33.7,345.8
			z M-28.5,349.8c0.2-0.3,0.3-0.6,0.5-0.9c0.6,0,1.2,0,1.9,0c0.2,0.3,0.5,0.7,0.8,1C-26.4,349.8-27.4,349.8-28.5,349.8z
			 M-16.6,342.9c-2.6-0.1-5.4-0.2-8.5-0.2c-0.1,0.1-0.1,0.1-0.1,0.2c-4.8,0-10-0.1-15.1-0.1c2.1-0.9,14.4-0.8,24.3-0.9
			c-0.7,0.4,0.5,0.7,4.4,0.6C-12.8,342.8-14.5,342.8-16.6,342.9z M-47.1,341.1c-0.1-0.2-0.2-0.3-0.2-0.5c13.2,0,26.9-0.1,42.3,0.1
			C-10.4,341.6-32.5,341.5-47.1,341.1z M-7.4,336.8c0,0,0,0.1,0.1,0.1c-3.7,0-7.3,0-11,0c0.2-0.2,0.3-0.4,0.5-0.6
			c5.4,0.1,11.2,0.1,16.8,0c0.3,0.2,0.7,0.4,1.1,0.6c-1.4,0-2.7,0-4.1,0C-5.1,336.7-5.9,336.4-7.4,336.8z M23.1,340.2
			c0.3,0.3,0.6,0.5,1,0.7c-9.6,0-18.5-0.2-26.8,0C3.2,340.1,13.9,340.3,23.1,340.2z M1.7,345.2c2-0.8,10.3-0.6,17.6-0.6
			c-0.3,0.2-0.5,0.4-0.7,0.6c-2.6,0.1-5.3,0.1-8.1,0.2c-0.4-0.7-1.2-0.6-1.7,0C6.5,345.4,4.2,345.3,1.7,345.2z M22.8,347.9
			c-0.1,0.3-0.2,0.5-0.3,0.8c-4,0-7.9,0-12.1-0.2c0-0.1,0.1-0.2,0.1-0.3C13.7,348,18.1,347.9,22.8,347.9z M8.9,348.4
			c-0.1,0-0.2,0-0.3,0c0,0-0.1,0-0.1,0C8.6,348.4,8.7,348.4,8.9,348.4C8.8,348.4,8.8,348.4,8.9,348.4z M-53.1,362.2
			c-0.1-0.3-0.2-0.5-0.5-0.7c5.1,0,10.8,0.2,13.3,0.2C-39.7,362.2-46.7,362.3-53.1,362.2z M-47.6,369.1c12.2,0.2,24,0.5,33.8,0.9
			c-2.2,0.5-10.4,0.9-19.5,1.1C-38.1,370.5-42.9,369.8-47.6,369.1z M-52.8,375.7c2.8,0.2,4.8,0.5,5.9,0.8c-1.7-0.1-3.5-0.1-5.4-0.1
			C-52.5,376.2-52.7,375.9-52.8,375.7z M-50.6,378.5c-0.2-0.2-0.3-0.3-0.5-0.5c15.6-0.1,33.6,0.1,28.5,1.8c6.8,0.2,6.7-0.3,10.4-0.4
			c2.4,0.6,4.7,1.3,7,2c-4,0-8.1-0.2-13-0.3c-1.5,0.1-3.3,0.2-5.3,0.3c0,0,0,0,0-0.1c-3-0.7-5.3-1.6-9.4-1.8c2.1-0.1,4-0.1,5.8-0.2
			c-4.3-0.5-10.4-0.7-16.6-0.7c0,0-0.1-0.1-0.1-0.1C-45,378.7-48.1,378.4-50.6,378.5z M-13.2,383.9c-3-0.1-5.6,0.5-6.7,1.1
			c-3.4,0.3-7.3,0.5-12.4,0.6c-0.1-0.1-0.1-0.3-0.1-0.4c3.1-0.4,6.6-0.7,8.5-1.2c1.3,0.2,1.5,1,4.2,0.7c0.6-0.7-1.9-1-3.4-0.9
			c0.4-0.2,0.7-0.4,0.6-0.6c2.6,0,4,0,4.4-0.2c8.4-0.1,6.9,0.8,11,1.1c-2.2,0.1-4.1,0.3-5.9,0.4C-13,384.3-13,384.1-13.2,383.9z
			 M-5.9,385.9c0.4,0.6,1.7,0.5,2.7,0.2c0.3,0.1,0.5,0.2,0.8,0.2c-2.3,0-4.6,0-6.9,0C-8.4,386.2-7.3,386.1-5.9,385.9z M-43.6,379.9
			c3.5-0.1,6.9-0.2,10-0.4c-1.1,0.9-2.3,1.8-3.5,2.7c-4.5,0.3-7.5-0.3-9.7-1.2C-45.5,380.8-44.2,380.4-43.6,379.9z M-43.8,391.8
			c-0.2-0.2-0.5-0.5-0.6-0.7c7.2-0.1,14.5-0.2,21.8-0.2c-3.1,0.6,6,1.1,0,1.3c-1.6,0-3.3-0.1-4.9-0.1c-0.6-0.2-1-0.4-1.2-0.8
			c-0.2,0.2-0.2,0.5-0.2,0.7c-0.9,0-1.7,0-2.6-0.1c-1-0.4-2.5-0.7-5.9-0.5c0,0.1,0.1,0.2,0.3,0.4C-39.4,391.9-41.6,391.9-43.8,391.8
			z M-5.3,412.4c-0.2,0-0.3,0.1-0.5,0.1c-2.7,0-5.3-0.1-8.1-0.1c-1.5,0.7-1.5,0.4,0,1.1c1.4,0.1,3,0.1,4.6,0.1
			c-4.3,1.8-5.1,4.5-12.9,5.4c-1.8-0.1-3.5-0.3-5.2-0.4c0.2-0.2,0.3-0.5,0.4-0.7c1-1,0.9-1.7,0.3-2.3c0-0.7-0.1-1.5-0.1-2.2
			c-0.6-0.2-1.5-0.3-2.5-0.3c0.3-0.6,1-1,0.2-1.9c-1.5,0.2-3.1,0.4-4.6,0.7c0.2,0.4,0.4,0.9,0.6,1.3c-2.3,0-4.5,0.1-5.7-0.4
			c1.1-1.4,2.5-2.6,4-3.7c2.4-0.1,4.9-0.2,7.5-0.4c-2.3-0.1-4.6-0.1-6.9-0.1c0.5-0.4,1-0.8,1.4-1.2c4,0.4,11.2,0.5,19.5,0.5
			c1,0.2,2,0.4,3,0.6c-5.5,0.1-9.9,0.3-12.6,0.9c4.4-0.2,9.5-0.2,14.7-0.2c0.2,0.1,0.5,0.2,0.7,0.3C-7.2,410.5-4,410.8-5.3,412.4z
			 M-31.6,406.3c0.5-0.5,0.9-1,1.2-1.5c3,0.3,6.3,0.5,10,0.4c0.2,0.3,0.6,0.6,1.1,0.9C-23.2,406.1-27.3,406.2-31.6,406.3z M-2,399.3
			c-3.9-0.4-8-0.5-12.8-0.1c-1.6-1.2-4.5-2-8.1-2.5c4.7,0,8.7,0,11.4,0c-5.4-0.1-4.9-0.8-6.6-1.3c-1.6,0-3.4,0.1-5.1,0.1
			c0,0,0,0,0,0c-0.1,0-0.1,0-0.2,0c-4.2,0.1-8.4,0.2-12.1,0.2c-0.1-0.3-0.2-0.5-0.3-0.7c2.2-0.1,4.3-0.2,6.3-0.3
			c-0.3,0.1-0.5,0.2-0.9,0.4c2.2-0.3,4.8-0.5,7.2-0.7c0.1,0,0.3,0,0.4,0c0,0.1-0.1,0.1-0.1,0.3c0.9-0.3,1.1,0.9,2.1,0.3
			c0-0.3-0.2-0.5-0.4-0.6c1.8-0.1,3.6-0.3,5.3-0.4c2.6-0.6-3.5-0.4-6.8-0.4c-0.2-0.2-0.5-0.3-0.9-0.4c3.3-0.6,6.6-1.1,14.3-1.3
			c1.5-0.5-9.8-0.9-2.2-1.3c3.8,1.1,29.3,0,28.7,1.5c-1.3,0-2.6,0-3.9,0c-1.4-0.3-3.2-0.4-5.7-0.3c0,0.1,0,0.3,0.1,0.4
			c-1.5,0-2.8,0.1-3.7,0.2c-0.4,0.6,2.6,0.9,5.2,1.2c2.1,0.9,5.7,1.4,8.4,2.1c-8.7,0.2-17.4,0.6-26.9,1.4c-1.8,1,6.9,1,11,1.5
			C1.2,398.8-0.1,399.1-2,399.3z M-2.3,385.7C-2.3,385.7-2.2,385.7-2.3,385.7C-2.2,385.7-2.2,385.7-2.3,385.7
			C-2.2,385.7-2.3,385.7-2.3,385.7z M5.2,387.6c0.9-0.1,1.8-0.1,2.5-0.1C6.8,387.6,5.9,387.7,5.2,387.6z M6.3,388.8
			c-0.7,0-1.5,0-2.4,0v-0.6C4.7,388.4,5.4,388.6,6.3,388.8z M2.6,386.4c0-0.3-0.1-0.5-0.1-0.8c3.2,0,6.8,0,10.6,0
			c0.1,0.2,0.1,0.4,0,0.7C9.8,386.3,6.3,386.3,2.6,386.4z M19.3,396.5c0.2,0,0.4,0,0.6,0c0.4,0.2,0.6,0.5,0.8,0.8
			c-1.4,0.7-3,0.5-4.6,0.1C18.8,397.3,20.8,397.1,19.3,396.5z M10.5,398.2c-0.7,0-1.4,0-2.2,0c0.1-0.2,0.6-0.3,1.5-0.4
			C9.9,398,10.1,398.1,10.5,398.2z M20.8,401.1c-5.2,0.1-9.5-0.2-13.4-0.7c4.7,0,9.4,0,14,0C21.6,400.6,21.5,400.8,20.8,401.1z
			 M19.1,395.5c-0.6-0.4-1.1-0.8-1.5-1.2c1.7,0,3.3,0,4.9,0c0.7,0.3,1.3,0.7,1.8,1.1C22.5,395.4,20.8,395.5,19.1,395.5z M30.4,375.5
			c-1.9,0-2.1-0.1-2.2-0.2h-2.4c2-0.2,4-0.4,6-0.6C31.9,374.9,32.1,375.2,30.4,375.5z M21.9,373.1c-3.3-0.3-6.3-0.6-4.8-1.3
			c6.8-0.1,11.5-0.5,17.7-0.6c0.3-0.5-3.4-0.7-4.4-1.1c-5.6,0.3-17.2,0.1-22.1,0.4c6.2,0.8-3.6,1.6-4.4,2.4
			c-11.2,0.3-6.1-1-15.5-0.9c1.7-0.9,3.9-1.8,9.5-2.4c0.5,0,0.9,0,1.3,0c0,0,0-0.1,0-0.1c4.1-0.3,9.8-0.5,17.9-0.5
			c1.7,0.7-6,0.4-4.4,1.1c8.2,0.2,5.5-0.8,8.8-1.1c4.5,0.3,9.3,0.4,14.1,0.5c0.6,0.6,1.2,1.1,1.6,1.8
			C30.2,371.4,25.5,372.1,21.9,373.1z M39.2,352.3c-0.4,0-0.8,0-1.2,0c0.1-0.3,0.1-0.5,0.2-0.8C39.5,351.7,40.4,351.9,39.2,352.3z
			 M34.8,350.8c-0.1,0.3,1.7,0.5,3.2,0.7c-0.4,0.3-0.9,0.6-1.3,0.9c-6.7,0.1-11.6,0.5-16.6,0.8c-2.5-0.9-4.7-1.8-7.1-2.8
			c3.2-0.1,6.3-0.1,9.1-0.2c-0.1,0.8,0.2,1.4,1.7,1.4c0.7-0.7,1.5-1.3,2.5-1.7c2.5-0.2,3.8-0.4,2.8-0.8c3.5-0.5,7.5,0.2,10.4,1.1
			c0.1-0.8,0.4-1.5,0.8-2.1c1.4,0,2.6,0,3.8,0c0.1,0.6,0.3,1.3,0.4,1.9c-0.2,0-0.4,0-0.7,0C41.4,350.7,44.2,351.5,34.8,350.8z
			 M43.1,533.3c6.3-2.4,12.7-4.7,19.3-7c1.1,0.9,2.2,1.8,2.6,3c0.5,1.6-0.2,3.6,0.1,5.2c0.3,1.4,0.7,3.1,1.1,4.3
			C58.4,537.1,50.7,535.2,43.1,533.3z M65.6,350.3c-0.7-0.5-1.9-0.8-3.6-0.7c0.1,0.4,0.1,0.8,0.1,1.3c-2.8-0.1-4.3-0.3-3-0.9
			c-1.6,0-2.9-0.1-4.3-0.1c0.1-1.1-0.2-2-0.7-2.7h2.7c0.1,0.3-1,0.5-2.2,0.6c5.8,0.2,11,0.2,15.7,0.2
			C67,348.6,65.8,349.4,65.6,350.3z M63.5,347.1c0-0.2,0.9-0.2,1.9-0.3c1.9,0.2,3.5,0.4,4.4,0.9c-0.6,0-1.2,0-1.9,0.1
			C68.7,347.3,67.5,347.1,63.5,347.1z M70.3,342.3c-3,0.1-6.4,0.1-9.8,0.1c-0.2-0.3-0.4-0.6-0.5-0.8c3.5-0.1,7-0.2,10.5-0.2
			C70.5,341.7,70.5,342,70.3,342.3z M78.7,337.9c-1.9,0-4,0-6.4,0c-0.7-0.6,4.6-0.6,8.8-0.6c0.1,0,0.1,0,0.2,0
			C80.6,337.5,79.7,337.7,78.7,337.9z M87.1,531.5c0.2-1,0.6-2,1.1-3c0.2-0.1,0.5-0.1,0.7-0.2C88.6,529.4,87.9,530.5,87.1,531.5z
			 M126.1-91.5c-4.8,2-15.6,2-12.4,0c1.4-0.9,5.4-1.5,9.1-1.5C127.9-92.9,128.6-92.6,126.1-91.5z M210.2,544.2
			c-5.8-1.1,2.6-2.8,7.5-2.7C216.7,542.8,213.1,543.4,210.2,544.2z M219.5,540.9c-5.2-1.1,5.9-2.2,5.5-3.8
			C229.8,538.2,220.3,539.7,219.5,540.9z M206.3,540.5c1.8-4.6,6.1-7.6,13-11.8c1.9,0,3.7,0,5.6-0.1
			C236.8,533.7,217,538.2,206.3,540.5z M259.4-103.4L259.4-103.4c-4.3,0.6-9.1,1.4-10.7,1.8c-1.6,0.4-2.9,0.1-2.9-0.8
			c0-0.8,2.4-1.9,5.4-2.4c3-0.5,7.8-1.4,10.7-2c3.3-0.7,5.4-0.4,5.4,0.6C267.2-105.2,263.7-104,259.4-103.4z M290.2,509.6
			c2-0.5,0.6-2,5.6-1.6C296.1,509.1,294.2,509.6,290.2,509.6z M404.4,510c-4.4,0-8.7,0.1-13.1,0.1c-1-2.4,3.7-3.2,5.5-4.8
			C402.5,506,405.8,507.3,404.4,510z M479.2-101.2c-1.9-0.1-2.3-0.5-1-1c1.2-0.5,2.6-0.4,3.2,0.1h0
			C481.9-101.5,481-101.1,479.2-101.2z M517.8,523.4c-1.9-1.1-4.1-2-6.7-2.8c2.3,0.2,4.3,0.6,5.8,1c0.3,0.4,0.7,0.8,1.2,1.2
			C518,523,517.9,523.2,517.8,523.4z M547,527.2c-5.5-0.4,1.1-1.7,0-2.6C553.4,524.8,548.2,526.1,547,527.2z M567.7,527.3
			c-0.2-0.4-0.4-0.8-0.6-1.3c0.1-1.8,1.6-4.5,4.1-5.5C582.7,521.8,569.4,524.9,567.7,527.3z M678.2,540.2c-4.8,0-4.4-1.9-1.9-2.6
			C680.4,537.4,677.2,539.4,678.2,540.2z M680.1,534.9c-6.5-0.6-2.8-4.1-5.7-5.8c2.5,0,5-0.1,7.5-0.1
			C685.9,530.5,683.5,533.8,680.1,534.9z M720.5,544.7c2.6-3.4,5-6.8,7.1-10C734.3,537.8,728.7,541.8,720.5,544.7z M788.1-115.9
			c-4.5,0-6.2-0.3-3.7-0.7c2.5-0.4,6.2-0.4,8.3,0v0C794.7-116.2,792.6-115.9,788.1-115.9z M840.1-117.3c-2.3,0-3.2-0.4-2.1-0.8
			c1.1-0.4,3-0.4,4.1,0C843.3-117.7,842.4-117.3,840.1-117.3z M923.7,536.1C923.7,536.1,923.7,536.1,923.7,536.1
			c0-0.4,0.4-0.4,0.3-0.9c0.2,0,0.4,0,0.7,0C924.4,535.6,924.3,536.1,923.7,536.1z M920.8,530.9c-1.8-0.2-3.4-0.5-4.9-0.8
			c-0.2-1.2-0.9-2.5,1.9-2.8c5.7,0.6,10.4,1.4,14.4,2.4C928.7,530.5,924.9,531.3,920.8,530.9z M1002,563c-0.4-1.7-0.8-3.4-1.4-5
			c0.9,0.3,1.9,0.6,3,0.8C1005.1,560.7,1003.9,561.9,1002,563z M1067.8,582.7c-2.7,1.4-6.8-0.8-10.5-1.8c-2.7,1.4-3.4,3.8-6.7,4.1
			c-4.4-4-10.2-2.1-14.7-6.4c-0.1-1.6-0.9-3,0.4-4.9c2.5,1.8,4.5,2.1,6.5,2c0.9,1.1,2.4,2,4.8,2.6c1-1.5-0.9-2.1-2.4-2.8
			c1.1-0.1,2.3-0.3,3.6-0.3c2.8,0,5.9,1.1,8,1.1c3.4,0,6.8-1.6,9.7,0.7C1067.3,578.9,1069.6,580.3,1067.8,582.7z M1086.2,609.6
			c-0.1-0.1-0.2-0.1-0.2-0.1c0.1,0,0.2,0,0.3,0C1086.2,609.5,1086.2,609.6,1086.2,609.6z M1144.1,436.9c-0.3,0.1-0.6,0.2-0.9,0.3
			c-0.2-0.1-0.3-0.2-0.5-0.3C1143.2,436.9,1143.7,436.9,1144.1,436.9z M1116,565.4c1.4-0.3,2.2,1,3.4,1.5c-1.9,1.5-1.6,4.2,0,6
			c-1.7-0.6-3.7-1.3-5.8-1.9C1114.6,569.1,1115.4,567.2,1116,565.4z M1082.2,572.2c-0.2,0.3-0.2,0.6-0.3,0.9
			c-0.9-0.3-2.1-0.5-3.4-0.7C1079.6,572,1080.8,571.9,1082.2,572.2z M1135.9,588.5c-3,0.4-6.1,0.7-8.5,2.5c-1.7-1.1-2.8-0.7-4-0.6
			c-0.7,1-1.4,2-2,3c-1.6-0.3-3-0.2-4.4,0c-0.4,2.9-2.9,2.2-4.9,2.9c-0.3,3.6-3.6,5.1-6.6,6.1c-1.1,1.9,0.4,3.9-1.6,5.2
			c-4.7-1.1-5.7-6-8.1-9.4c2.3-3,7.9-6.4,4.7-8.8c-0.5,2.4-4.4,5.4-5.6,7.7c-0.6-0.7-1.3-1.3-2.2-1.7c-0.8-3.1-0.1-6.6-3.7-9
			c-2.5-0.2-1.8,3.5-3,3.8c-3.2-1.3-4.8-0.8-5.6-3.2c4.5-5.1-2.9-9.4-3.1-14.2c0,0,0.1,0,0.1,0c-0.1,1.1,0.4,2.1,4,2.1
			c0,1,0.2,2,0.9,2.8c0.3-1.5,1.4-3.2,1.1-4.6c3.7-0.4,6.9-2.5,11.7,0c-2.9,5.1-9.3,0.4-11.5,5.5c-1.8,4.1,6.3,7.6,11.1,5.2
			c1.4-1.3,1.3-3.2,2.4-3.6c2.2-1.7,4.8-0.2,7.5-1c2.7-0.8,4.8-2.6,6.6-4.8c3.3,1.8,5.2,4,13.2,3.2c0.5-1.2-0.2-2.2-1.6-3.1
			c0.3,0,0.6,0.1,0.9,0.1c1.3-3.1,0.2-5.6-3.7-7.5c3.8-3.3,8.9-3.3,13.9-3.3c3.2,3.3,3.5,8.5,3.9,13
			C1138.2,580.8,1139.4,583.6,1135.9,588.5z M1138.2,588.7c2-3.4,5-4.1,7.6-5.9c0.2,2.2,0.5,4.3,0.8,6.4
			C1144,588.8,1141.4,590.3,1138.2,588.7z M1264.5,615c-1.5,0.8-2.5-0.9-3.8-1.6C1261.9,612.9,1263.7,614.5,1264.5,615z
			 M1245.2,608.2c2.3-0.4,4.5-0.9,6.6-1.8c0.8,2.1,5.5,4.6,7.4,5.6c0.6,1.3-2.3,0.7-3.5,0.1c-3.7,0.1-7.3,0.8-10.8,1.6
			C1245.3,611.7,1244,610.2,1245.2,608.2z M1236.8,621.3c0.7,0.2,0.5,0.6,0.9,0.8c-3,6.8,4,16,13.1,15.8c-3.3,3.9-7.6-1.2-12.9-4
			c-5.5-3-10.1-6.5-10.3-9.9C1229.9,620.9,1234.1,623,1236.8,621.3z M1499.7,464.3c0,0.1,0,0.2,0,0.3c-0.1,0-0.1,0-0.2,0
			C1499.5,464.5,1499.6,464.4,1499.7,464.3z M1498.8,508.7c0.7,0,1.3-0.1,2-0.1c0,0.1,0,0.2,0,0.3c0.3,0.1,0.5,0,0.6-0.2
			c0.5,0,0.9,0,1.4,0c-0.4,0.3-0.8,0.7-1.1,0.9c1.1-0.2,1.1-0.5,1.7-0.6c-0.5,2.2-2.3,1.8-4.7,1.4c0.1-0.1,0.3-0.2,0.5-0.3
			C1499,509.6,1498.9,509.1,1498.8,508.7z M1496.5,512.3c1,0,2.1-0.1,3.4-0.4c0,0,0,0.1,0,0.1c0,0.1-0.1,0.2-0.1,0.3
			C1498.7,512.3,1497.6,512.4,1496.5,512.3C1496.5,512.4,1496.5,512.3,1496.5,512.3z M1487.9,528.9c-0.9,0.1-0.9-0.5-0.8-1.1
			C1487.6,528,1488,528.2,1487.9,528.9z M1485.7,473.2c0.8,0,1.8,0.1,2.2-0.2c-0.1-0.7,0-1.3,0.2-1.8c0.4,0.2,0.8,0.3,1.5,0.3
			c-0.3,1-1.5,1.6-2.6,2.2c-0.1,0-0.1,0-0.2,0c0,0,0,0,0.1,0c-0.3,0.1-0.5,0.3-0.7,0.4C1485.8,473.9,1485.4,473.8,1485.7,473.2z
			 M1478.6,467.7c0.6-0.5,0.9,1,1.1,1.5c-0.2-0.2-0.6-0.2-1.1-0.2C1478.5,468.7,1479.4,468,1478.6,467.7z M1475.1,464.2
			c0.3,0,0.5,0,0.8,0c-0.2,0.3-0.4,0.6-0.3,1.1c-0.2-0.1-0.4-0.2-0.8-0.2C1474.8,464.7,1475.1,464.6,1475.1,464.2z M1452.2,133.3
			c0.5,0.4,0.8,0.2,1.1-0.1c4.7,3,2.7,9.8-2.1,11.2c-0.2,3.4-2.6,5.1-3.9,7.9c-2.5-0.1-5-0.2-7.5-0.4c1.4-4.7,1.9-10,6.4-13.6
			c0.8-1.1,2.2,0.2,3.1-0.6C1451.5,136.1,1450.7,134,1452.2,133.3z M1449.6,439.5c0-0.4-0.3-0.7-0.7-0.8c0.8,0,1.6,0,2.5,0.1
			c0.2,0.1,0.4,0.1,0.7,0.1c0,0,0,0,0-0.1c1.1,0,2.2,0,3.5,0.1C1456.2,439.3,1453.7,439.4,1449.6,439.5z M1437.8,175.5
			c-0.6-0.2-1-0.5-1.1-0.8c-0.3-0.9,3.4-3.1,8.3-5.2c-0.9,2-2.2,4.1-4.6,5.6C1439.5,175.4,1438.6,175.5,1437.8,175.5z M1437.6,447.9
			c0-0.1,0-0.2,0-0.3c0.1,0,0.2,0,0.3,0C1438.2,447.7,1438,447.8,1437.6,447.9z M1430.9,167.7L1430.9,167.7c-2,0.3-4,0.6-6.1,0.9
			c-0.3-0.8-0.3-1.6-0.2-2.4c8.6-1.4,19.1-2.4,17.8-1.1C1441.9,165.6,1436.7,166.8,1430.9,167.7z M1432.3,174.6
			c-0.4-0.1-0.7-0.2-1-0.4C1432.2,174.1,1432.6,174.2,1432.3,174.6z M1449.4,119.3c-1.4-1.7,0.5-3.8,0.1-5.6
			C1451.1,114.6,1451.9,118.5,1449.4,119.3z M1394-85.1c1.4,0,2.5,0.7,2.5,1.6c0,0.9-1.1,1.6-2.5,1.6c-1.4,0-2.5-0.7-2.5-1.6
			C1391.5-84.4,1392.6-85.1,1394-85.1z M1257.1,74.1c32.1-2.9,110.5-2.1,98.9,1c-2.7,0.7-9.4,1.5-14.8,1.6
			c-5.4,0.2-11.6,1.2-13.7,2.2c-2.2,1.1-8.3,1.7-14.5,1.4c-5.9-0.3-10.7,0-10.7,0.6c0,0.6-6.3,1.2-14,1.4c-7.7,0.1-14-0.4-14-1.2
			c0-0.8,1.7-1.5,3.7-1.5c2,0,4.8-0.8,6.2-1.7c1.9-1.3,1.1-1.5-3.1-0.8c-3.1,0.5-7.1,0.9-8.9,0.9c-2.7,0-3,0.4-1.2,2.4h0
			c1.3,1.5,1.4,2.4,0.3,2.4c-1,0-2.5-1.2-3.4-2.8c-1.2-2.1-3.9-2.8-11.6-2.9C1241.9,76.9,1242.3,75.4,1257.1,74.1z M1331.9,97.7
			c0.7,0.2,1.5,0.3,2.2,0.5c-1.8,0.2-3,0.2-3.2,0.1C1330.9,98.2,1331.2,98,1331.9,97.7z M1261.2,109.4c0.4-0.3,4.8-1,9.8-1.5
			c5.7-0.6,7.8-0.4,5.8,0.5C1273.6,109.7,1259.8,110.6,1261.2,109.4z M1260.7,80.2c1.1-0.4,3-0.4,4.1,0c1.1,0.4,0.2,0.8-2.1,0.8
			C1260.5,81,1259.5,80.6,1260.7,80.2z M1237.9,118c1.8,0,3.7-0.7,4.2-1.6c0.6-0.9,6.7-1.6,13.7-1.6c12.7,0,39.1-4.7,44.5-7.9
			c2.1-1.3,0.8-1.5-5.4-0.7c-4.5,0.5-9.6,1.3-11.1,1.7c-1.6,0.4-2.9,0.1-2.9-0.8c0-2.1,19.6-4.1,26.1-2.7c0.1,0,0.3,0,0.4,0.1
			c-0.7,0.2-1.1,0.5-0.9,1c2.2-0.2,2,0.7,4.6,0.3c0.4-0.5,0.2-0.9-0.4-1.2c0.9,0,1.8-0.1,2.7-0.2c0.7,0.6,1.5,1.1,2.7,1.3
			c0.7-1.5,4.4-1.9,6.9-2.8c0-0.2-0.1-0.4-0.2-0.6c1.7-0.7,2.7-1.4,2.7-2.1c0-0.9,0.8-1.2,1.7-0.6c0.9,0.6,6.6,0.5,12.6-0.1
			c6-0.6,10-1.7,8.9-2.3c-1.1-0.6-5.4-0.5-9.5,0.2c-1.3,0.2-2.6,0.4-3.7,0.6c-0.7-0.2-1.4-0.5-2.1-0.8c8.8-2.7,39.6-9.7,43.7-9.7
			c4.5,0,8.8-1.5,16.2-5.6c2.5-1.4,3.1-2.3,1.6-2.3c-1.4,0-3.8-1.5-5.3-3.2c-1.6-1.8-4.1-3.2-5.7-3.2c-4.9-0.1,1-2.6,9.1-3.9
			c3.9-0.6,7-1.8,7-2.6c0-0.8,4.5-1.5,10-1.5c5.5,0,9.6-0.6,9.1-1.4c-1.3-2,8.2-3.2,32.1-4.3c2.5-0.1,5-0.2,7.6-0.4
			c-0.9,5.3-2.5,11.2-7.2,16.1c0.9,2.1-1.4,3.4-2.4,5.4c-1.7,3.5-0.8,7.4-1.9,10.9c-0.5,1.7-2.2,2-3.2,3c-4.3,4-3.6,10.3-8.7,14.5
			c-4.1,7.7-13.6,15.1-18.6,23.5l-4.5,0c-0.2-0.8,0-1.6,0.4-2.3c2.1,0.2,4,0,5.7-1.9c-0.5-1.5-2.6-1-3.8-1.8c1.6-3.2-0.5-6,3.1-9.4
			c1,0.2,0.3,2.2,1.6,1c0.7-1-0.9-1.4-0.9-1.7c3.9-6.8,13.1-11.8,14.3-19.7c1.2-0.9,3.7-1.2,3.8-2.6c-3.8-1.7-8.9,0.1-11.2,1.9
			c-7.2,5.5-8.7,17.6-16.3,21.3c-0.8,0.9,1.3,1.4,0.4,2.3c-3.3,3.1-6.2,7.1-8,10.5c-0.3,0.6-0.7,1.3-1.1,1.9
			c-1.2-0.2-1.9-0.5-1.9-0.7c0.7-4.5-0.5-5.2-6.8-4.2c-0.4,0.1-0.8,0.1-1.2,0.2c0.1-1.9-0.7-3.4-3.9-3.8c-1.3,0.4-2.1,1.3-2.9,2.4
			c-1.4-0.2-3.8-0.1-6.8,0.2c-6.2,0.8-8.3,0.5-8.3-1c0-1.1-0.9-1.8-2.1-1.4c-1.1,0.4-9.1,1-17.8,1.5c-8.7,0.5-21,1.6-27.5,2.5
			c-9.3,1.3-12.7,1.2-16.1-0.6c-4.2-2.1-4.1-2.2,4.4-3.1c4.8-0.5,16.5-2.4,26.1-4.2c9.5-1.8,20.4-3.3,24.1-3.3
			c3.7,0,10.4-1.1,14.9-2.4c4.5-1.3,9.7-2.4,11.7-2.4c5.1,0,12-3.3,12-5.8c0-3.4-2.6-3.9-11.8-2.1c-4.9,1-10.6,1.7-12.7,1.6
			c-2.1-0.1-5.1,0.5-6.7,1.3c-1.6,0.8-7.6,1.9-13.5,2.5c-5.9,0.6-13.9,1.7-17.9,2.6c-4.9,1-7.8,1-9-0.1c-0.2-0.2-0.6-0.4-1-0.6
			c0.6,0,1.3,0,1.9,0c0.1-0.7,2.4-0.8,1.9-1.6c-1.2,0-2.5,0-3.7,0c-0.1,0.5-1.3,0.7-1.7,1c-1-0.2-2.1-0.3-3.2-0.3
			c-3.9,0.2-3.9,0.3,0.7,1.3c8.1,1.8-22.3,5.2-48.4,5.5c-12.4,0.1-23,0.7-23.4,1.2c-1.4,1.7-14.9,2.8-14.9,1.3
			C1234.7,118.7,1236.1,118,1237.9,118z M1423.7,166.4c-0.2,0.3-0.5,0.5-0.7,0.8c-0.3-0.2-0.6-0.4-0.9-0.5
			C1422.6,166.5,1423.2,166.4,1423.7,166.4C1423.7,166.3,1423.7,166.4,1423.7,166.4z M1421.8,153.1c-0.6,0.1-1.4,0.1-2.2,0.1
			c0.7-0.7,1.4-1.4,2.1-2.1C1421.6,151.8,1421.7,152.4,1421.8,153.1z M1402.3,430.5c2.7-0.7,6.1-0.7,9.6-0.6c0.5,0,1,0.1,1.6,0.1
			c-1.9,0.7-7.9,1.1,2.2,1.3c-1.2,0.2-2.3,0.3-2.2,0.6h-11c-0.5-0.2-1.8-0.4-2.8-0.5c0.4-0.2,0.8-0.4,1.3-0.6h6
			C1405.1,430.7,1403.6,430.6,1402.3,430.5z M1415.5,134.7c-1,0.1-1.7-0.1-2.3-0.6l3.3-1.4C1416.2,133.4,1415.8,134.1,1415.5,134.7z
			 M1391.5,172.1c-0.4,0-0.7,0-1,0c0.3-0.4,0.7-0.7,1-1.1c0.7,0,1.5,0.1,2.1,0.3C1394.7,171.8,1393.8,172.1,1391.5,172.1z
			 M1393.2,428.5c-0.4,0-0.8,0.1-1.2,0.1c-0.2,0-0.3-0.1-0.4-0.1C1392.1,428.5,1392.6,428.5,1393.2,428.5z M1412.2,455.9
			c-0.3,0-0.6,0-0.9,0c-0.1,0-0.2,0-0.2,0c0,0,0,0,0,0c-0.4,0-0.7,0-1.1,0c0-0.4,0-0.7-0.3-0.9c-0.5,0-0.9,0-1.1,0.2
			c-0.2,0.5,0,0.7,0.3,0.8c-1.2,0.1-2.4,0.1-3.5,0.2c0,0-0.1,0-0.1-0.1c-0.7-1,2.4-1.8,3-1.7c0-0.1,0-0.2,0-0.2
			c1.4,0.1,2.9,0.2,4.5,0.3C1412.4,454.9,1411.9,455.3,1412.2,455.9z M1408.9,462.6c-0.5,0.2-1,0.3-1.5,0.5
			c-0.3-0.2-0.5-0.4-0.4-0.9c0.4,0,0.8,0,1.1,0c0,0.1-0.1,0.1-0.1,0.2C1408.5,462.7,1408.7,462.5,1408.9,462.6z M1408.2,462.1
			c-0.4,0-0.8,0.1-1.2,0.1c0-0.2,0.1-0.5,0.3-0.8c-0.2-0.5-1.1-0.4-0.8-1.3c0.5,0,1,0,1.4,0c0,0.1-0.1,0.1-0.1,0.2
			c-0.1,0.6,1.8-0.3,1.4,0.7C1408.7,461.1,1408.4,461.5,1408.2,462.1z M1406.6,458.8c0.4-0.2,0.7-0.5,0.8-0.9
			c1.1,0.1,2.2,0.1,3.3,0.2c0,0,0,0.1,0,0.1C1408.7,458.3,1407.6,458.5,1406.6,458.8z M1411.7,505.9c-0.1,0.1-0.2,0.3-0.2,0.5
			c-0.2,0-0.3,0-0.5,0c-0.1-0.1-0.3-0.1-0.4-0.2c-0.1-0.1-0.2-0.2-0.4-0.3C1410.5,505.5,1411,506.1,1411.7,505.9z M1411.4,460.3
			c-0.1,0-0.1-0.1-0.2-0.2c0.3,0,0.7,0,1,0C1412.1,460.2,1411.8,460.3,1411.4,460.3z M1406,496.2c-0.5-0.1-0.6-0.4-0.6-0.9
			C1406,495.5,1406.5,495.8,1406,496.2z M1404.9,455.7c-0.4,0.2-0.9,0.3-1.1,0.6c-0.7,0-1.3,0.1-2,0.1c1.1-1,1.7-1.9,1.9-2.8
			c1.2-0.1,2.5-0.2,3.8-0.3c-0.2,0.2-0.1,0.5-0.2,0.7c-0.1,0-0.2,0-0.3,0c0.1,0,0.1,0,0.2,0c0,0-0.1,0.1-0.2,0.1
			c-0.3-0.3-0.9-0.4-1.6-0.4c0.4,0.8-0.9,0.1-0.8,0.7C1405.2,454.4,1404.7,455.3,1404.9,455.7z M1407.8,449.9c-1.1,0-2.2,0-3.3,0
			c-0.1-0.3-0.3-0.4-0.7-0.4c0,0.1,0,0.3,0,0.4c-0.5,0-1,0-1.6,0c-0.4-0.4-0.7-0.7-1.2-1.1c2.5,0.1,5,0.1,7.4,0.2
			C1408.1,449.3,1407.8,449.6,1407.8,449.9z M1404.6,457.8c0.2,0.5,0.4,1,1.3,1.1c-0.4,0.1-0.7,0.2-1.1,0.3c-11,0-13-0.5-19.9-0.4
			c-0.7-0.7,2.5-1.7-4.4-1.7c-1.7,0.1-1.3,0.4-0.7,0.8c-0.5-0.1-0.9-0.3-1.1-0.6c-2.5,0.3-3.5,1.1-4.2,2c-6.6-0.2-14.1-0.1-22.6-0.1
			c-0.1-1.2,1.8-1.7,1.9-2.9c-1.5,0.2-3.1,0.4-4.6,0.7c0,0.1,0.1,0.2,0.1,0.2c-10.4-0.5-27.3-1.2-24.2,0.3h-11
			c-0.6,0.3-2.1,0.6-4.2,0.8c1.1-0.5,2.1-1,3.2-1.5c5.2-0.3,9-0.7,9.9-1.3c-2.3-0.1-4.6-0.1-7-0.1c0.4-0.2,0.7-0.4,1.1-0.5
			c3.2,0,6.8,0,10.3,0c0.7,0.5,2.2,0.9,6.6,1.1c14.5,0.1,6.7-1.2,13.3-1.5c8.1-0.2,1,1,11.1,0.6c-0.4,0.3-4,0.2-6.6,0.2
			c1.1,0.7,14.4,1,19.9,0.6c2.3-0.1-1.9-1.2,2.2-1.7c2.9,0.2,2.8,0.7,6.6,0.9c0.2,0,0.4,0,0.7,0c0,0.3,0.1,0.6,0.3,0.9
			c2.3,0.6,4.7,1,7.3,1.2c0.1,0.1,0.4,0.2,0.8,0.3c0.1,0,0.1-0.1,0.1-0.2c2,0.1,4,0.2,6.2,0C1398,457.5,1401.3,457.7,1404.6,457.8z
			 M1404.6,462.7c-1.2-0.6-0.6,0.8-1.4,1.1c-1,0.3-2.2-0.4-2.5,0c0.6,0,0.6,0.5,0.6,1c-0.3,0-0.5,0.1-0.8,0.1
			c-0.8-0.2-1.6-0.4-2.5-0.5c0,0.1,0,0.3,0,0.4c-0.2,0-0.3,0-0.3,0.2c0.4,0,0.8,0,1.1,0.1c-0.8,0.1-1.6,0.1-2.5,0.1
			c0-0.1,0-0.1,0.1-0.2c-0.9-0.2-2.3-0.4-3.2-0.3c-0.4-0.1-0.9-0.2-1.3-0.3c-1.8,0.7-1.2,1.1-0.5,1.6c-0.8,0.2-0.4,0.3,0.6,0.4
			c0.7,0.5,1.3,1-0.1,1.7c-2.8,0.2-4,0.9-5.4,1.5c0,0,0.1-0.1,0-0.1c-0.2,0-0.4,0-0.5,0c0,0.2-0.1,0.3-0.2,0.4
			c-1,0.4-2.2,0.6-4.2,0.6c-0.7-1.6-0.5-2.9,0.4-3.9c0.6,0,0.8-0.1,0.6-0.1c-0.2,0-0.3,0-0.5,0c1.3-1.3,3.8-2.2,7.8-2.6
			c-0.2-1.4-2.1-1.3-2.7-2.3c-1.3,0.8-0.7,2.2-3.8,2.4c0-0.4,0.2-0.7,0.4-1c0.1,0.7,1.7,0.6,1.3-0.4c-0.4,0-0.7,0-1,0.1
			c0.5-0.5,1-0.9,1.2-1.4c7.4-0.1-0.9-0.9,3.9-1.3c1.5,0.1,3.1,0.1,4.8,0.2c-0.2,0.1-0.4,0.1-0.7,0.3c0.4,1.2,2.8,1.6,3,0.2
			c-0.5-0.2-0.9-0.4-1.3-0.5c0.8,0,1.7,0,2.5,0c-0.4,0.1-0.6,0.8,0.4,0.6c0-0.1,0-0.3,0-0.4c-0.1-0.2-0.3-0.2-0.4-0.2
			c0.7,0,1.3,0,2,0c0,0.1,0,0.3,0,0.4c1.6,0.3,2.6,1.1,2.7-0.4c0,0,0.1,0,0.1,0c0.4,0.4,1.2,1.1,1.8,0.6c-0.1-0.3-0.3-0.4-0.4-0.6
			c0.3,0,0.6,0,0.9,0c-0.1,0-0.1,0.1-0.2,0.1c-0.1,0.4,0.4,0.4,0.6,0.7c-0.4,0.1-0.5,0.3-1.1,0.2
			C1404.2,462,1404.1,462,1404.6,462.7z M1402.4,493.8C1401,494.6,1400.9,493.2,1402.4,493.8L1402.4,493.8z M1405.1,499.1
			C1405.3,498.2,1405.4,501.5,1405.1,499.1L1405.1,499.1z M1329.6,457c7-0.1,9.9,0.2,8.9,0.9c5-0.1,6.3-0.5,11-0.6
			c0.2,0.4,0.4,0.9,0.6,1.3c0.1,0.2,0.3,0.4,0.5,0.5c-7.7,0-16,0-25.3-0.4C1335.2,458.1,1325,458,1329.6,457z M1328.4,454
			c-0.3,0-0.6,0-0.9,0c-2.1-0.5-3.6-0.7-6.2-1c0.4-0.2,0.9-0.3,1.3-0.5c2.5,0.1,4.1,0.3,5.7,0.5
			C1328.2,453.4,1328.2,453.7,1328.4,454z M1316.4,448.2c0.1,1.1,5,1.8,8.8,2.6c-1.2,0-2.3,0-3.2,0c0,0,0,0,0,0
			c-1.8-0.3-3.5-0.4-5-0.3c-2.2-0.4-2.4-1-6.9-1.1c0.5-0.3,0.8-0.6,1.1-1C1312.9,448.3,1314.6,448.3,1316.4,448.2z M1312.1,444.9
			c0.1-0.3,0.2-0.6,0.3-0.9c4.4,0.7,9.4,0.7,14.2,1C1321.7,444.9,1316.8,444.9,1312.1,444.9z M1329.5,443.2
			c7.4,0.3,15.1,0.4,24.4,0.1c4.9,0.5-5.6,0.7-2.2,1.7c-7.8,0-15.1,0-22.3,0C1330.2,444.3,1329.9,443.7,1329.5,443.2z M1364.3,432.4
			c0.1,0.2,0.2,0.3,0.3,0.5c-4.8,0.2-13.5-0.4-10.6-1.2C1360.1,431.7,1361.1,432.2,1364.3,432.4z M1362.2,429.6
			c0.3,0,0.5-0.1,0.8-0.1c0.6,0,1.1-0.1,1.5-0.1c0,0.1-0.1,0.2-0.1,0.2C1363.7,429.6,1362.9,429.6,1362.2,429.6z M1349.3,454
			c-4.4-0.1-8.3-0.1-12.2-0.1c0.3-0.1,0.5-0.2,0.8-0.3c3.1-0.1,2-0.2,1.1-0.5c0.1-0.1,0.2-0.1,0.3-0.2c0,0,0-0.1-0.1-0.1h12.5v0
			c-4.8,0.4,1.1,0.6,0,1.3c-0.4,0-0.7,0-1.1,0c-0.1-0.6-1.1-0.9-1.6-0.5C1349.1,453.8,1349.2,453.9,1349.3,454z M1340.7,448.7
			c5.1-0.1,8.5,0,11,0.2C1351.5,449.5,1338.6,449.5,1340.7,448.7z M1376.1,450.2c2.5-0.4,4.6-0.9,6.3-1.4c0,0.4-0.1,0.9-0.2,1.3
			C1380.2,450.1,1378.2,450.1,1376.1,450.2z M1384,153.3c0.5-0.7,2.1-0.9,3.5-0.6c-0.4,0.7-0.7,1.4-1,2.1
			C1384.6,154.8,1383.5,154.1,1384,153.3z M1391.5,133.9c0-0.1,0.1-0.2,0.1-0.3c-0.3-0.5-0.7-0.7-1.1-0.9c0.9-0.2,1.9,0,2.3,0.4v0
			C1393.2,133.5,1392.6,133.8,1391.5,133.9z M1293.6,458.8c-4.2,0-8.8,0-13.4,0c-0.7-0.7-1.8-1-2.5-1.7c2.4,0.1,5.3,0.2,8.5,0.2
			c0.2,0,0.4,0,0.7,0c2.8,0,5.8,0,8.8,0c-0.9,0.2-1.9,0.4-3,0.5C1293,458.1,1293.3,458.5,1293.6,458.8z M1256.8,444.2
			c-1.9-0.1-3.7-0.2-5.5-0.2c-0.6-0.2-1.1-0.4-1.7-0.5c0.2,0,0.4-0.1,0.6-0.1c-0.4,0-0.7,0-1,0c-0.2-0.1-0.4-0.1-0.6-0.2
			c0.2-0.3,0.5-0.5,0.8-0.7c7.8,0.1,14.3,0,9.7,0.7c5.7-0.3,11.6-0.3,17.5-0.2c0.7,0.4,1.4,0.9,1.9,1.4c2.7-0.2,5.4-0.7,8-1.3
			c2.6,0,5.3,0.1,7.9,0.1c-0.9,0.5-1.6,1-1.9,1.7c-12.9,0-25.1,0.1-37,0.8c-0.1,0-0.2-0.1-0.3-0.1
			C1257.1,445,1253.6,444.6,1256.8,444.2z M1242.9,131c0-1.1,3.1-1.9,7.8-2c4.3-0.1,11.6-0.4,16.1-0.8c6.1-0.5,7.5-0.2,5.4,1
			c-0.3,0.2-0.6,0.3-1,0.5c-1.2-0.2-2.4-0.2-3.5,0c-0.7,0.3-1.4,0.8-2,1.2C1256.9,132.3,1242.9,132.7,1242.9,131z M1256,441.3
			c1.3,0,2.6-0.1,3.6-0.2c1.2,0.2,0.9,0.5,3.7,0.5C1268.7,441.9,1256.7,441.8,1256,441.3z M1252.3,441.5v0.1c-0.3,0-0.5,0-0.8,0
			C1251.8,441.6,1252,441.5,1252.3,441.5z M1282.2,126.5c1.2-0.5,2.6-0.4,3.2,0.1c0.5,0.5-0.4,0.9-2.2,0.8
			C1281.3,127.4,1280.9,127,1282.2,126.5z M1293.7,441.1c0.3-0.1,0.6-0.2,1-0.2C1294.8,440.9,1294.4,441,1293.7,441.1z
			 M1304.7,450.1c-1.8,0.5-3.2,1-10.4,1c-0.7,0-1.3,0-1.8,0c0-0.6-0.2-1.3-0.5-2c0.9,0,1.8-0.1,2.7-0.1
			C1297.1,450.6,1300.2,450,1304.7,450.1z M1262.6,459.8c0.3,0.4,0.6,0.8,1,1.1c-2.3,0-3.9,0.1-5.6,0.1c-0.4-0.4-0.8-0.9-1.2-1.3
			C1258.6,459.8,1260.5,459.8,1262.6,459.8z M1256.1,458.9c-0.2-0.2-0.3-0.3-0.5-0.5c0.4,0,0.8,0.1,1.2,0.1
			C1257.7,458.8,1257.1,458.9,1256.1,458.9z M1262.4,458.4c-0.6-0.1-1.2-0.2-1.3-0.3c6-0.5,2.5-1.9,8.9-2.4c1.5,0,2.7,0,3.7,0
			C1269.2,456.4,1266.4,457.6,1262.4,458.4z M1261.2,454.7c-1.9-0.7,3.5-0.7,4.4-1.1c-2.8-0.3-5.7-0.2-8.8-0.2c0-0.2,0-0.3-0.1-0.5
			c2.4-0.9,4.4-1.9,6.4-2.9c-0.9-0.7-1.8-1.3-2.8-1.9c1.6,0.2,2.9,0.5,3,0.9c10.2,0.2,17.5,0.2,23.9,0c-1.1,0.4-2.2,0.9-3,1.4
			c-6.6,0.3-12.5,0.6-14.2,1.4c0.4,0.2,2.2,0.2,2.2,0.4c3.4,0,6.6,0.1,9.9,0.1c-0.5,0.9-0.7,1.9-0.2,3
			C1274.7,455.4,1267.7,455.2,1261.2,454.7z M1285.5,456c-1.3,0.4-5.8,0.5-8,0.9c-0.2-0.3-0.4-0.6-0.4-1
			C1279.2,456,1281.4,456.1,1285.5,456z M1284,455.5c1.4-0.1,2.6-0.3,3.7-0.5c3.7,0,6.2-0.1,6.6-0.4c-1.1-0.1-3.1-0.2-4.8-0.1
			c0.4-0.2,0.8-0.3,1.1-0.5c3.9,0,6.7-0.2,8.2-0.4c-2.7-0.1-4.7-0.2-7.1-0.4c0.2-0.2,0.4-0.4,0.5-0.6c5,0,10.4,0,16.6,0.1
			c-2.2,0.9-4.4,2-6.8,2.9C1296,455.4,1290,455.5,1284,455.5z M1369.7,107.3c1.2-0.5,2.6-0.4,3.2,0.1c0.5,0.5-0.4,0.9-2.2,0.8
			C1368.8,108.2,1368.4,107.8,1369.7,107.3z M1236.8,439.9c-5.1-0.2-9.2-0.7-13.6-1.1c0.4-0.3,0.9-0.5,1.3-0.8
			C1233,438.3,1240.4,439.2,1236.8,439.9z M1221.6,119c4-0.1,6.8,0,7.6,0.4c2.8,1.6,2.8,1.7-0.3,1.9c-1.8,0.1-4.8,0.5-6.6,0.8
			c-0.3,0.1-0.7,0.1-1.1,0.2C1221.4,121.2,1221.5,120.1,1221.6,119z M1218.4,440.6c7.8,0.2,16.4,0.2,25.6,0.1c0.4,0.4,0.9,0.7,1.4,1
			c-4.2-0.1-7.6-0.4-13-0.6c1.2,0.8,7.6,1.1,14,1.2c0.1,0,0.1,0.1,0.2,0.1c-0.1,0.2-0.3,0.3-0.4,0.5c-0.4-0.1-0.9-0.3-2.7-0.3
			c-1.3,0.3,0.3,0.6,2.3,0.8c-0.1,0.1-0.2,0.2-0.3,0.4c-7.5-0.1-15.4,0.1-26.3-0.1c-2.7-0.6-0.6-0.7,2.2-1.3c6.3,0,9.2,0.4,15.5,0.4
			c0.7-0.4-10.7-1.4-17.6-1.7c-8.7,0-6.8,0.9-15.5,0.4c4.2-0.8-3.2-1.3-4.4-2.1c4.6,0.6,10,0.9,15.9,1.1c0,0,0,0.1,0,0.1
			C1216.3,440.8,1217.4,440.8,1218.4,440.6z M1242.4,479.5c0.5,1.6-4.9,1.3-5.3,2.6c-0.1,0.9,1.1,2.2,1.7,3.4c-3.5,0-7,0-10.2-0.1
			c3-0.9,5.6-2.1,7-3.1c-6.3,1.4-8.7-1-12.6-1.9c0-0.8-0.6-1.5-2.3-1.7c-0.3,0.4-1.3,0.9-2.1,1.5c-0.4,0-0.9,0.1-1.3,0.2
			c-2.6-0.4-5.3-0.7-7.9-1.4c-1.6-2.4,4.4-5.2,2.8-7.8c-0.8-0.4-1.5-0.7-2.2-0.9c2.1-0.6,4.4-0.3,6.9,0.3c0,0.1,0,0.2,0,0.3
			c0.7,0.3,1.5,0.3,2.2,0.3c6.6,2,14.4,5.3,23.9,2.1c-2.7,1.2-3.3,3.1-6.1,4.2C1236.6,480.1,1240.5,478.8,1242.4,479.5z M1209.4,467
			c1.1,0,2.1,0,3.1,0c0.1,0.9-2.9,2.2-3.4,3.2c-1.2-0.3-2.3-0.6-3.6-1.3c1.3-0.4,4.2-0.2,4.1-1.7C1209.5,467,1209.4,467,1209.4,467z
			 M1212.5,461.8c0.3,0,0.6-0.1,0.9-0.1c-0.1,0.1-0.2,0.1-0.3,0.2C1212.9,461.8,1212.7,461.8,1212.5,461.8z M1216.3,453.4
			c0.1-0.1,0.2-0.3,0.3-0.4c2.4-0.2,6.7,0,9.3,0.2C1226.1,453.6,1220,453.4,1216.3,453.4z M1227,454.3c0.1,0,0.2,0,0.2,0
			C1227.2,454.2,1227.1,454.3,1227,454.3C1227.1,454.3,1227,454.3,1227,454.3z M1227.7,454c0.2-0.1,0.3-0.2,0.3-0.4
			c0.2,0,0.4,0,0.6,0C1228.3,453.8,1228,453.9,1227.7,454z M1242.3,446.7c-0.9-0.1-1.9-0.1-3.3-0.1c0.7-0.2,2-0.2,3.6-0.2
			C1242.6,446.5,1242.4,446.6,1242.3,446.7z M1223.6,445.9c0.9-0.5-4-0.5-2.2-1.1c5.3,0.8,11,0.4,22.8,0.4c-0.2,0.1-0.3,0.3-0.5,0.4
			C1238.4,445.9,1231.8,445.6,1223.6,445.9z M1203.7,442.7c-4.2,0.6-7.9,1.3-18,1.3c2.4-0.4,4.7-1.3,6-2.7
			C1196.3,441.5,1198.9,442.5,1203.7,442.7z M1192.6,437.9c2.4,0.1,5.4,0.2,8.9,0.3c-1.5,0.2-5.4,0.3-8.7,0.2
			C1192.7,438.2,1192.6,438,1192.6,437.9z M1217,445.7c7.1,1.5-14.2,1.5-22.1,0.9C1203.8,446.4,1207.8,445.8,1217,445.7z
			 M1217,445.2c-3-0.1-1.8-0.5-2.2-0.9h8.8C1224.3,445,1215.1,444.6,1217,445.2z M1216.4,437.8c-0.2,0.2-0.4,0.4-0.5,0.6
			c-2.9,0-6.1,0-9.9,0.3C1207.4,438.1,1211.6,437.9,1216.4,437.8z M1191.3,73.7c2-0.4,5.4-0.4,7.4,0c2,0.4,0.4,0.7-3.7,0.7
			S1189.3,74.1,1191.3,73.7z M1184,122.7c5.3-1,15.5-2.2,24.8-2.9c0,0,0,0.1,0,0.1c-0.1,1.2-0.3,2.4-0.5,3.5
			c-8.7,0.5-18.9,0.9-24.3,0.8V122.7z M1190.4,447.4c12.3,0.9,20.1-0.3,37.6-0.4c2.7,0.5,8.3,0.6,8.8,1.3c1.1,0,2.1,0,3,0
			c-1,0.6-2,1.1-3.1,1.7c0.1-0.1,0.1-0.2,0-0.4c-4.4,0-8.7,0.1-13.1,0.1c-0.3,1.3,4.2,1.2,5.7,2.1c-1.5-1.5,4.6-1,6.8-1.5
			c-1.4,0.7-2.8,1.3-4.3,2c-3.9-0.4-7.1-1.1-10.5-1.6c-4.1-0.2-4,0.1-4.6,0.3c-2.5-2-5.7-1.1-8.3-0.3c-0.3,0.1-0.6,0.2-0.8,0.3
			c-4.4-0.3-4.2-1-1.7-1.6c4.5-0.5,8.8,0.3,13.3-0.2c-0.3-0.5-3.2-0.8-8.8-0.9c-8.9,0.5-16.3,2.5-28.8,1.3
			C1189.3,449.8,1182.8,447.7,1190.4,447.4z M1191.5,479.9c-1.9,0-3.8-0.1-5.7-0.1c-0.2-2.4-1.3-4.7-3-6.3c0.6-0.8,1.5-1.5,2.6-2
			c0.9-0.1,1.9-0.1,3-0.3c0.3-0.1,0.4-0.3,0.5-0.4c1.7,0.1,3.2,0.7,3.9,2.3C1191.1,475.4,1190.8,477.8,1191.5,479.9z M1189.3,484
			c-1.7,0.3-3.3,0.7-4.9,1.1c0.7-0.9,1.1-1.8,1.3-2.8c1.5-0.2,3.1-0.4,4.8-0.5C1187.1,483.2,1187.6,483.6,1189.3,484z M1173.9,479.2
			c-1.4-0.1-2.7-0.4-4-0.6c0.9-0.4,1.8-0.8,2.8-0.9C1173.2,478.1,1173.6,478.6,1173.9,479.2z M1170.6,437.5c-2.6,0-1.9-0.4-2.2-0.6
			c-0.7,0-1.3,0-1.8,0.1c-0.2-0.2-0.3-0.3-0.5-0.4C1171.1,436.7,1175.4,437.1,1170.6,437.5z M1154,444.9c0.6-1,1.4-1.6,2.3-2.1
			c1,0,2,0,3.2,0.1c-0.6,0.5,0.5,0.8,4.4,0.9c-1.9,1.1-13.1,0-6.6,1.3c-1.1,0-2.1,0-3.1,0C1154.1,445,1154,445,1154,444.9z
			 M1161.2,593.6c-1.9-0.4-3.9-0.2-5.8-0.2c-0.2-0.4-0.4-0.8-0.4-1.2c-0.1-1.5-0.2-3.1-0.3-4.7c1.6,1.1,2.4,2.4,2.8,3.8
			c2.9,0.8,4.8-1.3,7.9-0.1c-0.2,1.7-0.7,3.5,0.6,4.9C1164.5,596.9,1162.1,594.4,1161.2,593.6z M1182.2,511.9
			c-0.8-2.9,7.7,1.3,7.3-2C1196.4,511.1,1183.7,513.3,1182.2,511.9z M1196.2,516.3c0.1-0.1,0.2-0.2,0.3-0.3
			c-1.1-1.6-3.2-0.9-3.4,0.7c-0.1,0-0.3,0-0.4,0.1c-0.3-1.5,1.7-2.3,5.1-2.5c-0.1,0.2-0.3,0.3-0.4,0.6c0.1,0.4,0.3,0.8,0.7,1.1
			C1197.5,516.1,1196.9,516.2,1196.2,516.3z M1229.9,497.7c-0.7,0.7-1.7,1.3-1.5,2.2c3.3,0.3,4.3-0.9,4.3-2.1c2.4,0,4.9,0,7.3,0
			c-1.7,0.9-3.2,2.4-4.1,3.1c0.9,0.4,1.7,0.8,2.6,1.1c-8,3.3-16.6,5.3-22.7,1.5c-8.8,2-18.6,1.2-23.8,3.4c-0.6-0.2-1.2-0.4-1.8-0.6
			c0.4-0.4,0.7-0.7,0.3-1.1c-0.7,0.2-1.5,0.5-2.3,0.7c-1.5-0.2-2.9,0.1-4.1,1.1c-2.1,0.5-4.3,0.8-6.6,1.1c0.1-0.2,0.2-0.3,0.3-0.5
			c-0.9-1.4-3.6-1.6-4.4,0c0.2,0.3,0.6,0.6,1,0.8c-1.7,0.1-3.4,0.2-5.2,0.1c-0.5-2-0.8-4-0.8-5.5c8.2,0.9,15.4,1.8,24.3,2
			c5.4-1.2,23.4-3.3,14.9-4.9c-1.4,0.1-2.7,0.2-4.1,0.3c2.7-2.6-1.3-6.8-3.3-7.1c0.9,2.7-0.3,4.9-1.2,7.2
			c-7.1,0.1-13.7-0.6-19.8-1.4c1.3-0.4,2.5-1,3.7-1.4c-2-0.5-4-1.1-5.2,0.5c0.4,0.3,0.5,0.6,0.9,0.8c-2.4-0.3-4.8-0.7-7.1-1.1
			c0.1-0.1,0.2-0.2,0.2-0.3c-2.4-3.9-5.3-7.7-8.7-11.4c1.5-0.2,2.9-0.4,4.3-0.6c1.2,0,2.3-0.2,3.3-0.6c1.5-0.3,2.9-0.6,4.3-0.9
			c-0.1,0.3-0.1,0.7-0.2,1c1,1,2.3,1.5,3.6,1.7c-1.3,0.5-2.6,0.9-3.9,1.4c0.6,3.4,3,5.5,6.2,6.6c-0.1,0.4-0.3,0.8-0.3,1.3
			c1.3-0.1,2.5-0.3,3.7-0.5c8.7,1.3,20.1-2.5,19.4-7.1c0.1,0,0.1,0,0.1,0c0.9,0.5,1.9,0.6,3,0.4c13.3,1.6,28.9,2.6,36.3,5.9
			c-6.5,0.5-17.9-0.3-22.5,1.8C1223.3,497.3,1226.5,497.5,1229.9,497.7z M1243.5,499.7L1243.5,499.7c-0.1-0.9,1.1-1.3,1.2-2.2
			c1.3-0.1,2.6-0.1,3.8-0.2C1246.9,498.1,1245.2,498.9,1243.5,499.7z M1279.3,494.2c-0.2,0-0.3-0.1-0.6-0.1c0,0.1,0,0.2-0.1,0.2
			c-0.6,0.1-1.2,0.3-1.9,0.4c-3.3,0.1-9.5-0.5-9.3,0.6c1.6,0,3,0.2,4.3,0.3c-5.7,0.7-11.1,0.6-16.2-1.5c-0.4,0.2-0.9,0.4-1.4,0.6
			c-2.1-0.2-3.9-0.5-3.6-1.3c9.6-0.4,17.8-1.2,20.6-3.4c-0.1-0.6-0.5-1.2-1-1.6c0.9,0.2,1.8,0.3,2.6,0.5c5.2-0.2,6.9-1.6,10.3-2.4
			c2.7,1.1,5.4,2.3,5.8,5.5C1285.5,492.8,1282.3,493.6,1279.3,494.2z M1265.1,486.4c0.1-0.1,0.2-0.1,0.3-0.2
			c0.1,0.1,0.2,0.2,0.2,0.3C1265.4,486.5,1265.3,486.5,1265.1,486.4z M1304.9,491.6c-3.2-1-10.9,2.1-11.9-1c3-0.4,6.1-0.9,9.2-1.3
			c-1.3-3.6-8.7-1.6-9.2-6c-4.6-0.1-3.4,1.8-7.3,2c-2.1-2-5.6-2.7-9-3.4c0-0.1,0.1-0.2,0-0.4c-1.5-0.6-2.8-0.7-4-0.5
			c-0.2,0-0.3-0.1-0.5-0.1c-2.5,0.5-4.3,1.3-5.5,2.2c-0.1,0.1-0.3,0.1-0.4,0.2c-1.6-0.8-2.5,0-4-0.6c-0.6,0.3-1.2,0.5-1.8,0.7
			c-4.1-1-11.9,1.4-12.8-2.7c13.1-0.2,12.2-5.1,15.6-8.6c-0.6-3.2-6.4-1.3-6.9-4.5c0.2-0.1,0.4-0.2,0.6-0.3
			c5.1,0.1,11.8-0.1,10.8-0.9c-2.4-0.2-5.9-0.3-8.9-0.2c0.3-0.3,0.5-0.6,0.7-0.9c5.1,0,12.2,0.2,10.5-0.4c-2.7-0.2-7.2-0.4-10.3-0.4
			c0-0.4,0-0.8-0.2-1.2c2.5,0,5.3,0,8.4,0c2.7,0.2,5,0.3,6.5-0.3c-0.4-0.1-1.4-0.2-2.5-0.2c0-0.1,0.1-0.2,0.3-0.3
			c0.7,0,1.5-0.1,2.2-0.2c2.7,0.7,9.6,0.9,11,1.7c9.4-0.1,18.6-1.6,26.5-0.4c4.7-0.8-0.2-1-4.4-1.5c5,0.1,8.3-0.1,8.8-0.4
			c-6.6,0.1-12.6,0-18.4-0.1c-0.4-0.5-1.3-0.5-1.7,0c-6.3-0.1-12.3-0.2-18.6,0.1c1.1-0.3,2.2-0.7,3-1.1c0-0.2-0.1-0.4-0.1-0.6
			c4.6,0,9.4-0.1,14.1-0.1c3,2,7,1.6,11.2,0.1c4.6,0.1,8.9,0.3,12.6,0.6c2.5-0.9,12.3-0.5,13.3-1.1c16.6,0.6,25.2,0.8,42.2,0.7
			c-0.3,0.6-0.7,1.2-1.3,1.7c-2.1,0-4.5,0.1-5.6,0.4c1.9,0,3.5,0,5,0c-0.4,0.3-0.9,0.5-1.6,0.6c-0.8,0.1-1.3,0.2-1.2,0.4
			c0.4,0,0.7,0,1,0c2.1,1.1,7.4-0.9,7.3,2.3c-0.2,0.1-0.5,0.3-0.8,0.4c-0.8,0-1.7,0-3.1,0.1c-0.8,0.2,0.4,0.3,2.1,0.4
			c-4.6,2-12.9,3.4-15.8-0.2c-17.1,2.9-52.3-0.1-61.5,11.6c1.5,2.6,8.3,0.3,13,0c-0.8,2.7-1.8,4.8,1.6,7.1
			C1310.2,487,1301.5,487.3,1304.9,491.6z M1333.6,493.8c2.8-2.3,7.6,1,11.9,1C1343.9,497.1,1333.1,497.7,1333.6,493.8z
			 M1356.2,493.3c-1.2-2.2-4-2.9-7.9-2.6c0-0.1,0-0.1,0-0.2c-0.5,0-0.8,0.1-0.9,0.2c-1.5,0.2-3.2,0.5-5,0.9c-0.3-5.5,9.1-1,13-3.7
			c1.6,3.9,8.5,3.4,12.3,1.9C1366.3,493.4,1362.9,492.5,1356.2,493.3z M1395.3,498.4c1.2,0.1,1.6,0.3,2.5-0.2c0,0.9,1.3,0.7,1.4,1.5
			c-0.4-0.1-0.7,0-1,0.1c-6.7,0.4-11.9-0.5-16.9-1.8c0.2-0.3,0.3-0.7,0.1-0.8c-0.3,0.1-0.6,0.4-0.7,0.6c-2.9-0.7-5.8-1.6-8.7-2.3
			c-0.4-1-0.2-1.7,0.3-2.4c0.1,0,0.3,0,0.4-0.1c0-0.1,0-0.2,0-0.3c0.9-0.9,2.3-1.6,3.5-2.4c-0.8-1.7-4.7-0.5-4.6-3
			c-5.6,0.4-14.1,3.5-14.9-0.6c2.4-0.1,4-0.4,5.4-0.9c0,0.1-0.1,0.1-0.2,0.1c0,0.1,0,0.3,0,0.4c0.2,0,0.3,0,0.3,0.2
			c0.2,0,0.4,0,0.6,0c0-0.1,0-0.3,0.3-0.2c0-0.1,0-0.3,0-0.4c-0.2,0-0.3,0-0.3-0.2c-0.1,0-0.1,0-0.2,0c0.5-0.1,0.9-0.3,1.4-0.5
			c0.3,0,0.7,0,1,0c0-0.2,0-0.3-0.1-0.3c0.7-0.2,1.4-0.4,2.2-0.6c-3.3-1.7-8.1-2.2-8.1-7c5.4-1.4,15.7-1.1,17.9-3.5
			c4.9,0.8,8.4,2.9,11.7,5.2c-0.1,0.1-0.1,0.2-0.1,0.4c-0.7-0.3-1.7-0.5-3-0.6c0-0.1,0-0.3-0.3-0.3c0,0-0.1,0.1-0.2,0.3
			c-1.2-0.1-2.4-0.1-3.7,0c0-0.2,0-0.3,0-0.5c-0.6,0-0.8,0.3-1,0.6c-2,0.2-3.7,0.5-4.3,0.9c2.7,0,5.1,0.3,7.2,0.5c0,0.1,0,0.1,0,0.2
			c0.4,0,0.8,0,1.1,0c0.7,0.1,1.4,0.1,2,0.1c-0.3,0.3-0.6,0.6-0.6,1c0.5,0.4,0.3,0,1.1,0c0.3,0.7,0.1,0.7-0.3,1.3
			c0.8,0.2,0.7-0.3,1.4-0.2c-0.4-1-0.2-1.3,0.6-1.7c-0.1-0.2-0.2-0.4-0.4-0.5c0.4-0.1,0.7-0.1,1.1-0.2c0-0.2-0.1-0.3-0.3-0.5
			c0.1,0,0.3,0,0.4,0.1c0-0.1,0.1-0.2,0.1-0.3c1.1,0.8,2.3,1.6,3.4,2.4c0,0,0,0,0,0c0,0,0,0,0,0c0.6,0.4,1.1,0.7,1.7,1.1
			c-0.2,0.2-0.3,0.4-0.5,0.6c-0.6-0.3-1-0.7-1.8-0.8c-0.2,1.1-1.1-0.4-1.9-0.2c0.2,1.1-0.8,1.2-0.5,2.4c0.9,0,1.6,0,1.9,0.4
			c-0.7,0.5-0.3,0.8-0.3,1.5c1.2-0.1,1.5-0.7,2.5,0c0.1,0,0.1-0.1,0.2-0.2c0.5,0.6,1.1,1.1,1.8,1.5c-0.4,0.1-0.8,0.2-1.1,0.4
			c-0.2-0.1-0.1-0.2,0.3-0.2c0-0.6-0.5-0.8-0.8-1.1c0.1,0.6-0.6,0.7-0.6,1.3c0.2-0.1,0.4,0,0.6,0.1c-0.5,0.2-0.9,0.5-1.2,0.8
			c0-0.3,0.1-0.7-0.3-0.7c0.3,0.7-0.9,0.2-0.6,0.9c0.2,0,0.5,0,0.7,0c-0.2,0.2-0.2,0.5-0.2,0.8c0.6,0.3,1.3,0.5,2,0.7
			c-0.3,0.7-0.7,1.4-1.7,1c0.2,0.7-0.3,0.8-0.3,1.3c0.2,0,0.5,0,0.5,0.2c0.7,0,1.3-1.2,0.8-0.2c1-0.2,1.5-0.8,2.7-0.9
			c0.1-0.5,0-0.8-0.2-1.2c0.2,0,0.5,0,0.7,0c0.5,0.5,0.9,1,1.9,0.9c-0.3-0.3-0.3-0.6-0.3-0.9c0.4,0,0.8,0,1.2,0
			c0.4,0.9,0.1,1.3,1.3,1.6c-1.1,0.3-1.2,1.4-2.2,1.8c-0.7-0.5-1.5-1-2.5-1.3c-0.7,1-1.8,0.2-3,0.7c0.3,0.8,1.6,0.8,1.9,1.5
			c0.4-0.5-0.8-0.9,0-1.1c0.3,0.7,1.7,1.5,1.9,0.4c1.1,0.4-0.2,1.4,0.6,2c0.3-0.2,0.1-0.8,0.8-0.7c-0.1,0.4,0.8,1.1,0,1.3
			c-1-0.3-3.2-0.8-3.6-0.4C1395.3,497.7,1395.4,498.2,1395.3,498.4z M1392.8,484.2c1.3,0.1,0.1,1.2-0.3,1.3
			C1391.6,485.1,1393,484.7,1392.8,484.2z M1401,496.6c-0.1,0.2-0.3,0.4-0.3,0.7c-1.7,0.3-1.2-1.7,0-1.5
			C1400.3,495.9,1399.8,496.9,1401,496.6z M1402.4,501.8c-0.1-0.2-0.1-0.3-0.1-0.5c0.2,0,0.3,0,0.4,0.2
			C1402.6,501.5,1402.5,501.7,1402.4,501.8z M1402.7,498.8c-0.5-0.4-0.8,0.1-1.1,0.4c0.1,0.1,0.1,0.1,0.2,0.2
			c-0.3,0-0.6,0.1-0.9,0.1c0-0.1,0.1-0.2,0.1-0.3c-1,0.1-1.4-0.3-1.6-0.9c0.8-0.5,1.6-0.9,2.7-1.1c0.1-0.5-1.2-1.1-0.3-1.5
			c-0.4,1.2,1.2,0.6,1.4,0.9c-0.2,0.6,0.4,0.6,0.3,1.1c-0.5,0-1.1,0-1.6,0C1401.6,498.5,1403,498,1402.7,498.8z M1403.4,502.9
			c-0.2-0.1-0.4-0.3-0.5-0.4c0.4-0.5,0.5-1.6,0.9-2.1c1.5,0.2,0.7,1.3,1.6,0.7C1405.3,501.4,1404.2,502.2,1403.4,502.9z
			 M1404.5,503.5c0.3-0.2,0.8-0.1,1.2-0.3c-0.1,0.3,0,0.5,0.1,0.7C1405.3,503.8,1404.9,503.6,1404.5,503.5z M1412,523.6
			c0,0.5-0.3,0.9-0.7,1.2c-1.8-0.6-4-0.7-5.4,0c-0.1-0.5-0.2-1-0.3-1.5c0.1,0,0.2,0,0.3,0c0.1,0,0.1,0.1,0.1,0.1c0,0,0,0,0.1-0.1
			c1.9,0.1,3.9,0,5.9,0c0.2,0.1,0.4,0.2,0.7,0c0.3,0,0.5,0,0.8,0C1412.9,523.6,1412.8,523.9,1412,523.6z M1413.5,453.7
			c-1.8,0.1-3.7,0.1-5.1,0.2c0-0.3-0.1-0.5-0.3-0.6c1.7-0.1,3.6-0.1,5.6-0.2C1413.7,453.3,1413.6,453.5,1413.5,453.7z M1408.6,449.9
			c0.1,0,0.1-0.1,0.1-0.1c0.1,0.1,0.2,0.1,0.3,0.1C1408.8,449.9,1408.7,449.9,1408.6,449.9z M1415.3,460.1c0.4,0,0.9,0,1.3,0
			C1416.2,460.4,1415.6,460.4,1415.3,460.1z M1414.1,455.7c0-0.7-0.2-0.9-0.1-1.2c0.6,0,1.1,0,1.7,0c0.4,0.1,0.8,0.3,0.8,0.7
			C1415.5,455.2,1415.2,455.7,1414.1,455.7z M1418.3,453.5c-0.1-0.1-0.2-0.2-0.2-0.3c0.3,0,0.6,0,0.9,0c0,0.1,0,0.2,0,0.2
			C1418.8,453.4,1418.6,453.4,1418.3,453.5z M1420.4,452c-0.7,0-1.3,0-1.6,0.2c0.5-0.4,0-0.5-0.3-0.7c0.7,0,1.3,0.1,1.9,0.1
			C1420.5,451.7,1420.5,451.8,1420.4,452z M1419.8,450.5c-0.2-0.1-0.5-0.1-0.9-0.2c0-0.2-0.1-0.4-0.2-0.6c-0.2,0.3-0.4,0.4-0.6,0.4
			c-0.5-0.2-0.8-0.3-0.1-0.6c-2.3,0.2-4.7,0.2-7.1,0.3c-0.1-0.2-0.1-0.4-0.2-0.6c1.8,0,3.5,0.1,5.1,0.2c0.8,0,1.3-0.1,1.7-0.1
			c0.1,0.3,0.5,0.5,1,0.1c-0.3-0.1-0.3-0.3-0.3-0.4c0,0,0,0,0,0c0.1-0.2,0.4-0.4,0.5-0.7c0.2-0.1,0.6-0.1,1.2-0.1
			c-0.2,0.3-0.4,0.7-0.4,1.3c0.9-0.1,1.2,0.2,1.1,0.9C1420.7,450.5,1420.1,450.4,1419.8,450.5z M1421.3,454.8c-0.3,0-0.5,0-0.6-0.1
			c0.2,0,0.4,0,0.6,0C1421.3,454.7,1421.3,454.7,1421.3,454.8z M1423.1,452.7c-0.4,0-0.8,0-1.2-0.1c0.2-0.3-0.1-0.6-0.2-1
			c0.3,0,0.5,0,0.8,0c0.1,0.2,0.2,0.4,0.4,0.5c0.1-0.1,0.1-0.3,0.1-0.5c0.4,0,0.8,0,1.2,0C1423.8,452,1423.4,452.4,1423.1,452.7z
			 M1423.1,450.9c0-0.1,0-0.2,0.1-0.2c0.4,0,0.6,0.1,0.7,0.2C1423.6,450.9,1423.4,450.9,1423.1,450.9z M1426.7,448
			c-0.1,0.4,0.3,0.5,0.3,0.9c-0.7,0-1.3,0.1-1.6,0.4c0.8,0.3,0.6,1.2,0.1,1.5c0,0-0.1,0-0.2,0c-0.5-0.2-0.6-0.6-1-0.8
			c-0.2-0.8,0.4-0.8,0.3-1.5c-0.6-0.1-1-0.2-1.3-0.5c1.4,0,2.9-0.1,4.5-0.1C1427.4,448,1427.2,448.1,1426.7,448z M1424.2,441.9
			c-0.2-0.3-0.6-0.6-1.1-0.7c-0.1,0.2-0.2,0.4-0.4,0.6c-1.3-0.1-2.6-0.2-3.9-0.3c0,0-0.1,0-0.1,0c0,0,0,0,0,0
			c-5.5-0.4-10.7-0.9-14-1.6c-1.9-0.7,7.3-0.3,6.6-0.9c-5.8-0.5-9.5,0-14.4,0.4c-0.1-0.2-0.1-0.3,0-0.6c-0.6,0-1,0.3-1.2,0.7
			c-1.5,0.1-3.1,0.2-4.9,0.2c-0.1-0.4-0.2-0.7-0.2-1.1c10.2-0.1,14.3-0.8,20.7-1.3c1.7,0.7-6,0.4-4.4,1.1c5.6,0.2,7.3,0,8.4-0.3
			c0.2,0.3,0.5,0.5,1.2,0.5c0.2-0.2,0.2-0.5,0-0.8c0.7-0.1,1.6-0.3,3.5-0.3c0,0.1,0,0.1,0,0.2c0.3,0,0.6,0,0.8,0
			c0-0.1-0.1-0.1-0.1-0.2c3.6,0,6.7,0.1,9.5,0.3c0.8,0.8,1.3,1.7,1.5,2.6c-0.1,0-0.2,0-0.3,0c0,0,0,0,0,0c-1.6,0.1-2.7,0.2-2.5,0.6
			c1.1,0,1.9,0,2.7,0c0.1,0.1,0.2,0.2-0.1,0.5c0.2,0,0.4,0,0.6,0c0,0.2,0.1,0.4,0.1,0.6c-0.1,0.1-0.3,0.3-0.4,0.4
			C1429.5,442.3,1426.9,442.1,1424.2,441.9z M1431.2,452c0-0.1-0.1-0.1-0.1-0.2c0.4-0.1,0.5,0.1,0.7,0.2
			C1431.6,451.9,1431.3,452,1431.2,452z M1436,449.5c-0.1,0.8-0.4,1.2-1.1,2c-0.3-0.7-0.8-0.8-1.4-0.8c0.1-0.1,0.1-0.2,0.1-0.3
			c-1.1,0-2-0.1-2.8-0.1c0.8-0.5,2.1-1.5,3.6-1c-0.3-0.7-1.4-0.7-2.2-1.1c-0.5,0.6-1.4,1.1-2.5,0.7c0.3,0.8-1.1,1.5-1.6,0.9
			c0.6-0.5,1.1-1.1,0.6-1.9c1.4,0,2.9-0.1,4.5-0.1c0.2,0.2,0.6,0.3,0.9,0.3c0.4,0.4,0.7,1,1.4,1.2c0.2-0.1,0.6-0.4,1-0.6
			c0.4,0,0.7,0,1.1,0C1437.6,449.4,1437,449.6,1436,449.5z M1439.6,450.6c-0.5-0.1-0.2-0.8-1.1-0.7c0.1,0.7,0.1,1.2,0.1,1.7
			c-0.3,0-0.7,0-1,0c-0.1-0.5-0.4-0.9-0.5-1.5c0.7-0.5,1.7-0.7,2-1.5c0.4,0,0.7,0,1.1,0C1440.3,449.4,1440.3,450.2,1439.6,450.6z
			 M1442.3,451.8c-0.3,0-0.7,0-1.1,0c-0.3-0.3-0.6-0.6-0.9-0.9c1.1,0.6,1.1,0,1.9,0.2C1442.3,451.3,1442.3,451.5,1442.3,451.8z
			 M1441.3,448.7c0.1,0,0.2,0,0.3,0C1441.5,448.7,1441.4,448.7,1441.3,448.7z M1445.6,452c-0.6-0.1-1.3-0.1-1.9-0.1c0,0,0-0.1,0-0.1
			c0.7-0.3,1.1-0.8,1.9-0.4c0-0.2-0.1-0.3-0.1-0.4c0.4,0,0.7,0,1.1,0.1C1446.2,451.3,1445.9,451.6,1445.6,452z M1450.2,454.4
			c0.3,0,0.7,0,1,0c-0.1,0.6,0.6,0.6,0.9,0.8C1452.1,455.7,1450.1,455.6,1450.2,454.4z M1452.9,453.3c-0.4-1-0.3-1.3-0.3-1.9
			c0.4,0,0.8,0.1,1.2,0.1C1453.4,452.1,1453.1,452.8,1452.9,453.3z M1452.6,451.3c0-0.1-0.1-0.3-0.1-0.5c0.5-0.1,0.4-0.3-0.1-0.4
			c0-0.1,0-0.1,0-0.2c-0.4-0.3-0.6-0.1-0.8,0.1c-0.2,0-0.4,0-0.6-0.1c-0.1-0.2-0.4-0.3-0.3-0.7c-0.9,0.4-1.7,0.1-2.7,0
			c-0.3,0.2-0.4,0.4-0.6,0.6c-0.7,0-1.5,0-2.2,0c-0.4-0.5-0.8-0.9-0.8-1.5c0.2,0,0.3,0,0.4,0c0.5,0.3,0.4,0,1,0c0.7,0,1.3,0,1.9,0
			c1.3,0.4,3,1.4,3.7,0c-0.2-0.1-0.4-0.2-0.6-0.3c0.4-0.1,0.7-0.2,0.4-0.4c1.8,0.1,3.2,0.2,4.6,0.3c-0.6,1-1.3,2-1.8,2.9H1452.6z
			 M1469.4,447.8c-0.2,0.4-0.3,0.8-0.5,1.2c-1.1-0.2-2.2-0.4-3.3-0.6c0,0,0.1-0.1,0.1-0.1c-0.6-0.2-1.1-0.5-1.5-0.1
			c-0.9-0.2-1.8-0.4-2.8-0.5c0.2-0.2,0.6-0.2,0.4-0.6c-0.3,0-0.5,0-0.8,0c0,0.2,0,0.4,0,0.6c-1.8-0.3-3.7-0.6-5.9-0.9
			c0,0,0.1-0.1,0.1-0.1c-0.1-0.1-0.2-0.1-0.3-0.1c4.2,0.1,7.4,0.3,13.7,0.2C1468.8,447,1468.9,447.4,1469.4,447.8z M1467.4,454.2
			c-0.5,0-0.9,0-1.3-0.1c0.2-0.9,1.7-0.7,2.1-1.3c0,0,0,0,0,0c0.9,0.5,1.8,1,2.8,1.3c-0.3,0.1-0.5,0.2-0.9,0.3
			c-0.5,0-1.1-0.1-1.7-0.1c-0.3-0.2-0.2-0.6-1-0.4C1467.4,454,1467.4,454.1,1467.4,454.2z M1465.3,454.1c-1.4-0.1-2.2-0.3-0.8-0.7
			c-0.9,0-1.7,0-2.5,0c0.2-0.7-1.1-0.3-1.6-0.4c-0.1,0.2,0,0.4-0.3,0.4c-0.7,0-1.5,0-2.2,0c0-0.4,0.2-0.8,1.4-0.7
			c0-0.7,0.3-1.1,0.7-1.5c1-0.1,2-0.1,2.9-0.2c0,0.1-0.1,0.1-0.1,0.2c0.5,0,0.9,0,1.4,0c-0.1-0.1-0.1-0.2-0.1-0.3c0.2,0,0.4,0,0.6,0
			c-0.1,0.2-0.1,0.3-0.1,0.5c-0.1,0-0.1,0-0.1,0c0,0.2,0,0.4,0,0.7c0.3,0.1,0.5,0,0.5-0.2c0.3-0.1,0.5-0.2,0.7-0.3
			c-0.5,0.6-0.2,1.4,0.4,2c-0.9,0.3-0.7-0.3-1.1-0.4C1465,453.6,1465.1,453.9,1465.3,454.1z M1461.9,453.4c-0.1,0-0.3,0-0.4,0
			C1461.5,453.3,1461.7,453.3,1461.9,453.4z M1463.1,450.4c0,0.1,0,0.1,0,0.1c-0.7,0-1.5,0-2.2,0c0.4-0.3,0.7-0.7,0.8-1.2
			c-0.4-0.3-1.8-0.3-2.2,0c0,0.6,0.5,0.7,0.5,1.2c-0.4,0-0.8,0-1.1,0c0.1-0.7,0-1.4-0.1-1.9c3.1,0.4,5.1,0.9,7.5,1.4
			c-0.1,0.1-0.1,0.2-0.1,0.3c-0.1,0-0.3,0-0.5,0.1c-0.1,0-0.2,0-0.3,0c-0.4,0-0.9,0-1.4,0.1c0.2-0.2,0.4-0.3,0.6-0.5
			C1463.8,449.9,1464.1,450.6,1463.1,450.4z M1459,451.1C1459,451.1,1459,451.1,1459,451.1C1459,451.1,1459,451.1,1459,451.1
			C1459,451,1459,451.1,1459,451.1z M1466,451.5c0.2-0.1,0.3-0.3,0.4-0.5c0.4,0.1,0.9,0,0.7,0.5
			C1466.8,451.5,1466.4,451.5,1466,451.5z M1467.5,450.8c0.3,0,0.6,0,0.9,0c-0.2,0.6-0.3,1.2-0.4,1.8
			C1467.4,452.2,1467.6,451.5,1467.5,450.8z M1455.1,454.8c-0.1-0.2-0.1-0.3,0-0.4c0.5,0,1,0,1.4,0c0.1,0.1,0.2,0.1,0.2,0.2
			C1455.7,454.1,1456.3,454.9,1455.1,454.8z M1460.3,455.7c-0.4-1.4-2.6,0.1-3-1.1c0.3,0,0.4-0.1,0.5-0.2c0.9,0,1.8,0,2.8,0
			C1460.9,454.8,1461.2,455.4,1460.3,455.7z M1462.5,458.3c-0.3-0.1-0.3-0.2-0.3-0.4c0.3-0.1,0.5-0.1,0.7-0.2c0,0.1,0,0.2,0.2,0.4
			C1462.7,458,1462.6,458.1,1462.5,458.3z M1462.5,457.1c0,0,0-0.1,0-0.1c0.4,0,0.4,0.1,0.4,0.2
			C1462.8,457.2,1462.7,457.1,1462.5,457.1z M1464.7,457.2c0.4-1-1.6,0-1.6-0.7c0.8-0.5,1.4-1.1,1.9-1.8c-1.1-0.4-2.5-0.2-3.3,0.2
			c-0.1-0.1-0.2-0.4-0.3-0.7c1.5,0,2.9,0,4.3,0c0.1,0.1,0.2,0.2,0.3,0.2c0-0.1,0-0.1,0-0.2c0.5,0,1,0,1.5,0c0.3,0.2,0.6,0.2,0.8,0
			c0.5,0,1,0,1.5,0c-0.1,0-0.2,0.1-0.4,0.1c-0.4,0.5,0.6,1.1,0,1.1c-0.8,0.6-1.3-0.2-2.2-0.2c-0.3,0.4-0.1,1.3-0.6,1.5
			c-1,0.1-0.7-0.8-1.6-0.7C1464.9,456.5,1465.2,457.2,1464.7,457.2z M1465.8,459.8c-0.1,0-0.1-0.1-0.1-0.1
			C1465.7,459.8,1465.8,459.8,1465.8,459.8C1465.8,459.8,1465.8,459.8,1465.8,459.8z M1466,459c-0.3,0-0.6,0-0.8,0
			c0.1-0.4,0.3-1,0.1-1.6C1466,457.7,1466.1,458.3,1466,459z M1466.6,461.2c0-0.4-0.3-0.5-0.3-0.9c0.3,0.4,0.9,0.5,1.4,0.7
			C1467.6,461.2,1467,461.1,1466.6,461.2z M1473.4,458.7c0,0.2-0.1,0.3-0.2,0.4c-1,0-1.9,0-2.9-0.1c0.2-0.1,0.4-0.2,0.9-0.1
			c0.3-1.1-1.3-1.6-2.2-1.1c-0.1,0.7,0.7,0.5,0.6,1.2c-0.4,0-0.8,0-1.2,0c0.1-0.4,0.8-0.2,0.9-0.5c-1.2,0-1-1.2-2.2-1.3
			C1469.5,455.7,1471.2,457.8,1473.4,458.7z M1470.6,445.9c0-0.1,0.1-0.2,0.1-0.5c-1.1,0-1.3,0.4-1.3,0.8c-4.3-0.1-8.7-0.3-13.4-0.5
			c0.1-0.1,0.2-0.2,0.2-0.5c-0.2,0-0.4,0-0.6,0c0,0.2-0.2,0.3-0.2,0.5c-0.8,0-1.6-0.1-2.4-0.1c0.1-0.3,0.5-0.4,1-0.4
			c-0.1-1.9-1.7,0.3-3-0.4c0.3,0.3,0.4,0.5,0.5,0.7c-0.7,0-1.3-0.1-2-0.1c0.2,0,0.4-0.1,0.4-0.2c-0.3-0.7-1.4-0.4-1.6,0.2
			c-1.8-0.1-3.6-0.1-5.4-0.1c-0.2-0.1-0.3-0.2-0.4-0.5c0,0,0-0.1,0-0.1c0-0.1,0-0.2,0-0.4c-0.1,0-0.2,0-0.4,0
			c-0.2-0.1-0.4-0.2-0.7-0.3c1.1-0.4,2.5-0.6,4.1-0.9c1-1.4,1.1-3,0.5-4.5c0.6,0,1.4,0,2,0.1c-0.5,0.1-0.9,0.3-0.9,0.8
			c-0.2,0-0.3,0-0.5,0c-0.5,0.2-0.1,0.3,0.5,0.4c0.1,0.2,0.2,0.4,0.4,0.7c0.4,0,0.9,0,1.4,0c0.2-0.2,0.2-0.4,0.3-0.5
			c1.3,0.1,2.5,0.2,1.7,0.5c3-0.1,1.9-0.5,2.2-0.9c7.6-0.2,2.8,0.9,11,0.6c-4.2,0.6-9.5,0.3-8.8,1.1c1.3,0,3.6,0.1,6.1,0.2
			c0,0,0,0.1,0,0.1c0.2,0.1,0.4,0,0.5-0.1c3.6,0.2,7.5,0.4,8.9,0.9c-0.6,0-1.6,0-2.9,0c0-0.1-0.1-0.2-0.2-0.4
			c-0.2,0.1-0.3,0.2-0.4,0.3c-0.8,0-1.7,0-2.7,0c-0.1-0.2-0.3-0.4-0.7-0.3c-0.1,0.1-0.1,0.2-0.1,0.3c-7.3-0.1-17-0.4-17.2,0.1
			c-0.1,0.2,0.4,0.3,1.2,0.4c-0.2,0.5,0.1,0.5-0.2,1c0.3,0.1,0.6,0.2,0.8,0.4c0.9-0.1,1.2-0.7,1.6-1.1c-0.3,0-0.5-0.1-0.7-0.2
			c1.3,0.1,2.9,0.1,4.8,0c0,0.1,0,0.1,0,0.1c0.3,0.1,0.4,0,0.5-0.1c2.9,0,6.2-0.1,9.3-0.1c0.2,0.2,0.5,0.4,0.9,0.4
			c0-0.1,0-0.3,0-0.4c3.4,0,6.4,0.2,7.8,0.6C1471.9,444.3,1471.2,445.1,1470.6,445.9z M1470.7,213.4c-0.9,0.1-1.8,0.1-2.8-0.5
			c-1.5-0.9-3.3-6.8-3.6-9.3c-0.2-2.2,0.2-5.3-0.3-7.4c-0.6-2.3,0-4.5-0.1-6.5c-0.4-4-2.9-7.7-3.2-10.5c3.1-0.6,2.8-2.3,2.5-4.1
			c-0.5,0.1-1,0.1-1.6,0.2c0-0.1,0-0.1,0-0.2c0-1.6-1-2.2-0.6-3.2c0.6-1.6,2.8-2.4,1.9-3.3c3.9-2.6,6.5-6.1,8.3-10c0,0,0,0,0.1,0
			c1.4-1.3,4.3-2.4,6.6-2.4c2.3,0,4.6-0.8,5.3-1.7c0.6-1,3.4-3.2,6.3-4.9c1.4-0.9,2.4-1.6,2.7-2c-0.9,1.9-1.6,3.8-1.9,5.7
			c-0.3,1.9,0.8,3.3-0.1,5.1c-1,2-4.9,3.9-2.8,6.4c2.2,0.1,2.7-2.4,4.6-1.7c-3.9,5-7.9,10-9.8,14.7c4.5,1.1,5.9-4.5,9.3-5.8
			c-0.1,2.7-1.6,5.6,0.7,8c-4.8,2.8-6.9,6.8-9.6,11.2c0,5-0.9,10.8-4,15.8c-0.9,0-1.9-0.1-2.9-0.1c-0.9,0.3-2.8,0.4-6.6,0.4
			c-1.4,0.8,2.5,1.1,8.5,1.2c-0.5,0.7-1.1,1.4-1.6,2c-1,0.6-1.8,1.3-2.5,2C1472.5,213,1471.6,213.2,1470.7,213.4z M1491.6,171.9
			c-1.1-0.5-0.5-1.2,0.2-1.9C1492.3,170.6,1492,171.2,1491.6,171.9z M1475.5,435.2v-1.1c8.3,0.6,12.7,0.5,22.1,0.6
			C1498.7,435.8,1481,435.3,1475.5,435.2z M1504.2,436.6v0.9c-5.7-0.3-15.2,0.3-22.1-0.2C1483.6,436.5,1494.6,436.6,1504.2,436.6z
			 M1510.1,343.1c-1-0.6-1.9-1.1-2.9-1.7c1.8-1.2,3.6-2.2,5.6-2.3C1511.6,340.2,1511.5,341.4,1510.1,343.1z"/>
	</g>
</g>
</svg>
